<ttFont>
<head>
    <!-- Most of this table will be recalculated by the compiler -->
    <tableVersion value="1.0"/>
    <fontRevision value="1.0"/>
    <checkSumAdjustment value="0x24ba6aee"/>
    <magicNumber value="0x5f0f3cf5"/>
    <flags value="00000000 00011011"/>
    <unitsPerEm value="1000"/>
    <created value="Sat Dec  6 13:43:37 2025"/>
    <modified value="Sat Dec  6 13:50:07 2025"/>
    <xMin value="-24"/>
    <yMin value="-250"/>
    <xMax value="1110"/>
    <yMax value="750"/>
    <macStyle value="00000000 00000010"/>
    <lowestRecPPEM value="6"/>
    <fontDirectionHint value="2"/>
    <indexToLocFormat value="0"/>
    <glyphDataFormat value="0"/>
  </head>
    <TTGlyph name="A" xMin="40" yMin="0" xMax="764" yMax="714">
      <contour>
        <pt x="546" y="694" on="1"/>
        <pt x="551" y="702" on="0"/>
        <pt x="562" y="714" on="0"/>
        <pt x="576" y="714" on="1"/>
        <pt x="589" y="714" on="0"/>
        <pt x="595" y="702" on="0"/>
        <pt x="597" y="685" on="1"/>
        <pt x="676" y="67" on="1"/>
        <pt x="677" y="58" on="0"/>
        <pt x="680" y="45" on="0"/>
        <pt x="692" y="37" on="0"/>
        <pt x="714" y="33" on="0"/>
        <pt x="735" y="33" on="1"/>
        <pt x="747" y="33" on="0"/>
        <pt x="764" y="30" on="0"/>
        <pt x="764" y="19" on="1"/>
        <pt x="764" y="5" on="0"/>
        <pt x="747" y="0" on="0"/>
        <pt x="744" y="0" on="1"/>
        <pt x="741" y="0" on="0"/>
        <pt x="730" y="1" on="0"/>
        <pt x="705" y="2" on="0"/>
        <pt x="663" y="3" on="0"/>
        <pt x="629" y="3" on="1"/>
        <pt x="566" y="3" on="1"/>
        <pt x="563" y="3" on="0"/>
        <pt x="547" y="2" on="0"/>
        <pt x="529" y="1" on="0"/>
        <pt x="513" y="0" on="0"/>
        <pt x="509" y="0" on="1"/>
        <pt x="497" y="0" on="0"/>
        <pt x="492" y="13" on="0"/>
        <pt x="492" y="14" on="1"/>
        <pt x="492" y="28" on="0"/>
        <pt x="509" y="33" on="0"/>
        <pt x="520" y="33" on="1"/>
        <pt x="555" y="33" on="0"/>
        <pt x="585" y="51" on="0"/>
        <pt x="585" y="62" on="1"/>
        <pt x="564" y="231" on="1"/>
        <pt x="290" y="231" on="1"/>
        <pt x="222" y="121" on="1"/>
        <pt x="208" y="99" on="0"/>
        <pt x="195" y="75" on="0"/>
        <pt x="195" y="64" on="1"/>
        <pt x="195" y="47" on="0"/>
        <pt x="221" y="34" on="0"/>
        <pt x="237" y="33" on="1"/>
        <pt x="241" y="33" on="0"/>
        <pt x="255" y="29" on="0"/>
        <pt x="255" y="19" on="1"/>
        <pt x="255" y="5" on="0"/>
        <pt x="239" y="0" on="0"/>
        <pt x="235" y="0" on="1"/>
        <pt x="231" y="0" on="0"/>
        <pt x="190" y="3" on="0"/>
        <pt x="139" y="3" on="1"/>
        <pt x="113" y="3" on="0"/>
        <pt x="82" y="2" on="0"/>
        <pt x="65" y="1" on="0"/>
        <pt x="57" y="0" on="0"/>
        <pt x="54" y="0" on="1"/>
        <pt x="45" y="0" on="0"/>
        <pt x="40" y="12" on="0"/>
        <pt x="40" y="14" on="1"/>
        <pt x="40" y="27" on="0"/>
        <pt x="54" y="32" on="0"/>
        <pt x="62" y="33" on="1"/>
        <pt x="76" y="34" on="0"/>
        <pt x="104" y="41" on="0"/>
        <pt x="135" y="59" on="0"/>
        <pt x="168" y="92" on="0"/>
        <pt x="185" y="119" on="1"/>
      </contour>
      <contour>
        <pt x="560" y="264" on="1"/>
        <pt x="518" y="593" on="1"/>
        <pt x="311" y="264" on="1"/>
      </contour>
    </TTGlyph>
    <TTGlyph name="B" xMin="53" yMin="0" xMax="795" yMax="683">
      <contour>
        <pt x="303" y="616" on="1"/>
        <pt x="305" y="626" on="0"/>
        <pt x="307" y="631" on="0"/>
        <pt x="307" y="634" on="1"/>
        <pt x="307" y="646" on="0"/>
        <pt x="270" y="650" on="0"/>
        <pt x="245" y="650" on="1"/>
        <pt x="232" y="650" on="0"/>
        <pt x="216" y="653" on="0"/>
        <pt x="216" y="664" on="1"/>
        <pt x="216" y="678" on="0"/>
        <pt x="233" y="683" on="0"/>
        <pt x="247" y="683" on="1"/>
        <pt x="596" y="683" on="1"/>
        <pt x="643" y="683" on="0"/>
        <pt x="717" y="660" on="0"/>
        <pt x="768" y="622" on="0"/>
        <pt x="795" y="571" on="0"/>
        <pt x="795" y="543" on="1"/>
        <pt x="795" y="510" on="0"/>
        <pt x="760" y="450" on="0"/>
        <pt x="701" y="401" on="0"/>
        <pt x="623" y="365" on="0"/>
        <pt x="579" y="357" on="1"/>
        <pt x="617" y="353" on="0"/>
        <pt x="677" y="328" on="0"/>
        <pt x="719" y="290" on="0"/>
        <pt x="742" y="241" on="0"/>
        <pt x="742" y="214" on="1"/>
        <pt x="742" y="178" on="0"/>
        <pt x="698" y="102" on="0"/>
        <pt x="621" y="40" on="0"/>
        <pt x="516" y="0" on="0"/>
        <pt x="454" y="0" on="1"/>
        <pt x="83" y="0" on="1"/>
        <pt x="70" y="0" on="0"/>
        <pt x="53" y="3" on="0"/>
        <pt x="53" y="14" on="1"/>
        <pt x="53" y="28" on="0"/>
        <pt x="70" y="33" on="0"/>
        <pt x="84" y="33" on="1"/>
        <pt x="112" y="33" on="0"/>
        <pt x="143" y="37" on="0"/>
        <pt x="159" y="47" on="0"/>
        <pt x="166" y="65" on="0"/>
        <pt x="169" y="79" on="1"/>
      </contour>
      <contour>
        <pt x="482" y="369" on="1"/>
        <pt x="530" y="369" on="0"/>
        <pt x="610" y="400" on="0"/>
        <pt x="669" y="450" on="0"/>
        <pt x="701" y="513" on="0"/>
        <pt x="701" y="545" on="1"/>
        <pt x="701" y="560" on="0"/>
        <pt x="691" y="597" on="0"/>
        <pt x="664" y="629" on="0"/>
        <pt x="618" y="650" on="0"/>
        <pt x="581" y="650" on="1"/>
        <pt x="437" y="650" on="1"/>
        <pt x="422" y="650" on="0"/>
        <pt x="404" y="648" on="0"/>
        <pt x="395" y="641" on="0"/>
        <pt x="389" y="626" on="0"/>
        <pt x="386" y="613" on="1"/>
        <pt x="325" y="369" on="1"/>
      </contour>
      <contour>
        <pt x="429" y="33" on="1"/>
        <pt x="474" y="33" on="0"/>
        <pt x="553" y="65" on="0"/>
        <pt x="611" y="117" on="0"/>
        <pt x="645" y="185" on="0"/>
        <pt x="645" y="222" on="1"/>
        <pt x="645" y="243" on="0"/>
        <pt x="632" y="285" on="0"/>
        <pt x="603" y="320" on="0"/>
        <pt x="556" y="341" on="0"/>
        <pt x="521" y="341" on="1"/>
        <pt x="318" y="341" on="1"/>
        <pt x="248" y="64" on="1"/>
        <pt x="246" y="59" on="0"/>
        <pt x="244" y="48" on="0"/>
        <pt x="244" y="42" on="1"/>
        <pt x="244" y="37" on="0"/>
        <pt x="249" y="35" on="0"/>
        <pt x="256" y="33" on="1"/>
      </contour>
    </TTGlyph>
    <TTGlyph name="C" xMin="53" yMin="-21" xMax="799" yMax="704">
      <contour>
        <pt x="736" y="439" on="1"/>
        <pt x="733" y="425" on="0"/>
        <pt x="727" y="417" on="0"/>
        <pt x="717" y="417" on="1"/>
        <pt x="714" y="417" on="0"/>
        <pt x="700" y="420" on="0"/>
        <pt x="700" y="430" on="1"/>
        <pt x="700" y="439" on="0"/>
        <pt x="704" y="464" on="0"/>
        <pt x="704" y="475" on="1"/>
        <pt x="704" y="511" on="0"/>
        <pt x="684" y="581" on="0"/>
        <pt x="641" y="636" on="0"/>
        <pt x="573" y="671" on="0"/>
        <pt x="526" y="671" on="1"/>
        <pt x="466" y="671" on="0"/>
        <pt x="327" y="612" on="0"/>
        <pt x="270" y="549" on="1"/>
        <pt x="228" y="502" on="0"/>
        <pt x="180" y="398" on="0"/>
        <pt x="155" y="306" on="0"/>
        <pt x="148" y="237" on="0"/>
        <pt x="148" y="225" on="1"/>
        <pt x="148" y="168" on="0"/>
        <pt x="185" y="87" on="0"/>
        <pt x="244" y="36" on="0"/>
        <pt x="319" y="12" on="0"/>
        <pt x="357" y="12" on="1"/>
        <pt x="402" y="12" on="0"/>
        <pt x="494" y="44" on="0"/>
        <pt x="575" y="102" on="0"/>
        <pt x="638" y="185" on="0"/>
        <pt x="654" y="237" on="1"/>
        <pt x="656" y="245" on="0"/>
        <pt x="662" y="253" on="0"/>
        <pt x="671" y="253" on="1"/>
        <pt x="686" y="253" on="0"/>
        <pt x="686" y="240" on="1"/>
        <pt x="686" y="235" on="0"/>
        <pt x="665" y="174" on="0"/>
        <pt x="640" y="137" on="1"/>
        <pt x="620" y="108" on="0"/>
        <pt x="559" y="51" on="0"/>
        <pt x="483" y="6" on="0"/>
        <pt x="393" y="-21" on="0"/>
        <pt x="344" y="-21" on="1"/>
        <pt x="284" y="-21" on="0"/>
        <pt x="179" y="18" on="0"/>
        <pt x="99" y="90" on="0"/>
        <pt x="53" y="194" on="0"/>
        <pt x="53" y="259" on="1"/>
        <pt x="53" y="345" on="0"/>
        <pt x="133" y="506" on="0"/>
        <pt x="265" y="630" on="0"/>
        <pt x="432" y="704" on="0"/>
        <pt x="519" y="704" on="1"/>
        <pt x="563" y="704" on="0"/>
        <pt x="627" y="680" on="0"/>
        <pt x="671" y="649" on="0"/>
        <pt x="695" y="620" on="0"/>
        <pt x="698" y="615" on="1"/>
        <pt x="768" y="692" on="1"/>
        <pt x="774" y="699" on="0"/>
        <pt x="781" y="704" on="0"/>
        <pt x="786" y="704" on="1"/>
        <pt x="799" y="704" on="0"/>
        <pt x="799" y="692" on="1"/>
        <pt x="799" y="688" on="0"/>
        <pt x="797" y="680" on="0"/>
        <pt x="796" y="677" on="1"/>
      </contour>
    </TTGlyph>
    <TTGlyph name="D" xMin="51" yMin="0" xMax="846" yMax="683">
      <contour>
        <pt x="301" y="616" on="1"/>
        <pt x="303" y="626" on="0"/>
        <pt x="305" y="631" on="0"/>
        <pt x="305" y="634" on="1"/>
        <pt x="305" y="646" on="0"/>
        <pt x="268" y="650" on="0"/>
        <pt x="243" y="650" on="1"/>
        <pt x="230" y="650" on="0"/>
        <pt x="214" y="653" on="0"/>
        <pt x="214" y="664" on="1"/>
        <pt x="214" y="678" on="0"/>
        <pt x="231" y="683" on="0"/>
        <pt x="245" y="683" on="1"/>
        <pt x="595" y="683" on="1"/>
        <pt x="651" y="683" on="0"/>
        <pt x="743" y="645" on="0"/>
        <pt x="809" y="577" on="0"/>
        <pt x="846" y="482" on="0"/>
        <pt x="846" y="425" on="1"/>
        <pt x="846" y="341" on="0"/>
        <pt x="774" y="188" on="0"/>
        <pt x="655" y="70" on="0"/>
        <pt x="504" y="0" on="0"/>
        <pt x="425" y="0" on="1"/>
        <pt x="81" y="0" on="1"/>
        <pt x="68" y="0" on="0"/>
        <pt x="51" y="3" on="0"/>
        <pt x="51" y="14" on="1"/>
        <pt x="51" y="28" on="0"/>
        <pt x="68" y="33" on="0"/>
        <pt x="82" y="33" on="1"/>
        <pt x="110" y="33" on="0"/>
        <pt x="141" y="37" on="0"/>
        <pt x="157" y="47" on="0"/>
        <pt x="164" y="65" on="0"/>
        <pt x="167" y="79" on="1"/>
      </contour>
      <contour>
        <pt x="250" y="64" on="1"/>
        <pt x="248" y="59" on="0"/>
        <pt x="246" y="48" on="0"/>
        <pt x="246" y="42" on="1"/>
        <pt x="246" y="37" on="0"/>
        <pt x="251" y="35" on="0"/>
        <pt x="258" y="33" on="1"/>
        <pt x="407" y="33" on="1"/>
        <pt x="451" y="33" on="0"/>
        <pt x="527" y="55" on="0"/>
        <pt x="590" y="89" on="0"/>
        <pt x="639" y="132" on="0"/>
        <pt x="655" y="153" on="1"/>
        <pt x="688" y="195" on="0"/>
        <pt x="727" y="292" on="0"/>
        <pt x="749" y="381" on="0"/>
        <pt x="756" y="449" on="0"/>
        <pt x="756" y="461" on="1"/>
        <pt x="756" y="553" on="0"/>
        <pt x="648" y="650" on="0"/>
        <pt x="560" y="650" on="1"/>
        <pt x="439" y="650" on="1"/>
        <pt x="424" y="650" on="0"/>
        <pt x="406" y="648" on="0"/>
        <pt x="397" y="641" on="0"/>
        <pt x="391" y="626" on="0"/>
        <pt x="388" y="613" on="1"/>
      </contour>
    </TTGlyph>
    <TTGlyph name="E" xMin="50" yMin="0" xMax="800" yMax="680">
      <contour>
        <pt x="655" y="18" on="1"/>
        <pt x="649" y="4" on="0"/>
        <pt x="640" y="0" on="0"/>
        <pt x="621" y="0" on="1"/>
        <pt x="80" y="0" on="1"/>
        <pt x="67" y="0" on="0"/>
        <pt x="50" y="3" on="0"/>
        <pt x="50" y="14" on="1"/>
        <pt x="50" y="28" on="0"/>
        <pt x="67" y="33" on="0"/>
        <pt x="81" y="33" on="1"/>
        <pt x="109" y="33" on="0"/>
        <pt x="140" y="37" on="0"/>
        <pt x="156" y="47" on="0"/>
        <pt x="163" y="65" on="0"/>
        <pt x="166" y="79" on="1"/>
        <pt x="300" y="615" on="1"/>
        <pt x="301" y="619" on="0"/>
        <pt x="303" y="627" on="0"/>
        <pt x="303" y="631" on="1"/>
        <pt x="303" y="638" on="0"/>
        <pt x="296" y="643" on="0"/>
        <pt x="280" y="645" on="1"/>
        <pt x="267" y="647" on="0"/>
        <pt x="244" y="647" on="0"/>
        <pt x="242" y="647" on="1"/>
        <pt x="229" y="647" on="0"/>
        <pt x="212" y="650" on="0"/>
        <pt x="212" y="661" on="1"/>
        <pt x="212" y="675" on="0"/>
        <pt x="229" y="680" on="0"/>
        <pt x="243" y="680" on="1"/>
        <pt x="770" y="680" on="1"/>
        <pt x="784" y="680" on="0"/>
        <pt x="800" y="677" on="0"/>
        <pt x="800" y="666" on="1"/>
        <pt x="800" y="662" on="0"/>
        <pt x="800" y="653" on="0"/>
        <pt x="799" y="649" on="1"/>
        <pt x="781" y="479" on="1"/>
        <pt x="779" y="466" on="0"/>
        <pt x="775" y="453" on="0"/>
        <pt x="764" y="453" on="1"/>
        <pt x="758" y="453" on="0"/>
        <pt x="749" y="461" on="0"/>
        <pt x="749" y="470" on="1"/>
        <pt x="749" y="484" on="0"/>
        <pt x="754" y="519" on="0"/>
        <pt x="754" y="535" on="1"/>
        <pt x="754" y="568" on="0"/>
        <pt x="738" y="611" on="0"/>
        <pt x="702" y="637" on="0"/>
        <pt x="641" y="647" on="0"/>
        <pt x="596" y="647" on="1"/>
        <pt x="440" y="647" on="1"/>
        <pt x="425" y="647" on="0"/>
        <pt x="407" y="645" on="0"/>
        <pt x="398" y="638" on="0"/>
        <pt x="392" y="623" on="0"/>
        <pt x="389" y="609" on="1"/>
        <pt x="329" y="370" on="1"/>
        <pt x="429" y="370" on="1"/>
        <pt x="461" y="370" on="0"/>
        <pt x="505" y="377" on="0"/>
        <pt x="535" y="397" on="0"/>
        <pt x="555" y="434" on="0"/>
        <pt x="562" y="463" on="1"/>
        <pt x="566" y="476" on="0"/>
        <pt x="571" y="487" on="0"/>
        <pt x="581" y="487" on="1"/>
        <pt x="586" y="487" on="0"/>
        <pt x="596" y="480" on="0"/>
        <pt x="596" y="472" on="1"/>
        <pt x="596" y="470" on="0"/>
        <pt x="593" y="454" on="0"/>
        <pt x="592" y="452" on="1"/>
        <pt x="539" y="243" on="1"/>
        <pt x="536" y="230" on="0"/>
        <pt x="530" y="220" on="0"/>
        <pt x="521" y="220" on="1"/>
        <pt x="510" y="220" on="0"/>
        <pt x="506" y="233" on="0"/>
        <pt x="506" y="234" on="1"/>
        <pt x="506" y="241" on="0"/>
        <pt x="509" y="248" on="1"/>
        <pt x="514" y="269" on="0"/>
        <pt x="516" y="292" on="0"/>
        <pt x="516" y="293" on="1"/>
        <pt x="516" y="305" on="0"/>
        <pt x="509" y="322" on="0"/>
        <pt x="490" y="332" on="0"/>
        <pt x="455" y="337" on="0"/>
        <pt x="428" y="337" on="1"/>
        <pt x="321" y="337" on="1"/>
        <pt x="252" y="64" on="1"/>
        <pt x="250" y="59" on="0"/>
        <pt x="248" y="48" on="0"/>
        <pt x="248" y="42" on="1"/>
        <pt x="248" y="37" on="0"/>
        <pt x="253" y="35" on="0"/>
        <pt x="260" y="33" on="1"/>
        <pt x="442" y="33" on="1"/>
        <pt x="503" y="33" on="0"/>
        <pt x="586" y="55" on="0"/>
        <pt x="646" y="103" on="0"/>
        <pt x="692" y="180" on="0"/>
        <pt x="716" y="235" on="1"/>
        <pt x="724" y="252" on="0"/>
        <pt x="730" y="260" on="0"/>
        <pt x="738" y="260" on="1"/>
        <pt x="749" y="260" on="0"/>
        <pt x="753" y="248" on="0"/>
        <pt x="753" y="246" on="1"/>
        <pt x="753" y="240" on="0"/>
        <pt x="749" y="232" on="1"/>
      </contour>
    </TTGlyph>
    <TTGlyph name="F" xMin="49" yMin="0" xMax="785" yMax="680">
      <contour>
        <pt x="254" y="75" on="1"/>
        <pt x="251" y="64" on="0"/>
        <pt x="250" y="54" on="0"/>
        <pt x="250" y="53" on="1"/>
        <pt x="250" y="44" on="0"/>
        <pt x="260" y="37" on="0"/>
        <pt x="280" y="35" on="1"/>
        <pt x="297" y="33" on="0"/>
        <pt x="316" y="33" on="0"/>
        <pt x="332" y="33" on="1"/>
        <pt x="348" y="33" on="0"/>
        <pt x="365" y="30" on="0"/>
        <pt x="365" y="19" on="1"/>
        <pt x="365" y="5" on="0"/>
        <pt x="349" y="0" on="0"/>
        <pt x="344" y="0" on="1"/>
        <pt x="330" y="0" on="0"/>
        <pt x="284" y="2" on="0"/>
        <pt x="270" y="3" on="1"/>
        <pt x="132" y="3" on="1"/>
        <pt x="115" y="3" on="0"/>
        <pt x="81" y="0" on="0"/>
        <pt x="65" y="0" on="1"/>
        <pt x="55" y="0" on="0"/>
        <pt x="49" y="11" on="0"/>
        <pt x="49" y="14" on="1"/>
        <pt x="49" y="28" on="0"/>
        <pt x="66" y="33" on="0"/>
        <pt x="80" y="33" on="1"/>
        <pt x="108" y="33" on="0"/>
        <pt x="139" y="37" on="0"/>
        <pt x="155" y="47" on="0"/>
        <pt x="162" y="65" on="0"/>
        <pt x="165" y="79" on="1"/>
        <pt x="298" y="611" on="1"/>
        <pt x="302" y="626" on="0"/>
        <pt x="302" y="631" on="1"/>
        <pt x="302" y="639" on="0"/>
        <pt x="294" y="643" on="0"/>
        <pt x="278" y="645" on="1"/>
        <pt x="265" y="647" on="0"/>
        <pt x="245" y="647" on="0"/>
        <pt x="240" y="647" on="1"/>
        <pt x="227" y="647" on="0"/>
        <pt x="211" y="651" on="0"/>
        <pt x="211" y="662" on="1"/>
        <pt x="211" y="676" on="0"/>
        <pt x="228" y="680" on="0"/>
        <pt x="242" y="680" on="1"/>
        <pt x="755" y="680" on="1"/>
        <pt x="769" y="680" on="0"/>
        <pt x="785" y="677" on="0"/>
        <pt x="785" y="666" on="1"/>
        <pt x="785" y="662" on="0"/>
        <pt x="785" y="653" on="0"/>
        <pt x="784" y="649" on="1"/>
        <pt x="766" y="479" on="1"/>
        <pt x="764" y="466" on="0"/>
        <pt x="760" y="453" on="0"/>
        <pt x="749" y="453" on="1"/>
        <pt x="743" y="453" on="0"/>
        <pt x="734" y="461" on="0"/>
        <pt x="734" y="470" on="1"/>
        <pt x="734" y="484" on="0"/>
        <pt x="739" y="520" on="0"/>
        <pt x="739" y="536" on="1"/>
        <pt x="739" y="568" on="0"/>
        <pt x="725" y="611" on="0"/>
        <pt x="690" y="637" on="0"/>
        <pt x="631" y="647" on="0"/>
        <pt x="586" y="647" on="1"/>
        <pt x="439" y="647" on="1"/>
        <pt x="424" y="647" on="0"/>
        <pt x="406" y="645" on="0"/>
        <pt x="397" y="638" on="0"/>
        <pt x="391" y="623" on="0"/>
        <pt x="388" y="609" on="1"/>
        <pt x="325" y="357" on="1"/>
        <pt x="422" y="357" on="1"/>
        <pt x="455" y="357" on="0"/>
        <pt x="499" y="365" on="0"/>
        <pt x="528" y="386" on="0"/>
        <pt x="547" y="424" on="0"/>
        <pt x="554" y="453" on="1"/>
        <pt x="556" y="462" on="0"/>
        <pt x="562" y="474" on="0"/>
        <pt x="571" y="474" on="1"/>
        <pt x="581" y="474" on="0"/>
        <pt x="587" y="463" on="0"/>
        <pt x="587" y="460" on="1"/>
        <pt x="587" y="459" on="0"/>
        <pt x="584" y="446" on="0"/>
        <pt x="583" y="444" on="1"/>
        <pt x="530" y="230" on="1"/>
        <pt x="528" y="220" on="0"/>
        <pt x="521" y="207" on="0"/>
        <pt x="512" y="207" on="1"/>
        <pt x="501" y="207" on="0"/>
        <pt x="497" y="220" on="0"/>
        <pt x="497" y="221" on="1"/>
        <pt x="497" y="228" on="0"/>
        <pt x="499" y="236" on="1"/>
        <pt x="504" y="256" on="0"/>
        <pt x="506" y="274" on="0"/>
        <pt x="506" y="279" on="1"/>
        <pt x="506" y="290" on="0"/>
        <pt x="502" y="307" on="0"/>
        <pt x="485" y="318" on="0"/>
        <pt x="451" y="324" on="0"/>
        <pt x="420" y="324" on="1"/>
        <pt x="316" y="324" on="1"/>
      </contour>
    </TTGlyph>
    <TTGlyph name="G" xMin="53" yMin="-21" xMax="800" yMax="704">
      <contour>
        <pt x="737" y="439" on="1"/>
        <pt x="734" y="425" on="0"/>
        <pt x="728" y="417" on="0"/>
        <pt x="718" y="417" on="1"/>
        <pt x="715" y="417" on="0"/>
        <pt x="701" y="420" on="0"/>
        <pt x="701" y="430" on="1"/>
        <pt x="701" y="439" on="0"/>
        <pt x="705" y="463" on="0"/>
        <pt x="705" y="474" on="1"/>
        <pt x="705" y="512" on="0"/>
        <pt x="684" y="583" on="0"/>
        <pt x="640" y="638" on="0"/>
        <pt x="573" y="671" on="0"/>
        <pt x="527" y="671" on="1"/>
        <pt x="508" y="671" on="0"/>
        <pt x="450" y="662" on="0"/>
        <pt x="381" y="637" on="0"/>
        <pt x="307" y="589" on="0"/>
        <pt x="271" y="550" on="1"/>
        <pt x="238" y="514" on="0"/>
        <pt x="192" y="427" on="0"/>
        <pt x="162" y="340" on="0"/>
        <pt x="149" y="258" on="0"/>
        <pt x="149" y="227" on="1"/>
        <pt x="149" y="166" on="0"/>
        <pt x="188" y="83" on="0"/>
        <pt x="250" y="33" on="0"/>
        <pt x="327" y="12" on="0"/>
        <pt x="364" y="12" on="1"/>
        <pt x="390" y="12" on="0"/>
        <pt x="449" y="22" on="0"/>
        <pt x="505" y="44" on="0"/>
        <pt x="550" y="79" on="0"/>
        <pt x="562" y="104" on="1"/>
        <pt x="564" y="107" on="0"/>
        <pt x="573" y="142" on="0"/>
        <pt x="584" y="183" on="0"/>
        <pt x="592" y="218" on="0"/>
        <pt x="592" y="222" on="1"/>
        <pt x="592" y="230" on="0"/>
        <pt x="590" y="234" on="1"/>
        <pt x="572" y="241" on="0"/>
        <pt x="523" y="243" on="0"/>
        <pt x="507" y="243" on="1"/>
        <pt x="487" y="243" on="0"/>
        <pt x="470" y="246" on="0"/>
        <pt x="470" y="257" on="1"/>
        <pt x="470" y="271" on="0"/>
        <pt x="486" y="276" on="0"/>
        <pt x="491" y="276" on="1"/>
        <pt x="497" y="276" on="0"/>
        <pt x="516" y="276" on="0"/>
        <pt x="536" y="275" on="0"/>
        <pt x="555" y="274" on="0"/>
        <pt x="561" y="274" on="1"/>
        <pt x="572" y="273" on="0"/>
        <pt x="616" y="273" on="0"/>
        <pt x="635" y="273" on="1"/>
        <pt x="671" y="273" on="0"/>
        <pt x="715" y="274" on="0"/>
        <pt x="739" y="275" on="0"/>
        <pt x="748" y="276" on="0"/>
        <pt x="751" y="276" on="1"/>
        <pt x="757" y="276" on="0"/>
        <pt x="766" y="269" on="0"/>
        <pt x="766" y="261" on="1"/>
        <pt x="766" y="247" on="0"/>
        <pt x="750" y="243" on="0"/>
        <pt x="746" y="243" on="1"/>
        <pt x="723" y="243" on="0"/>
        <pt x="695" y="239" on="0"/>
        <pt x="688" y="230" on="1"/>
        <pt x="683" y="224" on="0"/>
        <pt x="673" y="184" on="0"/>
        <pt x="666" y="154" on="1"/>
        <pt x="663" y="144" on="0"/>
        <pt x="653" y="100" on="0"/>
        <pt x="641" y="53" on="0"/>
        <pt x="631" y="13" on="0"/>
        <pt x="629" y="7" on="1"/>
        <pt x="626" y="1" on="0"/>
        <pt x="618" y="1" on="1"/>
        <pt x="610" y="1" on="0"/>
        <pt x="581" y="37" on="0"/>
        <pt x="572" y="61" on="1"/>
        <pt x="544" y="29" on="0"/>
        <pt x="428" y="-21" on="0"/>
        <pt x="347" y="-21" on="1"/>
        <pt x="283" y="-21" on="0"/>
        <pt x="175" y="20" on="0"/>
        <pt x="97" y="93" on="0"/>
        <pt x="53" y="196" on="0"/>
        <pt x="53" y="259" on="1"/>
        <pt x="53" y="316" on="0"/>
        <pt x="90" y="427" on="0"/>
        <pt x="154" y="526" on="0"/>
        <pt x="243" y="609" on="0"/>
        <pt x="347" y="670" on="0"/>
        <pt x="462" y="704" on="0"/>
        <pt x="520" y="704" on="1"/>
        <pt x="571" y="704" on="0"/>
        <pt x="664" y="663" on="0"/>
        <pt x="699" y="615" on="1"/>
        <pt x="769" y="692" on="1"/>
        <pt x="775" y="699" on="0"/>
        <pt x="782" y="704" on="0"/>
        <pt x="787" y="704" on="1"/>
        <pt x="800" y="704" on="0"/>
        <pt x="800" y="692" on="1"/>
        <pt x="800" y="688" on="0"/>
        <pt x="798" y="680" on="0"/>
        <pt x="797" y="677" on="1"/>
      </contour>
    </TTGlyph>
    <TTGlyph name="Gamma" xMin="50" yMin="0" xMax="756" yMax="680">
      <contour>
        <pt x="255" y="75" on="1"/>
        <pt x="252" y="64" on="0"/>
        <pt x="251" y="54" on="0"/>
        <pt x="251" y="53" on="1"/>
        <pt x="251" y="45" on="0"/>
        <pt x="259" y="37" on="0"/>
        <pt x="279" y="35" on="1"/>
        <pt x="292" y="34" on="0"/>
        <pt x="318" y="33" on="0"/>
        <pt x="331" y="33" on="1"/>
        <pt x="349" y="33" on="0"/>
        <pt x="366" y="30" on="0"/>
        <pt x="366" y="19" on="1"/>
        <pt x="366" y="5" on="0"/>
        <pt x="350" y="0" on="0"/>
        <pt x="345" y="0" on="1"/>
        <pt x="331" y="0" on="0"/>
        <pt x="285" y="2" on="0"/>
        <pt x="271" y="3" on="1"/>
        <pt x="133" y="3" on="1"/>
        <pt x="116" y="3" on="0"/>
        <pt x="82" y="0" on="0"/>
        <pt x="66" y="0" on="1"/>
        <pt x="56" y="0" on="0"/>
        <pt x="50" y="11" on="0"/>
        <pt x="50" y="14" on="1"/>
        <pt x="50" y="28" on="0"/>
        <pt x="67" y="33" on="0"/>
        <pt x="81" y="33" on="1"/>
        <pt x="109" y="33" on="0"/>
        <pt x="140" y="37" on="0"/>
        <pt x="156" y="47" on="0"/>
        <pt x="163" y="65" on="0"/>
        <pt x="166" y="79" on="1"/>
        <pt x="300" y="615" on="1"/>
        <pt x="301" y="619" on="0"/>
        <pt x="303" y="627" on="0"/>
        <pt x="303" y="631" on="1"/>
        <pt x="303" y="638" on="0"/>
        <pt x="296" y="643" on="0"/>
        <pt x="280" y="645" on="1"/>
        <pt x="267" y="647" on="0"/>
        <pt x="244" y="647" on="0"/>
        <pt x="242" y="647" on="1"/>
        <pt x="229" y="647" on="0"/>
        <pt x="212" y="650" on="0"/>
        <pt x="212" y="661" on="1"/>
        <pt x="212" y="675" on="0"/>
        <pt x="229" y="680" on="0"/>
        <pt x="243" y="680" on="1"/>
        <pt x="726" y="680" on="1"/>
        <pt x="740" y="680" on="0"/>
        <pt x="756" y="677" on="0"/>
        <pt x="756" y="666" on="1"/>
        <pt x="756" y="662" on="0"/>
        <pt x="756" y="653" on="0"/>
        <pt x="755" y="649" on="1"/>
        <pt x="737" y="479" on="1"/>
        <pt x="735" y="466" on="0"/>
        <pt x="731" y="453" on="0"/>
        <pt x="720" y="453" on="1"/>
        <pt x="714" y="453" on="0"/>
        <pt x="705" y="461" on="0"/>
        <pt x="705" y="470" on="1"/>
        <pt x="705" y="471" on="0"/>
        <pt x="707" y="487" on="0"/>
        <pt x="708" y="508" on="0"/>
        <pt x="710" y="531" on="0"/>
        <pt x="710" y="539" on="1"/>
        <pt x="710" y="568" on="0"/>
        <pt x="699" y="609" on="0"/>
        <pt x="667" y="635" on="0"/>
        <pt x="613" y="647" on="0"/>
        <pt x="569" y="647" on="1"/>
        <pt x="440" y="647" on="1"/>
        <pt x="425" y="647" on="0"/>
        <pt x="407" y="645" on="0"/>
        <pt x="398" y="638" on="0"/>
        <pt x="392" y="623" on="0"/>
        <pt x="389" y="609" on="1"/>
      </contour>
    </TTGlyph>
    <TTGlyph name="H" xMin="50" yMin="0" xMax="916" yMax="683">
      <contour>
        <pt x="665" y="65" on="1"/>
        <pt x="664" y="61" on="0"/>
        <pt x="662" y="53" on="0"/>
        <pt x="662" y="49" on="1"/>
        <pt x="662" y="42" on="0"/>
        <pt x="669" y="37" on="0"/>
        <pt x="685" y="35" on="1"/>
        <pt x="698" y="33" on="0"/>
        <pt x="721" y="33" on="0"/>
        <pt x="723" y="33" on="1"/>
        <pt x="736" y="33" on="0"/>
        <pt x="753" y="30" on="0"/>
        <pt x="753" y="19" on="1"/>
        <pt x="753" y="5" on="0"/>
        <pt x="738" y="0" on="0"/>
        <pt x="733" y="0" on="1"/>
        <pt x="730" y="0" on="0"/>
        <pt x="716" y="1" on="0"/>
        <pt x="687" y="2" on="0"/>
        <pt x="640" y="3" on="0"/>
        <pt x="604" y="3" on="1"/>
        <pt x="540" y="3" on="1"/>
        <pt x="526" y="2" on="0"/>
        <pt x="492" y="0" on="0"/>
        <pt x="478" y="0" on="1"/>
        <pt x="468" y="0" on="0"/>
        <pt x="462" y="11" on="0"/>
        <pt x="462" y="14" on="1"/>
        <pt x="462" y="28" on="0"/>
        <pt x="478" y="33" on="0"/>
        <pt x="487" y="33" on="1"/>
        <pt x="510" y="33" on="0"/>
        <pt x="540" y="35" on="0"/>
        <pt x="559" y="41" on="0"/>
        <pt x="571" y="53" on="0"/>
        <pt x="574" y="65" on="1"/>
        <pt x="574" y="65" on="0"/>
        <pt x="588" y="117" on="0"/>
        <pt x="608" y="198" on="0"/>
        <pt x="632" y="295" on="0"/>
        <pt x="643" y="339" on="1"/>
        <pt x="321" y="339" on="1"/>
        <pt x="253" y="65" on="1"/>
        <pt x="252" y="61" on="0"/>
        <pt x="250" y="53" on="0"/>
        <pt x="250" y="49" on="1"/>
        <pt x="250" y="42" on="0"/>
        <pt x="257" y="37" on="0"/>
        <pt x="273" y="35" on="1"/>
        <pt x="286" y="33" on="0"/>
        <pt x="309" y="33" on="0"/>
        <pt x="311" y="33" on="1"/>
        <pt x="324" y="33" on="0"/>
        <pt x="341" y="30" on="0"/>
        <pt x="341" y="19" on="1"/>
        <pt x="341" y="5" on="0"/>
        <pt x="326" y="0" on="0"/>
        <pt x="321" y="0" on="1"/>
        <pt x="318" y="0" on="0"/>
        <pt x="304" y="1" on="0"/>
        <pt x="275" y="2" on="0"/>
        <pt x="228" y="3" on="0"/>
        <pt x="192" y="3" on="1"/>
        <pt x="128" y="3" on="1"/>
        <pt x="114" y="2" on="0"/>
        <pt x="80" y="0" on="0"/>
        <pt x="66" y="0" on="1"/>
        <pt x="56" y="0" on="0"/>
        <pt x="50" y="11" on="0"/>
        <pt x="50" y="14" on="1"/>
        <pt x="50" y="28" on="0"/>
        <pt x="67" y="33" on="0"/>
        <pt x="81" y="33" on="1"/>
        <pt x="109" y="33" on="0"/>
        <pt x="140" y="37" on="0"/>
        <pt x="156" y="47" on="0"/>
        <pt x="163" y="65" on="0"/>
        <pt x="166" y="79" on="1"/>
        <pt x="300" y="616" on="1"/>
        <pt x="302" y="626" on="0"/>
        <pt x="304" y="631" on="0"/>
        <pt x="304" y="634" on="1"/>
        <pt x="304" y="646" on="0"/>
        <pt x="267" y="650" on="0"/>
        <pt x="242" y="650" on="1"/>
        <pt x="230" y="650" on="0"/>
        <pt x="213" y="653" on="0"/>
        <pt x="213" y="664" on="1"/>
        <pt x="213" y="678" on="0"/>
        <pt x="230" y="683" on="0"/>
        <pt x="233" y="683" on="1"/>
        <pt x="236" y="683" on="0"/>
        <pt x="250" y="682" on="0"/>
        <pt x="279" y="681" on="0"/>
        <pt x="326" y="680" on="0"/>
        <pt x="362" y="680" on="1"/>
        <pt x="425" y="680" on="1"/>
        <pt x="439" y="681" on="0"/>
        <pt x="473" y="683" on="0"/>
        <pt x="487" y="683" on="1"/>
        <pt x="499" y="683" on="0"/>
        <pt x="504" y="670" on="0"/>
        <pt x="504" y="669" on="1"/>
        <pt x="504" y="655" on="0"/>
        <pt x="487" y="650" on="0"/>
        <pt x="472" y="650" on="1"/>
        <pt x="445" y="650" on="0"/>
        <pt x="414" y="646" on="0"/>
        <pt x="398" y="636" on="0"/>
        <pt x="391" y="619" on="0"/>
        <pt x="388" y="605" on="1"/>
        <pt x="330" y="372" on="1"/>
        <pt x="652" y="372" on="1"/>
        <pt x="712" y="616" on="1"/>
        <pt x="714" y="626" on="0"/>
        <pt x="716" y="631" on="0"/>
        <pt x="716" y="634" on="1"/>
        <pt x="716" y="646" on="0"/>
        <pt x="679" y="650" on="0"/>
        <pt x="654" y="650" on="1"/>
        <pt x="642" y="650" on="0"/>
        <pt x="625" y="653" on="0"/>
        <pt x="625" y="664" on="1"/>
        <pt x="625" y="678" on="0"/>
        <pt x="642" y="683" on="0"/>
        <pt x="645" y="683" on="1"/>
        <pt x="648" y="683" on="0"/>
        <pt x="662" y="682" on="0"/>
        <pt x="691" y="681" on="0"/>
        <pt x="738" y="680" on="0"/>
        <pt x="774" y="680" on="1"/>
        <pt x="837" y="680" on="1"/>
        <pt x="851" y="681" on="0"/>
        <pt x="885" y="683" on="0"/>
        <pt x="899" y="683" on="1"/>
        <pt x="911" y="683" on="0"/>
        <pt x="916" y="670" on="0"/>
        <pt x="916" y="669" on="1"/>
        <pt x="916" y="655" on="0"/>
        <pt x="898" y="650" on="0"/>
        <pt x="881" y="650" on="1"/>
        <pt x="855" y="650" on="0"/>
        <pt x="825" y="646" on="0"/>
        <pt x="810" y="635" on="0"/>
        <pt x="803" y="617" on="0"/>
        <pt x="799" y="602" on="1"/>
      </contour>
    </TTGlyph>
    <TTGlyph name="I" xMin="45" yMin="0" xMax="509" yMax="683">
      <contour>
        <pt x="254" y="68" on="1"/>
        <pt x="252" y="57" on="0"/>
        <pt x="250" y="53" on="0"/>
        <pt x="250" y="49" on="1"/>
        <pt x="250" y="41" on="0"/>
        <pt x="262" y="37" on="0"/>
        <pt x="275" y="35" on="1"/>
        <pt x="288" y="33" on="0"/>
        <pt x="302" y="33" on="0"/>
        <pt x="313" y="33" on="1"/>
        <pt x="329" y="33" on="0"/>
        <pt x="346" y="30" on="0"/>
        <pt x="346" y="19" on="1"/>
        <pt x="346" y="5" on="0"/>
        <pt x="331" y="0" on="0"/>
        <pt x="326" y="0" on="1"/>
        <pt x="315" y="0" on="0"/>
        <pt x="273" y="2" on="0"/>
        <pt x="262" y="3" on="1"/>
        <pt x="123" y="3" on="1"/>
        <pt x="117" y="3" on="0"/>
        <pt x="101" y="2" on="0"/>
        <pt x="83" y="1" on="0"/>
        <pt x="66" y="0" on="0"/>
        <pt x="61" y="0" on="1"/>
        <pt x="52" y="0" on="0"/>
        <pt x="45" y="10" on="0"/>
        <pt x="45" y="14" on="1"/>
        <pt x="45" y="28" on="0"/>
        <pt x="62" y="33" on="0"/>
        <pt x="80" y="33" on="1"/>
        <pt x="108" y="33" on="0"/>
        <pt x="139" y="37" on="0"/>
        <pt x="156" y="48" on="0"/>
        <pt x="163" y="66" on="0"/>
        <pt x="166" y="79" on="1"/>
        <pt x="299" y="609" on="1"/>
        <pt x="302" y="621" on="0"/>
        <pt x="303" y="630" on="0"/>
        <pt x="303" y="632" on="1"/>
        <pt x="303" y="637" on="0"/>
        <pt x="301" y="643" on="0"/>
        <pt x="289" y="648" on="0"/>
        <pt x="264" y="650" on="0"/>
        <pt x="240" y="650" on="1"/>
        <pt x="225" y="650" on="0"/>
        <pt x="208" y="653" on="0"/>
        <pt x="208" y="664" on="1"/>
        <pt x="208" y="678" on="0"/>
        <pt x="225" y="683" on="0"/>
        <pt x="228" y="683" on="1"/>
        <pt x="239" y="683" on="0"/>
        <pt x="281" y="681" on="0"/>
        <pt x="292" y="680" on="1"/>
        <pt x="430" y="680" on="1"/>
        <pt x="442" y="681" on="0"/>
        <pt x="481" y="683" on="0"/>
        <pt x="492" y="683" on="1"/>
        <pt x="504" y="683" on="0"/>
        <pt x="509" y="670" on="0"/>
        <pt x="509" y="669" on="1"/>
        <pt x="509" y="655" on="0"/>
        <pt x="491" y="650" on="0"/>
        <pt x="474" y="650" on="1"/>
        <pt x="446" y="650" on="0"/>
        <pt x="415" y="646" on="0"/>
        <pt x="398" y="635" on="0"/>
        <pt x="391" y="618" on="0"/>
        <pt x="388" y="605" on="1"/>
      </contour>
    </TTGlyph>
    <TTGlyph name="J" xMin="81" yMin="-21" xMax="654" yMax="683">
      <contour>
        <pt x="448" y="143" on="1"/>
        <pt x="439" y="106" on="0"/>
        <pt x="392" y="45" on="0"/>
        <pt x="329" y="2" on="0"/>
        <pt x="256" y="-21" on="0"/>
        <pt x="220" y="-21" on="1"/>
        <pt x="189" y="-21" on="0"/>
        <pt x="137" y="-4" on="0"/>
        <pt x="101" y="26" on="0"/>
        <pt x="81" y="66" on="0"/>
        <pt x="81" y="89" on="1"/>
        <pt x="81" y="111" on="0"/>
        <pt x="95" y="141" on="0"/>
        <pt x="115" y="159" on="0"/>
        <pt x="138" y="167" on="0"/>
        <pt x="147" y="167" on="1"/>
        <pt x="164" y="167" on="0"/>
        <pt x="192" y="145" on="0"/>
        <pt x="192" y="124" on="1"/>
        <pt x="192" y="122" on="0"/>
        <pt x="189" y="102" on="0"/>
        <pt x="175" y="79" on="0"/>
        <pt x="145" y="61" on="0"/>
        <pt x="119" y="61" on="1"/>
        <pt x="127" y="43" on="0"/>
        <pt x="154" y="22" on="0"/>
        <pt x="182" y="10" on="0"/>
        <pt x="209" y="7" on="0"/>
        <pt x="217" y="7" on="1"/>
        <pt x="239" y="7" on="0"/>
        <pt x="284" y="28" on="0"/>
        <pt x="324" y="65" on="0"/>
        <pt x="355" y="116" on="0"/>
        <pt x="362" y="147" on="1"/>
        <pt x="478" y="612" on="1"/>
        <pt x="480" y="622" on="0"/>
        <pt x="482" y="627" on="0"/>
        <pt x="482" y="630" on="1"/>
        <pt x="482" y="639" on="0"/>
        <pt x="469" y="646" on="0"/>
        <pt x="449" y="648" on="1"/>
        <pt x="430" y="650" on="0"/>
        <pt x="398" y="650" on="0"/>
        <pt x="397" y="650" on="1"/>
        <pt x="379" y="650" on="0"/>
        <pt x="362" y="653" on="0"/>
        <pt x="362" y="664" on="1"/>
        <pt x="362" y="678" on="0"/>
        <pt x="378" y="683" on="0"/>
        <pt x="383" y="683" on="1"/>
        <pt x="388" y="683" on="0"/>
        <pt x="408" y="683" on="0"/>
        <pt x="430" y="682" on="0"/>
        <pt x="451" y="681" on="0"/>
        <pt x="455" y="681" on="1"/>
        <pt x="457" y="681" on="0"/>
        <pt x="473" y="680" on="0"/>
        <pt x="493" y="680" on="0"/>
        <pt x="515" y="680" on="0"/>
        <pt x="524" y="680" on="1"/>
        <pt x="560" y="680" on="0"/>
        <pt x="603" y="681" on="0"/>
        <pt x="627" y="682" on="0"/>
        <pt x="637" y="683" on="0"/>
        <pt x="639" y="683" on="1"/>
        <pt x="650" y="683" on="0"/>
        <pt x="654" y="670" on="0"/>
        <pt x="654" y="669" on="1"/>
        <pt x="654" y="655" on="0"/>
        <pt x="638" y="650" on="0"/>
        <pt x="627" y="650" on="1"/>
        <pt x="608" y="650" on="0"/>
        <pt x="585" y="646" on="0"/>
        <pt x="573" y="637" on="0"/>
        <pt x="567" y="620" on="0"/>
        <pt x="564" y="607" on="1"/>
      </contour>
    </TTGlyph>
    <TTGlyph name="K" xMin="49" yMin="0" xMax="933" yMax="683">
      <contour>
        <pt x="696" y="75" on="1"/>
        <pt x="708" y="49" on="0"/>
        <pt x="735" y="34" on="0"/>
        <pt x="764" y="33" on="1"/>
        <pt x="769" y="33" on="0"/>
        <pt x="784" y="30" on="0"/>
        <pt x="784" y="19" on="1"/>
        <pt x="784" y="5" on="0"/>
        <pt x="768" y="0" on="0"/>
        <pt x="765" y="0" on="1"/>
        <pt x="760" y="0" on="0"/>
        <pt x="753" y="1" on="0"/>
        <pt x="734" y="2" on="0"/>
        <pt x="698" y="3" on="0"/>
        <pt x="663" y="3" on="1"/>
        <pt x="605" y="3" on="1"/>
        <pt x="602" y="3" on="0"/>
        <pt x="586" y="2" on="0"/>
        <pt x="568" y="1" on="0"/>
        <pt x="552" y="0" on="0"/>
        <pt x="548" y="0" on="1"/>
        <pt x="536" y="0" on="0"/>
        <pt x="531" y="13" on="0"/>
        <pt x="531" y="14" on="1"/>
        <pt x="531" y="28" on="0"/>
        <pt x="547" y="33" on="0"/>
        <pt x="555" y="33" on="1"/>
        <pt x="559" y="33" on="0"/>
        <pt x="575" y="34" on="0"/>
        <pt x="591" y="40" on="0"/>
        <pt x="603" y="51" on="0"/>
        <pt x="603" y="61" on="1"/>
        <pt x="603" y="64" on="0"/>
        <pt x="602" y="69" on="0"/>
        <pt x="597" y="77" on="1"/>
        <pt x="594" y="84" on="0"/>
        <pt x="581" y="110" on="0"/>
        <pt x="578" y="116" on="1"/>
        <pt x="458" y="363" on="1"/>
        <pt x="297" y="247" on="1"/>
        <pt x="259" y="96" on="1"/>
        <pt x="257" y="84" on="0"/>
        <pt x="249" y="54" on="0"/>
        <pt x="249" y="49" on="1"/>
        <pt x="249" y="41" on="0"/>
        <pt x="257" y="37" on="0"/>
        <pt x="273" y="35" on="1"/>
        <pt x="286" y="33" on="0"/>
        <pt x="306" y="33" on="0"/>
        <pt x="311" y="33" on="1"/>
        <pt x="324" y="33" on="0"/>
        <pt x="340" y="29" on="0"/>
        <pt x="340" y="18" on="1"/>
        <pt x="340" y="4" on="0"/>
        <pt x="324" y="0" on="0"/>
        <pt x="320" y="0" on="1"/>
        <pt x="309" y="0" on="0"/>
        <pt x="268" y="2" on="0"/>
        <pt x="256" y="3" on="1"/>
        <pt x="127" y="3" on="1"/>
        <pt x="113" y="2" on="0"/>
        <pt x="79" y="0" on="0"/>
        <pt x="65" y="0" on="1"/>
        <pt x="55" y="0" on="0"/>
        <pt x="49" y="11" on="0"/>
        <pt x="49" y="14" on="1"/>
        <pt x="49" y="28" on="0"/>
        <pt x="66" y="33" on="0"/>
        <pt x="80" y="33" on="1"/>
        <pt x="108" y="33" on="0"/>
        <pt x="139" y="37" on="0"/>
        <pt x="155" y="47" on="0"/>
        <pt x="162" y="65" on="0"/>
        <pt x="165" y="79" on="1"/>
        <pt x="299" y="616" on="1"/>
        <pt x="301" y="626" on="0"/>
        <pt x="303" y="631" on="0"/>
        <pt x="303" y="634" on="1"/>
        <pt x="303" y="646" on="0"/>
        <pt x="266" y="650" on="0"/>
        <pt x="241" y="650" on="1"/>
        <pt x="228" y="650" on="0"/>
        <pt x="212" y="653" on="0"/>
        <pt x="212" y="664" on="1"/>
        <pt x="212" y="678" on="0"/>
        <pt x="228" y="683" on="0"/>
        <pt x="232" y="683" on="1"/>
        <pt x="235" y="683" on="0"/>
        <pt x="249" y="682" on="0"/>
        <pt x="278" y="681" on="0"/>
        <pt x="325" y="680" on="0"/>
        <pt x="361" y="680" on="1"/>
        <pt x="424" y="680" on="1"/>
        <pt x="438" y="681" on="0"/>
        <pt x="472" y="683" on="0"/>
        <pt x="486" y="683" on="1"/>
        <pt x="498" y="683" on="0"/>
        <pt x="503" y="670" on="0"/>
        <pt x="503" y="669" on="1"/>
        <pt x="503" y="655" on="0"/>
        <pt x="486" y="650" on="0"/>
        <pt x="471" y="650" on="1"/>
        <pt x="444" y="650" on="0"/>
        <pt x="413" y="646" on="0"/>
        <pt x="397" y="636" on="0"/>
        <pt x="390" y="619" on="0"/>
        <pt x="387" y="605" on="1"/>
        <pt x="308" y="288" on="1"/>
        <pt x="716" y="584" on="1"/>
        <pt x="720" y="586" on="0"/>
        <pt x="726" y="592" on="0"/>
        <pt x="728" y="594" on="1"/>
        <pt x="736" y="601" on="1"/>
        <pt x="737" y="601" on="0"/>
        <pt x="744" y="608" on="0"/>
        <pt x="752" y="617" on="0"/>
        <pt x="758" y="629" on="0"/>
        <pt x="758" y="635" on="1"/>
        <pt x="758" y="644" on="0"/>
        <pt x="740" y="649" on="0"/>
        <pt x="734" y="650" on="1"/>
        <pt x="723" y="651" on="0"/>
        <pt x="718" y="663" on="0"/>
        <pt x="718" y="664" on="1"/>
        <pt x="718" y="678" on="0"/>
        <pt x="734" y="683" on="0"/>
        <pt x="739" y="683" on="1"/>
        <pt x="742" y="683" on="0"/>
        <pt x="757" y="682" on="0"/>
        <pt x="774" y="682" on="0"/>
        <pt x="789" y="681" on="0"/>
        <pt x="792" y="681" on="1"/>
        <pt x="799" y="680" on="0"/>
        <pt x="830" y="680" on="0"/>
        <pt x="843" y="680" on="1"/>
        <pt x="883" y="680" on="1"/>
        <pt x="886" y="680" on="0"/>
        <pt x="897" y="681" on="0"/>
        <pt x="909" y="682" on="0"/>
        <pt x="919" y="683" on="0"/>
        <pt x="919" y="683" on="1"/>
        <pt x="931" y="683" on="0"/>
        <pt x="933" y="670" on="1"/>
        <pt x="933" y="656" on="0"/>
        <pt x="917" y="651" on="0"/>
        <pt x="911" y="650" on="1"/>
        <pt x="877" y="647" on="0"/>
        <pt x="816" y="617" on="0"/>
        <pt x="778" y="593" on="1"/>
        <pt x="766" y="585" on="0"/>
        <pt x="716" y="550" on="0"/>
        <pt x="655" y="506" on="0"/>
        <pt x="588" y="458" on="0"/>
        <pt x="558" y="436" on="1"/>
        <pt x="550" y="431" on="0"/>
        <pt x="531" y="417" on="0"/>
        <pt x="531" y="415" on="1"/>
        <pt x="531" y="414" on="0"/>
        <pt x="536" y="404" on="0"/>
        <pt x="537" y="402" on="1"/>
      </contour>
    </TTGlyph>
    <TTGlyph name="L" xMin="50" yMin="0" xMax="680" yMax="683">
      <contour>
        <pt x="252" y="64" on="1"/>
        <pt x="250" y="59" on="0"/>
        <pt x="248" y="48" on="0"/>
        <pt x="248" y="42" on="1"/>
        <pt x="248" y="37" on="0"/>
        <pt x="253" y="35" on="0"/>
        <pt x="260" y="33" on="1"/>
        <pt x="387" y="33" on="1"/>
        <pt x="454" y="33" on="0"/>
        <pt x="541" y="71" on="0"/>
        <pt x="598" y="130" on="0"/>
        <pt x="632" y="203" on="0"/>
        <pt x="645" y="238" on="1"/>
        <pt x="650" y="249" on="0"/>
        <pt x="657" y="260" on="0"/>
        <pt x="665" y="260" on="1"/>
        <pt x="670" y="260" on="0"/>
        <pt x="680" y="253" on="0"/>
        <pt x="680" y="246" on="1"/>
        <pt x="680" y="244" on="0"/>
        <pt x="669" y="212" on="0"/>
        <pt x="652" y="166" on="0"/>
        <pt x="632" y="113" on="0"/>
        <pt x="614" y="65" on="0"/>
        <pt x="600" y="27" on="0"/>
        <pt x="597" y="20" on="1"/>
        <pt x="591" y="6" on="0"/>
        <pt x="582" y="0" on="0"/>
        <pt x="563" y="0" on="1"/>
        <pt x="80" y="0" on="1"/>
        <pt x="67" y="0" on="0"/>
        <pt x="50" y="3" on="0"/>
        <pt x="50" y="14" on="1"/>
        <pt x="50" y="28" on="0"/>
        <pt x="67" y="33" on="0"/>
        <pt x="81" y="33" on="1"/>
        <pt x="109" y="33" on="0"/>
        <pt x="140" y="37" on="0"/>
        <pt x="156" y="47" on="0"/>
        <pt x="163" y="65" on="0"/>
        <pt x="166" y="79" on="1"/>
        <pt x="300" y="616" on="1"/>
        <pt x="302" y="626" on="0"/>
        <pt x="304" y="631" on="0"/>
        <pt x="304" y="634" on="1"/>
        <pt x="304" y="646" on="0"/>
        <pt x="267" y="650" on="0"/>
        <pt x="242" y="650" on="1"/>
        <pt x="230" y="650" on="0"/>
        <pt x="213" y="653" on="0"/>
        <pt x="213" y="664" on="1"/>
        <pt x="213" y="678" on="0"/>
        <pt x="230" y="683" on="0"/>
        <pt x="233" y="683" on="1"/>
        <pt x="236" y="683" on="0"/>
        <pt x="249" y="682" on="0"/>
        <pt x="279" y="681" on="0"/>
        <pt x="329" y="680" on="0"/>
        <pt x="368" y="680" on="1"/>
        <pt x="440" y="680" on="1"/>
        <pt x="456" y="681" on="0"/>
        <pt x="496" y="683" on="0"/>
        <pt x="512" y="683" on="1"/>
        <pt x="523" y="683" on="0"/>
        <pt x="529" y="671" on="0"/>
        <pt x="529" y="669" on="1"/>
        <pt x="529" y="655" on="0"/>
        <pt x="512" y="650" on="0"/>
        <pt x="491" y="650" on="1"/>
        <pt x="457" y="650" on="0"/>
        <pt x="418" y="646" on="0"/>
        <pt x="399" y="635" on="0"/>
        <pt x="391" y="618" on="0"/>
        <pt x="388" y="605" on="1"/>
      </contour>
    </TTGlyph>
    <TTGlyph name="Lambda" xMin="39" yMin="0" xMax="705" yMax="714">
      <contour>
        <pt x="516" y="693" on="1"/>
        <pt x="523" y="704" on="0"/>
        <pt x="535" y="714" on="0"/>
        <pt x="546" y="714" on="1"/>
        <pt x="560" y="714" on="0"/>
        <pt x="565" y="700" on="0"/>
        <pt x="567" y="685" on="1"/>
        <pt x="630" y="65" on="1"/>
        <pt x="631" y="55" on="0"/>
        <pt x="634" y="43" on="0"/>
        <pt x="643" y="36" on="0"/>
        <pt x="662" y="33" on="0"/>
        <pt x="680" y="33" on="1"/>
        <pt x="689" y="33" on="0"/>
        <pt x="705" y="30" on="0"/>
        <pt x="705" y="19" on="1"/>
        <pt x="705" y="8" on="0"/>
        <pt x="693" y="0" on="0"/>
        <pt x="686" y="0" on="1"/>
        <pt x="682" y="0" on="0"/>
        <pt x="673" y="1" on="0"/>
        <pt x="651" y="2" on="0"/>
        <pt x="611" y="3" on="0"/>
        <pt x="576" y="3" on="1"/>
        <pt x="514" y="3" on="1"/>
        <pt x="511" y="3" on="0"/>
        <pt x="495" y="2" on="0"/>
        <pt x="477" y="1" on="0"/>
        <pt x="460" y="0" on="0"/>
        <pt x="457" y="0" on="1"/>
        <pt x="441" y="0" on="0"/>
        <pt x="441" y="14" on="1"/>
        <pt x="441" y="28" on="0"/>
        <pt x="456" y="33" on="0"/>
        <pt x="464" y="33" on="1"/>
        <pt x="490" y="33" on="0"/>
        <pt x="519" y="41" on="0"/>
        <pt x="533" y="53" on="0"/>
        <pt x="535" y="69" on="0"/>
        <pt x="534" y="78" on="1"/>
        <pt x="483" y="580" on="1"/>
        <pt x="199" y="107" on="1"/>
        <pt x="195" y="100" on="0"/>
        <pt x="192" y="93" on="1"/>
        <pt x="190" y="89" on="0"/>
        <pt x="189" y="88" on="1"/>
        <pt x="187" y="83" on="0"/>
        <pt x="183" y="71" on="0"/>
        <pt x="183" y="66" on="1"/>
        <pt x="183" y="49" on="0"/>
        <pt x="209" y="35" on="0"/>
        <pt x="226" y="33" on="1"/>
        <pt x="230" y="33" on="0"/>
        <pt x="244" y="29" on="0"/>
        <pt x="244" y="19" on="1"/>
        <pt x="244" y="5" on="0"/>
        <pt x="228" y="0" on="0"/>
        <pt x="225" y="0" on="1"/>
        <pt x="220" y="0" on="0"/>
        <pt x="179" y="3" on="0"/>
        <pt x="131" y="3" on="1"/>
        <pt x="103" y="3" on="0"/>
        <pt x="76" y="2" on="0"/>
        <pt x="63" y="1" on="0"/>
        <pt x="58" y="0" on="0"/>
        <pt x="53" y="0" on="1"/>
        <pt x="49" y="0" on="0"/>
        <pt x="39" y="7" on="0"/>
        <pt x="39" y="15" on="1"/>
        <pt x="39" y="17" on="0"/>
        <pt x="43" y="32" on="0"/>
        <pt x="55" y="33" on="1"/>
        <pt x="83" y="35" on="0"/>
        <pt x="128" y="57" on="0"/>
        <pt x="154" y="94" on="1"/>
        <pt x="159" y="100" on="0"/>
        <pt x="170" y="115" on="0"/>
        <pt x="172" y="119" on="1"/>
      </contour>
    </TTGlyph>
    <TTGlyph name="M" xMin="55" yMin="0" xMax="1088" yMax="683">
      <contour>
        <pt x="837" y="65" on="1"/>
        <pt x="836" y="61" on="0"/>
        <pt x="834" y="53" on="0"/>
        <pt x="834" y="49" on="1"/>
        <pt x="834" y="42" on="0"/>
        <pt x="841" y="37" on="0"/>
        <pt x="857" y="35" on="1"/>
        <pt x="870" y="33" on="0"/>
        <pt x="893" y="33" on="0"/>
        <pt x="895" y="33" on="1"/>
        <pt x="908" y="33" on="0"/>
        <pt x="925" y="30" on="0"/>
        <pt x="925" y="19" on="1"/>
        <pt x="925" y="5" on="0"/>
        <pt x="910" y="0" on="0"/>
        <pt x="905" y="0" on="1"/>
        <pt x="902" y="0" on="0"/>
        <pt x="889" y="1" on="0"/>
        <pt x="861" y="2" on="0"/>
        <pt x="816" y="3" on="0"/>
        <pt x="781" y="3" on="1"/>
        <pt x="717" y="3" on="1"/>
        <pt x="706" y="2" on="0"/>
        <pt x="670" y="0" on="0"/>
        <pt x="660" y="0" on="1"/>
        <pt x="650" y="0" on="0"/>
        <pt x="644" y="11" on="0"/>
        <pt x="644" y="14" on="1"/>
        <pt x="644" y="28" on="0"/>
        <pt x="661" y="33" on="0"/>
        <pt x="675" y="33" on="1"/>
        <pt x="703" y="33" on="0"/>
        <pt x="734" y="37" on="0"/>
        <pt x="750" y="47" on="0"/>
        <pt x="757" y="65" on="0"/>
        <pt x="760" y="79" on="1"/>
        <pt x="901" y="645" on="1"/>
        <pt x="900" y="646" on="1"/>
        <pt x="489" y="20" on="1"/>
        <pt x="484" y="13" on="0"/>
        <pt x="473" y="0" on="0"/>
        <pt x="462" y="0" on="1"/>
        <pt x="451" y="0" on="0"/>
        <pt x="446" y="15" on="0"/>
        <pt x="444" y="27" on="1"/>
        <pt x="347" y="638" on="1"/>
        <pt x="346" y="638" on="1"/>
        <pt x="210" y="95" on="1"/>
        <pt x="210" y="94" on="0"/>
        <pt x="207" y="79" on="0"/>
        <pt x="207" y="75" on="1"/>
        <pt x="207" y="49" on="0"/>
        <pt x="246" y="34" on="0"/>
        <pt x="273" y="33" on="1"/>
        <pt x="278" y="33" on="0"/>
        <pt x="291" y="28" on="0"/>
        <pt x="291" y="19" on="1"/>
        <pt x="291" y="5" on="0"/>
        <pt x="275" y="0" on="0"/>
        <pt x="272" y="0" on="1"/>
        <pt x="269" y="0" on="0"/>
        <pt x="258" y="1" on="0"/>
        <pt x="236" y="2" on="0"/>
        <pt x="199" y="3" on="0"/>
        <pt x="169" y="3" on="1"/>
        <pt x="115" y="3" on="0"/>
        <pt x="73" y="0" on="0"/>
        <pt x="70" y="0" on="1"/>
        <pt x="62" y="0" on="0"/>
        <pt x="55" y="9" on="0"/>
        <pt x="55" y="14" on="1"/>
        <pt x="55" y="28" on="0"/>
        <pt x="68" y="33" on="0"/>
        <pt x="73" y="33" on="1"/>
        <pt x="123" y="35" on="0"/>
        <pt x="169" y="70" on="0"/>
        <pt x="178" y="107" on="1"/>
        <pt x="305" y="616" on="1"/>
        <pt x="307" y="626" on="0"/>
        <pt x="309" y="631" on="0"/>
        <pt x="309" y="634" on="1"/>
        <pt x="309" y="646" on="0"/>
        <pt x="272" y="650" on="0"/>
        <pt x="247" y="650" on="1"/>
        <pt x="235" y="650" on="0"/>
        <pt x="218" y="653" on="0"/>
        <pt x="218" y="664" on="1"/>
        <pt x="218" y="678" on="0"/>
        <pt x="235" y="683" on="0"/>
        <pt x="249" y="683" on="1"/>
        <pt x="384" y="683" on="1"/>
        <pt x="395" y="683" on="0"/>
        <pt x="408" y="682" on="0"/>
        <pt x="415" y="676" on="0"/>
        <pt x="418" y="665" on="0"/>
        <pt x="419" y="656" on="1"/>
        <pt x="508" y="92" on="1"/>
        <pt x="885" y="663" on="1"/>
        <pt x="890" y="671" on="0"/>
        <pt x="897" y="679" on="0"/>
        <pt x="906" y="682" on="0"/>
        <pt x="918" y="683" on="0"/>
        <pt x="928" y="683" on="1"/>
        <pt x="1057" y="683" on="1"/>
        <pt x="1071" y="683" on="0"/>
        <pt x="1088" y="680" on="0"/>
        <pt x="1088" y="669" on="1"/>
        <pt x="1088" y="655" on="0"/>
        <pt x="1070" y="650" on="0"/>
        <pt x="1053" y="650" on="1"/>
        <pt x="1027" y="650" on="0"/>
        <pt x="997" y="646" on="0"/>
        <pt x="982" y="635" on="0"/>
        <pt x="975" y="617" on="0"/>
        <pt x="971" y="602" on="1"/>
      </contour>
    </TTGlyph>
    <TTGlyph name="N" xMin="50" yMin="0" xMax="916" yMax="683">
      <contour>
        <pt x="653" y="21" on="1"/>
        <pt x="650" y="8" on="0"/>
        <pt x="645" y="0" on="0"/>
        <pt x="634" y="0" on="1"/>
        <pt x="626" y="0" on="0"/>
        <pt x="620" y="6" on="0"/>
        <pt x="615" y="18" on="1"/>
        <pt x="337" y="617" on="1"/>
        <pt x="336" y="617" on="1"/>
        <pt x="205" y="95" on="1"/>
        <pt x="205" y="94" on="0"/>
        <pt x="202" y="79" on="0"/>
        <pt x="202" y="75" on="1"/>
        <pt x="202" y="49" on="0"/>
        <pt x="241" y="34" on="0"/>
        <pt x="268" y="33" on="1"/>
        <pt x="273" y="33" on="0"/>
        <pt x="286" y="28" on="0"/>
        <pt x="286" y="19" on="1"/>
        <pt x="286" y="5" on="0"/>
        <pt x="270" y="0" on="0"/>
        <pt x="267" y="0" on="1"/>
        <pt x="264" y="0" on="0"/>
        <pt x="253" y="1" on="0"/>
        <pt x="231" y="2" on="0"/>
        <pt x="194" y="3" on="0"/>
        <pt x="164" y="3" on="1"/>
        <pt x="110" y="3" on="0"/>
        <pt x="68" y="0" on="0"/>
        <pt x="65" y="0" on="1"/>
        <pt x="57" y="0" on="0"/>
        <pt x="50" y="9" on="0"/>
        <pt x="50" y="14" on="1"/>
        <pt x="50" y="28" on="0"/>
        <pt x="63" y="33" on="0"/>
        <pt x="68" y="33" on="1"/>
        <pt x="118" y="35" on="0"/>
        <pt x="164" y="70" on="0"/>
        <pt x="173" y="107" on="1"/>
        <pt x="307" y="644" on="1"/>
        <pt x="290" y="649" on="0"/>
        <pt x="252" y="650" on="0"/>
        <pt x="246" y="650" on="1"/>
        <pt x="230" y="650" on="0"/>
        <pt x="213" y="653" on="0"/>
        <pt x="213" y="664" on="1"/>
        <pt x="213" y="678" on="0"/>
        <pt x="230" y="683" on="0"/>
        <pt x="244" y="683" on="1"/>
        <pt x="374" y="683" on="1"/>
        <pt x="392" y="683" on="0"/>
        <pt x="402" y="679" on="0"/>
        <pt x="408" y="665" on="1"/>
        <pt x="649" y="143" on="1"/>
        <pt x="759" y="581" on="1"/>
        <pt x="762" y="593" on="0"/>
        <pt x="763" y="603" on="0"/>
        <pt x="763" y="607" on="1"/>
        <pt x="763" y="612" on="0"/>
        <pt x="761" y="626" on="0"/>
        <pt x="750" y="640" on="0"/>
        <pt x="725" y="649" on="0"/>
        <pt x="702" y="650" on="1"/>
        <pt x="695" y="650" on="0"/>
        <pt x="680" y="654" on="0"/>
        <pt x="680" y="664" on="1"/>
        <pt x="680" y="670" on="0"/>
        <pt x="687" y="683" on="0"/>
        <pt x="699" y="683" on="1"/>
        <pt x="702" y="683" on="0"/>
        <pt x="713" y="682" on="0"/>
        <pt x="734" y="681" on="0"/>
        <pt x="771" y="680" on="0"/>
        <pt x="801" y="680" on="1"/>
        <pt x="829" y="680" on="0"/>
        <pt x="865" y="681" on="0"/>
        <pt x="887" y="682" on="0"/>
        <pt x="898" y="683" on="0"/>
        <pt x="901" y="683" on="1"/>
        <pt x="909" y="683" on="0"/>
        <pt x="916" y="674" on="0"/>
        <pt x="916" y="669" on="1"/>
        <pt x="916" y="659" on="0"/>
        <pt x="906" y="650" on="0"/>
        <pt x="898" y="650" on="1"/>
        <pt x="844" y="648" on="0"/>
        <pt x="801" y="611" on="0"/>
        <pt x="792" y="574" on="1"/>
      </contour>
    </TTGlyph>
    <TTGlyph name="O" xMin="51" yMin="-21" xMax="781" yMax="704">
      <contour>
        <pt x="781" y="430" on="1"/>
        <pt x="781" y="371" on="0"/>
        <pt x="745" y="258" on="0"/>
        <pt x="681" y="158" on="0"/>
        <pt x="595" y="74" on="0"/>
        <pt x="494" y="13" on="0"/>
        <pt x="383" y="-21" on="0"/>
        <pt x="327" y="-21" on="1"/>
        <pt x="264" y="-21" on="0"/>
        <pt x="162" y="20" on="0"/>
        <pt x="90" y="93" on="0"/>
        <pt x="51" y="192" on="0"/>
        <pt x="51" y="250" on="1"/>
        <pt x="51" y="306" on="0"/>
        <pt x="86" y="416" on="0"/>
        <pt x="149" y="517" on="0"/>
        <pt x="235" y="604" on="0"/>
        <pt x="336" y="668" on="0"/>
        <pt x="449" y="704" on="0"/>
        <pt x="507" y="704" on="1"/>
        <pt x="567" y="704" on="0"/>
        <pt x="668" y="665" on="0"/>
        <pt x="740" y="593" on="0"/>
        <pt x="781" y="492" on="0"/>
      </contour>
      <contour>
        <pt x="335" y="12" on="1"/>
        <pt x="399" y="12" on="0"/>
        <pt x="520" y="80" on="0"/>
        <pt x="564" y="132" on="1"/>
        <pt x="603" y="178" on="0"/>
        <pt x="651" y="278" on="0"/>
        <pt x="678" y="369" on="0"/>
        <pt x="688" y="444" on="0"/>
        <pt x="688" y="465" on="1"/>
        <pt x="688" y="517" on="0"/>
        <pt x="657" y="595" on="0"/>
        <pt x="606" y="647" on="0"/>
        <pt x="538" y="673" on="0"/>
        <pt x="500" y="673" on="1"/>
        <pt x="460" y="673" on="0"/>
        <pt x="386" y="648" on="0"/>
        <pt x="325" y="612" on="0"/>
        <pt x="279" y="570" on="0"/>
        <pt x="265" y="553" on="1"/>
        <pt x="222" y="500" on="0"/>
        <pt x="175" y="389" on="0"/>
        <pt x="154" y="297" on="0"/>
        <pt x="150" y="234" on="0"/>
        <pt x="150" y="228" on="1"/>
        <pt x="150" y="174" on="0"/>
        <pt x="179" y="93" on="0"/>
        <pt x="229" y="39" on="0"/>
        <pt x="297" y="12" on="0"/>
      </contour>
    </TTGlyph>
    <TTGlyph name="P" xMin="51" yMin="0" xMax="791" yMax="683">
      <contour>
        <pt x="254" y="65" on="1"/>
        <pt x="253" y="61" on="0"/>
        <pt x="251" y="53" on="0"/>
        <pt x="251" y="49" on="1"/>
        <pt x="251" y="42" on="0"/>
        <pt x="258" y="37" on="0"/>
        <pt x="274" y="35" on="1"/>
        <pt x="287" y="33" on="0"/>
        <pt x="310" y="33" on="0"/>
        <pt x="312" y="33" on="1"/>
        <pt x="325" y="33" on="0"/>
        <pt x="342" y="30" on="0"/>
        <pt x="342" y="19" on="1"/>
        <pt x="342" y="5" on="0"/>
        <pt x="327" y="0" on="0"/>
        <pt x="322" y="0" on="1"/>
        <pt x="319" y="0" on="0"/>
        <pt x="305" y="1" on="0"/>
        <pt x="276" y="2" on="0"/>
        <pt x="229" y="3" on="0"/>
        <pt x="193" y="3" on="1"/>
        <pt x="129" y="3" on="1"/>
        <pt x="115" y="2" on="0"/>
        <pt x="81" y="0" on="0"/>
        <pt x="67" y="0" on="1"/>
        <pt x="57" y="0" on="0"/>
        <pt x="51" y="11" on="0"/>
        <pt x="51" y="14" on="1"/>
        <pt x="51" y="28" on="0"/>
        <pt x="68" y="33" on="0"/>
        <pt x="85" y="33" on="1"/>
        <pt x="112" y="33" on="0"/>
        <pt x="141" y="37" on="0"/>
        <pt x="157" y="47" on="0"/>
        <pt x="164" y="65" on="0"/>
        <pt x="167" y="79" on="1"/>
        <pt x="301" y="616" on="1"/>
        <pt x="303" y="626" on="0"/>
        <pt x="305" y="631" on="0"/>
        <pt x="305" y="634" on="1"/>
        <pt x="305" y="646" on="0"/>
        <pt x="268" y="650" on="0"/>
        <pt x="243" y="650" on="1"/>
        <pt x="231" y="650" on="0"/>
        <pt x="214" y="653" on="0"/>
        <pt x="214" y="664" on="1"/>
        <pt x="214" y="678" on="0"/>
        <pt x="231" y="683" on="0"/>
        <pt x="245" y="683" on="1"/>
        <pt x="582" y="683" on="1"/>
        <pt x="630" y="683" on="0"/>
        <pt x="708" y="659" on="0"/>
        <pt x="762" y="618" on="0"/>
        <pt x="791" y="562" on="0"/>
        <pt x="791" y="530" on="1"/>
        <pt x="791" y="486" on="0"/>
        <pt x="740" y="407" on="0"/>
        <pt x="656" y="347" on="0"/>
        <pt x="551" y="312" on="0"/>
        <pt x="497" y="312" on="1"/>
        <pt x="315" y="312" on="1"/>
      </contour>
      <contour>
        <pt x="320" y="342" on="1"/>
        <pt x="472" y="342" on="1"/>
        <pt x="509" y="342" on="0"/>
        <pt x="564" y="354" on="0"/>
        <pt x="603" y="371" on="0"/>
        <pt x="627" y="389" on="0"/>
        <pt x="633" y="395" on="1"/>
        <pt x="654" y="416" on="0"/>
        <pt x="678" y="466" on="0"/>
        <pt x="691" y="512" on="0"/>
        <pt x="694" y="547" on="0"/>
        <pt x="694" y="552" on="1"/>
        <pt x="694" y="580" on="0"/>
        <pt x="672" y="617" on="0"/>
        <pt x="633" y="640" on="0"/>
        <pt x="580" y="650" on="0"/>
        <pt x="549" y="650" on="1"/>
        <pt x="439" y="650" on="1"/>
        <pt x="424" y="650" on="0"/>
        <pt x="406" y="648" on="0"/>
        <pt x="397" y="641" on="0"/>
        <pt x="391" y="626" on="0"/>
        <pt x="388" y="613" on="1"/>
      </contour>
    </TTGlyph>
    <TTGlyph name="Phi" xMin="25" yMin="0" xMax="681" yMax="683">
      <contour>
        <pt x="446" y="546" on="1"/>
        <pt x="496" y="543" on="0"/>
        <pt x="582" y="514" on="0"/>
        <pt x="645" y="469" on="0"/>
        <pt x="681" y="409" on="0"/>
        <pt x="681" y="374" on="1"/>
        <pt x="681" y="329" on="0"/>
        <pt x="625" y="248" on="0"/>
        <pt x="532" y="183" on="0"/>
        <pt x="410" y="142" on="0"/>
        <pt x="344" y="137" on="1"/>
        <pt x="341" y="126" on="0"/>
        <pt x="340" y="119" on="0"/>
        <pt x="338" y="114" on="0"/>
        <pt x="336" y="107" on="0"/>
        <pt x="333" y="96" on="1"/>
        <pt x="331" y="85" on="0"/>
        <pt x="324" y="58" on="0"/>
        <pt x="324" y="53" on="1"/>
        <pt x="324" y="44" on="0"/>
        <pt x="334" y="37" on="0"/>
        <pt x="354" y="35" on="1"/>
        <pt x="371" y="33" on="0"/>
        <pt x="390" y="33" on="0"/>
        <pt x="406" y="33" on="1"/>
        <pt x="422" y="33" on="0"/>
        <pt x="439" y="30" on="0"/>
        <pt x="439" y="19" on="1"/>
        <pt x="439" y="5" on="0"/>
        <pt x="423" y="0" on="0"/>
        <pt x="418" y="0" on="1"/>
        <pt x="390" y="0" on="0"/>
        <pt x="333" y="3" on="0"/>
        <pt x="304" y="3" on="1"/>
        <pt x="226" y="3" on="1"/>
        <pt x="200" y="3" on="0"/>
        <pt x="148" y="0" on="0"/>
        <pt x="122" y="0" on="1"/>
        <pt x="110" y="0" on="0"/>
        <pt x="105" y="12" on="0"/>
        <pt x="105" y="14" on="1"/>
        <pt x="105" y="28" on="0"/>
        <pt x="122" y="33" on="0"/>
        <pt x="137" y="33" on="1"/>
        <pt x="173" y="33" on="0"/>
        <pt x="214" y="37" on="0"/>
        <pt x="235" y="48" on="0"/>
        <pt x="244" y="68" on="0"/>
        <pt x="248" y="85" on="1"/>
        <pt x="261" y="137" on="1"/>
        <pt x="209" y="140" on="0"/>
        <pt x="122" y="170" on="0"/>
        <pt x="60" y="216" on="0"/>
        <pt x="25" y="276" on="0"/>
        <pt x="25" y="309" on="1"/>
        <pt x="25" y="353" on="0"/>
        <pt x="81" y="435" on="0"/>
        <pt x="174" y="499" on="0"/>
        <pt x="297" y="542" on="0"/>
        <pt x="363" y="546" on="1"/>
        <pt x="366" y="557" on="0"/>
        <pt x="373" y="584" on="0"/>
        <pt x="379" y="609" on="0"/>
        <pt x="383" y="628" on="0"/>
        <pt x="383" y="631" on="1"/>
        <pt x="383" y="639" on="0"/>
        <pt x="372" y="646" on="0"/>
        <pt x="356" y="648" on="1"/>
        <pt x="347" y="649" on="0"/>
        <pt x="335" y="650" on="0"/>
        <pt x="324" y="650" on="0"/>
        <pt x="312" y="650" on="0"/>
        <pt x="304" y="650" on="1"/>
        <pt x="285" y="650" on="0"/>
        <pt x="268" y="653" on="0"/>
        <pt x="268" y="664" on="1"/>
        <pt x="268" y="678" on="0"/>
        <pt x="284" y="683" on="0"/>
        <pt x="289" y="683" on="1"/>
        <pt x="316" y="683" on="0"/>
        <pt x="373" y="680" on="0"/>
        <pt x="402" y="680" on="1"/>
        <pt x="511" y="680" on="1"/>
        <pt x="529" y="680" on="0"/>
        <pt x="567" y="683" on="0"/>
        <pt x="585" y="683" on="1"/>
        <pt x="597" y="683" on="0"/>
        <pt x="602" y="670" on="0"/>
        <pt x="602" y="669" on="1"/>
        <pt x="602" y="655" on="0"/>
        <pt x="585" y="650" on="0"/>
        <pt x="565" y="650" on="1"/>
        <pt x="530" y="650" on="0"/>
        <pt x="491" y="646" on="0"/>
        <pt x="471" y="635" on="0"/>
        <pt x="463" y="615" on="0"/>
        <pt x="459" y="599" on="1"/>
      </contour>
      <contour>
        <pt x="356" y="518" on="1"/>
        <pt x="302" y="513" on="0"/>
        <pt x="224" y="480" on="0"/>
        <pt x="172" y="436" on="0"/>
        <pt x="141" y="386" on="0"/>
        <pt x="126" y="339" on="0"/>
        <pt x="121" y="301" on="0"/>
        <pt x="121" y="292" on="1"/>
        <pt x="121" y="260" on="0"/>
        <pt x="145" y="214" on="0"/>
        <pt x="185" y="184" on="0"/>
        <pt x="238" y="168" on="0"/>
        <pt x="267" y="165" on="1"/>
      </contour>
      <contour>
        <pt x="351" y="165" on="1"/>
        <pt x="433" y="173" on="0"/>
        <pt x="527" y="235" on="0"/>
        <pt x="574" y="310" on="0"/>
        <pt x="586" y="378" on="0"/>
        <pt x="586" y="392" on="1"/>
        <pt x="586" y="423" on="0"/>
        <pt x="563" y="468" on="0"/>
        <pt x="524" y="498" on="0"/>
        <pt x="470" y="515" on="0"/>
        <pt x="439" y="518" on="1"/>
      </contour>
    </TTGlyph>
    <TTGlyph name="Pi" xMin="50" yMin="0" xMax="915" yMax="680">
      <contour>
        <pt x="665" y="65" on="1"/>
        <pt x="664" y="61" on="0"/>
        <pt x="662" y="53" on="0"/>
        <pt x="662" y="49" on="1"/>
        <pt x="662" y="42" on="0"/>
        <pt x="669" y="37" on="0"/>
        <pt x="685" y="35" on="1"/>
        <pt x="698" y="33" on="0"/>
        <pt x="721" y="33" on="0"/>
        <pt x="723" y="33" on="1"/>
        <pt x="736" y="33" on="0"/>
        <pt x="753" y="30" on="0"/>
        <pt x="753" y="19" on="1"/>
        <pt x="753" y="5" on="0"/>
        <pt x="738" y="0" on="0"/>
        <pt x="733" y="0" on="1"/>
        <pt x="730" y="0" on="0"/>
        <pt x="716" y="1" on="0"/>
        <pt x="687" y="2" on="0"/>
        <pt x="640" y="3" on="0"/>
        <pt x="604" y="3" on="1"/>
        <pt x="540" y="3" on="1"/>
        <pt x="526" y="2" on="0"/>
        <pt x="492" y="0" on="0"/>
        <pt x="478" y="0" on="1"/>
        <pt x="468" y="0" on="0"/>
        <pt x="462" y="11" on="0"/>
        <pt x="462" y="14" on="1"/>
        <pt x="462" y="28" on="0"/>
        <pt x="479" y="33" on="0"/>
        <pt x="493" y="33" on="1"/>
        <pt x="521" y="33" on="0"/>
        <pt x="552" y="37" on="0"/>
        <pt x="568" y="47" on="0"/>
        <pt x="575" y="65" on="0"/>
        <pt x="578" y="79" on="1"/>
        <pt x="720" y="647" on="1"/>
        <pt x="398" y="647" on="1"/>
        <pt x="253" y="65" on="1"/>
        <pt x="252" y="61" on="0"/>
        <pt x="250" y="53" on="0"/>
        <pt x="250" y="49" on="1"/>
        <pt x="250" y="42" on="0"/>
        <pt x="257" y="37" on="0"/>
        <pt x="273" y="35" on="1"/>
        <pt x="286" y="33" on="0"/>
        <pt x="309" y="33" on="0"/>
        <pt x="311" y="33" on="1"/>
        <pt x="324" y="33" on="0"/>
        <pt x="341" y="30" on="0"/>
        <pt x="341" y="19" on="1"/>
        <pt x="341" y="5" on="0"/>
        <pt x="326" y="0" on="0"/>
        <pt x="321" y="0" on="1"/>
        <pt x="318" y="0" on="0"/>
        <pt x="304" y="1" on="0"/>
        <pt x="275" y="2" on="0"/>
        <pt x="228" y="3" on="0"/>
        <pt x="192" y="3" on="1"/>
        <pt x="128" y="3" on="1"/>
        <pt x="114" y="2" on="0"/>
        <pt x="80" y="0" on="0"/>
        <pt x="66" y="0" on="1"/>
        <pt x="56" y="0" on="0"/>
        <pt x="50" y="11" on="0"/>
        <pt x="50" y="14" on="1"/>
        <pt x="50" y="28" on="0"/>
        <pt x="67" y="33" on="0"/>
        <pt x="81" y="33" on="1"/>
        <pt x="109" y="33" on="0"/>
        <pt x="140" y="37" on="0"/>
        <pt x="156" y="47" on="0"/>
        <pt x="163" y="65" on="0"/>
        <pt x="166" y="79" on="1"/>
        <pt x="300" y="615" on="1"/>
        <pt x="301" y="619" on="0"/>
        <pt x="303" y="627" on="0"/>
        <pt x="303" y="631" on="1"/>
        <pt x="303" y="638" on="0"/>
        <pt x="296" y="643" on="0"/>
        <pt x="280" y="645" on="1"/>
        <pt x="267" y="647" on="0"/>
        <pt x="244" y="647" on="0"/>
        <pt x="242" y="647" on="1"/>
        <pt x="229" y="647" on="0"/>
        <pt x="212" y="650" on="0"/>
        <pt x="212" y="661" on="1"/>
        <pt x="212" y="675" on="0"/>
        <pt x="229" y="680" on="0"/>
        <pt x="243" y="680" on="1"/>
        <pt x="885" y="680" on="1"/>
        <pt x="898" y="680" on="0"/>
        <pt x="915" y="677" on="0"/>
        <pt x="915" y="666" on="1"/>
        <pt x="915" y="652" on="0"/>
        <pt x="898" y="647" on="0"/>
        <pt x="881" y="647" on="1"/>
        <pt x="854" y="647" on="0"/>
        <pt x="825" y="643" on="0"/>
        <pt x="809" y="633" on="0"/>
        <pt x="802" y="615" on="0"/>
        <pt x="799" y="601" on="1"/>
      </contour>
    </TTGlyph>
    <TTGlyph name="Psi" xMin="29" yMin="0" xMax="735" yMax="683">
      <contour>
        <pt x="331" y="168" on="1"/>
        <pt x="375" y="177" on="0"/>
        <pt x="444" y="221" on="0"/>
        <pt x="495" y="284" on="0"/>
        <pt x="530" y="362" on="0"/>
        <pt x="542" y="405" on="1"/>
        <pt x="545" y="416" on="0"/>
        <pt x="553" y="445" on="0"/>
        <pt x="566" y="477" on="0"/>
        <pt x="585" y="508" on="0"/>
        <pt x="597" y="520" on="1"/>
        <pt x="609" y="533" on="0"/>
        <pt x="630" y="547" on="0"/>
        <pt x="648" y="554" on="0"/>
        <pt x="667" y="555" on="0"/>
        <pt x="678" y="555" on="1"/>
        <pt x="705" y="555" on="1"/>
        <pt x="718" y="555" on="0"/>
        <pt x="735" y="552" on="0"/>
        <pt x="735" y="541" on="1"/>
        <pt x="735" y="532" on="0"/>
        <pt x="723" y="528" on="0"/>
        <pt x="717" y="527" on="1"/>
        <pt x="695" y="524" on="0"/>
        <pt x="663" y="495" on="0"/>
        <pt x="642" y="458" on="0"/>
        <pt x="630" y="422" on="0"/>
        <pt x="627" y="412" on="1"/>
        <pt x="623" y="397" on="0"/>
        <pt x="608" y="352" on="0"/>
        <pt x="583" y="299" on="0"/>
        <pt x="546" y="244" on="0"/>
        <pt x="518" y="219" on="1"/>
        <pt x="472" y="177" on="0"/>
        <pt x="374" y="142" on="0"/>
        <pt x="323" y="137" on="1"/>
        <pt x="320" y="126" on="0"/>
        <pt x="319" y="119" on="0"/>
        <pt x="317" y="114" on="0"/>
        <pt x="315" y="107" on="0"/>
        <pt x="312" y="96" on="1"/>
        <pt x="310" y="85" on="0"/>
        <pt x="303" y="58" on="0"/>
        <pt x="303" y="53" on="1"/>
        <pt x="303" y="44" on="0"/>
        <pt x="313" y="37" on="0"/>
        <pt x="333" y="35" on="1"/>
        <pt x="350" y="33" on="0"/>
        <pt x="369" y="33" on="0"/>
        <pt x="385" y="33" on="1"/>
        <pt x="401" y="33" on="0"/>
        <pt x="418" y="30" on="0"/>
        <pt x="418" y="19" on="1"/>
        <pt x="418" y="5" on="0"/>
        <pt x="402" y="0" on="0"/>
        <pt x="397" y="0" on="1"/>
        <pt x="369" y="0" on="0"/>
        <pt x="312" y="3" on="0"/>
        <pt x="283" y="3" on="1"/>
        <pt x="205" y="3" on="1"/>
        <pt x="179" y="3" on="0"/>
        <pt x="127" y="0" on="0"/>
        <pt x="101" y="0" on="1"/>
        <pt x="89" y="0" on="0"/>
        <pt x="84" y="12" on="0"/>
        <pt x="84" y="14" on="1"/>
        <pt x="84" y="28" on="0"/>
        <pt x="101" y="33" on="0"/>
        <pt x="116" y="33" on="1"/>
        <pt x="152" y="33" on="0"/>
        <pt x="193" y="37" on="0"/>
        <pt x="214" y="48" on="0"/>
        <pt x="223" y="68" on="0"/>
        <pt x="227" y="85" on="1"/>
        <pt x="240" y="137" on="1"/>
        <pt x="193" y="143" on="0"/>
        <pt x="125" y="176" on="0"/>
        <pt x="82" y="225" on="0"/>
        <pt x="61" y="289" on="0"/>
        <pt x="61" y="326" on="1"/>
        <pt x="61" y="328" on="0"/>
        <pt x="63" y="375" on="0"/>
        <pt x="71" y="407" on="1"/>
        <pt x="73" y="415" on="0"/>
        <pt x="81" y="451" on="0"/>
        <pt x="81" y="469" on="1"/>
        <pt x="81" y="489" on="0"/>
        <pt x="73" y="511" on="0"/>
        <pt x="61" y="523" on="0"/>
        <pt x="48" y="526" on="0"/>
        <pt x="42" y="527" on="1"/>
        <pt x="32" y="529" on="0"/>
        <pt x="29" y="540" on="0"/>
        <pt x="29" y="541" on="1"/>
        <pt x="29" y="552" on="0"/>
        <pt x="46" y="555" on="0"/>
        <pt x="59" y="555" on="1"/>
        <pt x="85" y="555" on="1"/>
        <pt x="93" y="555" on="0"/>
        <pt x="120" y="552" on="0"/>
        <pt x="145" y="536" on="0"/>
        <pt x="163" y="501" on="0"/>
        <pt x="163" y="469" on="1"/>
        <pt x="163" y="458" on="0"/>
        <pt x="159" y="424" on="0"/>
        <pt x="152" y="396" on="1"/>
        <pt x="144" y="365" on="0"/>
        <pt x="140" y="315" on="0"/>
        <pt x="140" y="310" on="1"/>
        <pt x="140" y="250" on="0"/>
        <pt x="191" y="177" on="0"/>
        <pt x="247" y="166" on="1"/>
        <pt x="358" y="611" on="1"/>
        <pt x="362" y="626" on="0"/>
        <pt x="362" y="631" on="1"/>
        <pt x="362" y="639" on="0"/>
        <pt x="351" y="646" on="0"/>
        <pt x="335" y="648" on="1"/>
        <pt x="326" y="649" on="0"/>
        <pt x="314" y="650" on="0"/>
        <pt x="303" y="650" on="0"/>
        <pt x="291" y="650" on="0"/>
        <pt x="283" y="650" on="1"/>
        <pt x="264" y="650" on="0"/>
        <pt x="247" y="653" on="0"/>
        <pt x="247" y="664" on="1"/>
        <pt x="247" y="678" on="0"/>
        <pt x="263" y="683" on="0"/>
        <pt x="268" y="683" on="1"/>
        <pt x="295" y="683" on="0"/>
        <pt x="352" y="680" on="0"/>
        <pt x="381" y="680" on="1"/>
        <pt x="490" y="680" on="1"/>
        <pt x="508" y="680" on="0"/>
        <pt x="546" y="683" on="0"/>
        <pt x="564" y="683" on="1"/>
        <pt x="576" y="683" on="0"/>
        <pt x="581" y="670" on="0"/>
        <pt x="581" y="669" on="1"/>
        <pt x="581" y="655" on="0"/>
        <pt x="563" y="650" on="0"/>
        <pt x="543" y="650" on="1"/>
        <pt x="509" y="650" on="0"/>
        <pt x="470" y="646" on="0"/>
        <pt x="450" y="635" on="0"/>
        <pt x="443" y="618" on="0"/>
        <pt x="440" y="605" on="1"/>
      </contour>
    </TTGlyph>
    <TTGlyph name="Q" xMin="51" yMin="-194" xMax="781" yMax="704">
      <contour>
        <pt x="469" y="7" on="1"/>
        <pt x="474" y="-26" on="0"/>
        <pt x="489" y="-65" on="0"/>
        <pt x="507" y="-86" on="0"/>
        <pt x="529" y="-93" on="0"/>
        <pt x="542" y="-93" on="1"/>
        <pt x="558" y="-93" on="0"/>
        <pt x="594" y="-82" on="0"/>
        <pt x="627" y="-59" on="0"/>
        <pt x="655" y="-24" on="0"/>
        <pt x="663" y="1" on="1"/>
        <pt x="664" y="3" on="0"/>
        <pt x="669" y="14" on="0"/>
        <pt x="677" y="14" on="1"/>
        <pt x="683" y="14" on="0"/>
        <pt x="691" y="5" on="0"/>
        <pt x="691" y="0" on="1"/>
        <pt x="691" y="-5" on="0"/>
        <pt x="682" y="-37" on="0"/>
        <pt x="663" y="-80" on="0"/>
        <pt x="634" y="-128" on="0"/>
        <pt x="596" y="-168" on="0"/>
        <pt x="547" y="-194" on="0"/>
        <pt x="517" y="-194" on="1"/>
        <pt x="483" y="-194" on="0"/>
        <pt x="446" y="-165" on="0"/>
        <pt x="429" y="-125" on="0"/>
        <pt x="426" y="-80" on="0"/>
        <pt x="426" y="-65" on="1"/>
        <pt x="426" y="-62" on="0"/>
        <pt x="427" y="-47" on="0"/>
        <pt x="427" y="-29" on="0"/>
        <pt x="428" y="-12" on="0"/>
        <pt x="428" y="-7" on="1"/>
        <pt x="398" y="-15" on="0"/>
        <pt x="347" y="-21" on="0"/>
        <pt x="327" y="-21" on="1"/>
        <pt x="264" y="-21" on="0"/>
        <pt x="162" y="20" on="0"/>
        <pt x="90" y="93" on="0"/>
        <pt x="51" y="192" on="0"/>
        <pt x="51" y="250" on="1"/>
        <pt x="51" y="306" on="0"/>
        <pt x="86" y="416" on="0"/>
        <pt x="149" y="517" on="0"/>
        <pt x="235" y="604" on="0"/>
        <pt x="336" y="668" on="0"/>
        <pt x="449" y="704" on="0"/>
        <pt x="507" y="704" on="1"/>
        <pt x="567" y="704" on="0"/>
        <pt x="668" y="665" on="0"/>
        <pt x="740" y="593" on="0"/>
        <pt x="781" y="492" on="0"/>
        <pt x="781" y="430" on="1"/>
        <pt x="781" y="357" on="0"/>
        <pt x="727" y="222" on="0"/>
        <pt x="640" y="110" on="0"/>
        <pt x="528" y="28" on="0"/>
      </contour>
      <contour>
        <pt x="263" y="23" on="1"/>
        <pt x="258" y="36" on="0"/>
        <pt x="258" y="49" on="1"/>
        <pt x="258" y="68" on="0"/>
        <pt x="276" y="105" on="0"/>
        <pt x="306" y="133" on="0"/>
        <pt x="345" y="151" on="0"/>
        <pt x="366" y="151" on="1"/>
        <pt x="390" y="151" on="0"/>
        <pt x="423" y="134" on="0"/>
        <pt x="445" y="104" on="0"/>
        <pt x="459" y="65" on="0"/>
        <pt x="463" y="44" on="1"/>
        <pt x="514" y="73" on="0"/>
        <pt x="587" y="150" on="0"/>
        <pt x="637" y="233" on="0"/>
        <pt x="667" y="317" on="0"/>
        <pt x="683" y="389" on="0"/>
        <pt x="688" y="445" on="0"/>
        <pt x="688" y="458" on="1"/>
        <pt x="688" y="511" on="0"/>
        <pt x="658" y="591" on="0"/>
        <pt x="607" y="645" on="0"/>
        <pt x="538" y="673" on="0"/>
        <pt x="499" y="673" on="1"/>
        <pt x="466" y="673" on="0"/>
        <pt x="398" y="653" on="0"/>
        <pt x="333" y="616" on="0"/>
        <pt x="273" y="564" on="0"/>
        <pt x="249" y="531" on="1"/>
        <pt x="219" y="490" on="0"/>
        <pt x="179" y="402" on="0"/>
        <pt x="155" y="320" on="0"/>
        <pt x="145" y="249" on="0"/>
        <pt x="145" y="223" on="1"/>
        <pt x="145" y="150" on="0"/>
        <pt x="203" y="46" on="0"/>
      </contour>
      <contour>
        <pt x="429" y="29" on="1"/>
        <pt x="428" y="80" on="0"/>
        <pt x="400" y="123" on="0"/>
        <pt x="367" y="123" on="1"/>
        <pt x="351" y="123" on="0"/>
        <pt x="321" y="110" on="0"/>
        <pt x="299" y="89" on="0"/>
        <pt x="286" y="62" on="0"/>
        <pt x="286" y="49" on="1"/>
        <pt x="286" y="34" on="0"/>
        <pt x="298" y="19" on="0"/>
        <pt x="313" y="11" on="0"/>
        <pt x="330" y="10" on="0"/>
        <pt x="334" y="10" on="1"/>
        <pt x="363" y="10" on="0"/>
        <pt x="413" y="22" on="0"/>
      </contour>
    </TTGlyph>
    <TTGlyph name="R" xMin="51" yMin="-21" xMax="802" yMax="683">
      <contour>
        <pt x="324" y="356" on="1"/>
        <pt x="447" y="356" on="1"/>
        <pt x="491" y="356" on="0"/>
        <pt x="574" y="375" on="0"/>
        <pt x="610" y="401" on="1"/>
        <pt x="627" y="413" on="0"/>
        <pt x="653" y="450" on="0"/>
        <pt x="670" y="491" on="0"/>
        <pt x="679" y="532" on="0"/>
        <pt x="679" y="548" on="1"/>
        <pt x="679" y="578" on="0"/>
        <pt x="652" y="618" on="0"/>
        <pt x="608" y="641" on="0"/>
        <pt x="551" y="650" on="0"/>
        <pt x="520" y="650" on="1"/>
        <pt x="439" y="650" on="1"/>
        <pt x="424" y="650" on="0"/>
        <pt x="406" y="648" on="0"/>
        <pt x="397" y="641" on="0"/>
        <pt x="391" y="626" on="0"/>
        <pt x="388" y="613" on="1"/>
      </contour>
      <contour>
        <pt x="558" y="340" on="1"/>
        <pt x="598" y="324" on="0"/>
        <pt x="650" y="269" on="0"/>
        <pt x="650" y="224" on="1"/>
        <pt x="650" y="216" on="0"/>
        <pt x="649" y="201" on="0"/>
        <pt x="646" y="178" on="1"/>
        <pt x="643" y="153" on="0"/>
        <pt x="636" y="93" on="0"/>
        <pt x="636" y="68" on="1"/>
        <pt x="636" y="43" on="0"/>
        <pt x="649" y="7" on="0"/>
        <pt x="677" y="7" on="1"/>
        <pt x="699" y="7" on="0"/>
        <pt x="754" y="45" on="0"/>
        <pt x="771" y="97" on="1"/>
        <pt x="772" y="100" on="0"/>
        <pt x="778" y="110" on="0"/>
        <pt x="786" y="110" on="1"/>
        <pt x="796" y="110" on="0"/>
        <pt x="802" y="99" on="0"/>
        <pt x="802" y="96" on="1"/>
        <pt x="802" y="89" on="0"/>
        <pt x="786" y="51" on="0"/>
        <pt x="755" y="10" on="0"/>
        <pt x="707" y="-21" on="0"/>
        <pt x="674" y="-21" on="1"/>
        <pt x="646" y="-21" on="0"/>
        <pt x="596" y="-8" on="0"/>
        <pt x="557" y="19" on="0"/>
        <pt x="534" y="60" on="0"/>
        <pt x="534" y="89" on="1"/>
        <pt x="534" y="103" on="0"/>
        <pt x="546" y="154" on="0"/>
        <pt x="552" y="176" on="1"/>
        <pt x="556" y="192" on="0"/>
        <pt x="564" y="228" on="0"/>
        <pt x="564" y="239" on="1"/>
        <pt x="564" y="254" on="0"/>
        <pt x="552" y="286" on="0"/>
        <pt x="525" y="312" on="0"/>
        <pt x="480" y="328" on="0"/>
        <pt x="446" y="328" on="1"/>
        <pt x="316" y="328" on="1"/>
        <pt x="251" y="65" on="1"/>
        <pt x="250" y="61" on="0"/>
        <pt x="248" y="53" on="0"/>
        <pt x="248" y="49" on="1"/>
        <pt x="248" y="42" on="0"/>
        <pt x="255" y="37" on="0"/>
        <pt x="271" y="35" on="1"/>
        <pt x="284" y="33" on="0"/>
        <pt x="307" y="33" on="0"/>
        <pt x="309" y="33" on="1"/>
        <pt x="322" y="33" on="0"/>
        <pt x="339" y="30" on="0"/>
        <pt x="339" y="19" on="1"/>
        <pt x="339" y="5" on="0"/>
        <pt x="324" y="0" on="0"/>
        <pt x="319" y="0" on="1"/>
        <pt x="317" y="0" on="0"/>
        <pt x="302" y="1" on="0"/>
        <pt x="273" y="2" on="0"/>
        <pt x="226" y="3" on="0"/>
        <pt x="191" y="3" on="1"/>
        <pt x="129" y="3" on="1"/>
        <pt x="114" y="2" on="0"/>
        <pt x="81" y="0" on="0"/>
        <pt x="67" y="0" on="1"/>
        <pt x="57" y="0" on="0"/>
        <pt x="51" y="11" on="0"/>
        <pt x="51" y="14" on="1"/>
        <pt x="51" y="28" on="0"/>
        <pt x="68" y="33" on="0"/>
        <pt x="82" y="33" on="1"/>
        <pt x="110" y="33" on="0"/>
        <pt x="141" y="37" on="0"/>
        <pt x="157" y="47" on="0"/>
        <pt x="164" y="65" on="0"/>
        <pt x="167" y="79" on="1"/>
        <pt x="301" y="616" on="1"/>
        <pt x="303" y="626" on="0"/>
        <pt x="305" y="631" on="0"/>
        <pt x="305" y="634" on="1"/>
        <pt x="305" y="646" on="0"/>
        <pt x="268" y="650" on="0"/>
        <pt x="243" y="650" on="1"/>
        <pt x="231" y="650" on="0"/>
        <pt x="214" y="653" on="0"/>
        <pt x="214" y="664" on="1"/>
        <pt x="214" y="678" on="0"/>
        <pt x="231" y="683" on="0"/>
        <pt x="245" y="683" on="1"/>
        <pt x="540" y="683" on="1"/>
        <pt x="592" y="683" on="0"/>
        <pt x="679" y="660" on="0"/>
        <pt x="742" y="619" on="0"/>
        <pt x="777" y="564" on="0"/>
        <pt x="777" y="531" on="1"/>
        <pt x="777" y="499" on="0"/>
        <pt x="743" y="440" on="0"/>
        <pt x="684" y="390" on="0"/>
        <pt x="604" y="352" on="0"/>
      </contour>
    </TTGlyph>
    <TTGlyph name="S" xMin="57" yMin="-21" xMax="674" yMax="704">
      <contour>
        <pt x="620" y="476" on="1"/>
        <pt x="617" y="464" on="0"/>
        <pt x="612" y="456" on="0"/>
        <pt x="603" y="456" on="1"/>
        <pt x="598" y="456" on="0"/>
        <pt x="587" y="461" on="0"/>
        <pt x="587" y="470" on="1"/>
        <pt x="587" y="473" on="0"/>
        <pt x="591" y="501" on="0"/>
        <pt x="591" y="519" on="1"/>
        <pt x="591" y="600" on="0"/>
        <pt x="507" y="674" on="0"/>
        <pt x="439" y="674" on="1"/>
        <pt x="401" y="674" on="0"/>
        <pt x="333" y="645" on="0"/>
        <pt x="282" y="599" on="0"/>
        <pt x="253" y="541" on="0"/>
        <pt x="253" y="512" on="1"/>
        <pt x="253" y="486" on="0"/>
        <pt x="271" y="451" on="0"/>
        <pt x="298" y="429" on="0"/>
        <pt x="328" y="418" on="0"/>
        <pt x="339" y="415" on="1"/>
        <pt x="356" y="410" on="0"/>
        <pt x="408" y="398" on="0"/>
        <pt x="430" y="393" on="1"/>
        <pt x="465" y="384" on="0"/>
        <pt x="517" y="365" on="0"/>
        <pt x="540" y="340" on="1"/>
        <pt x="560" y="319" on="0"/>
        <pt x="582" y="265" on="0"/>
        <pt x="582" y="230" on="1"/>
        <pt x="582" y="185" on="0"/>
        <pt x="540" y="95" on="0"/>
        <pt x="468" y="24" on="0"/>
        <pt x="372" y="-21" on="0"/>
        <pt x="318" y="-21" on="1"/>
        <pt x="280" y="-21" on="0"/>
        <pt x="221" y="-8" on="0"/>
        <pt x="176" y="13" on="0"/>
        <pt x="146" y="38" on="0"/>
        <pt x="137" y="49" on="1"/>
        <pt x="89" y="-7" on="1"/>
        <pt x="81" y="-17" on="0"/>
        <pt x="75" y="-21" on="0"/>
        <pt x="70" y="-21" on="1"/>
        <pt x="57" y="-21" on="0"/>
        <pt x="57" y="-8" on="1"/>
        <pt x="57" y="-6" on="0"/>
        <pt x="65" y="26" on="0"/>
        <pt x="68" y="37" on="1"/>
        <pt x="109" y="200" on="1"/>
        <pt x="113" y="217" on="0"/>
        <pt x="118" y="227" on="0"/>
        <pt x="128" y="227" on="1"/>
        <pt x="131" y="227" on="0"/>
        <pt x="143" y="223" on="0"/>
        <pt x="143" y="214" on="1"/>
        <pt x="142" y="204" on="1"/>
        <pt x="137" y="186" on="0"/>
        <pt x="136" y="158" on="0"/>
        <pt x="136" y="156" on="1"/>
        <pt x="136" y="110" on="0"/>
        <pt x="175" y="53" on="0"/>
        <pt x="232" y="22" on="0"/>
        <pt x="296" y="12" on="0"/>
        <pt x="320" y="12" on="1"/>
        <pt x="359" y="12" on="0"/>
        <pt x="429" y="44" on="0"/>
        <pt x="481" y="95" on="0"/>
        <pt x="511" y="159" on="0"/>
        <pt x="511" y="192" on="1"/>
        <pt x="511" y="223" on="0"/>
        <pt x="490" y="262" on="0"/>
        <pt x="461" y="285" on="0"/>
        <pt x="429" y="295" on="0"/>
        <pt x="418" y="298" on="1"/>
        <pt x="407" y="301" on="0"/>
        <pt x="394" y="304" on="0"/>
        <pt x="381" y="307" on="0"/>
        <pt x="365" y="311" on="0"/>
        <pt x="352" y="314" on="1"/>
        <pt x="325" y="320" on="0"/>
        <pt x="286" y="331" on="0"/>
        <pt x="255" y="344" on="0"/>
        <pt x="230" y="361" on="0"/>
        <pt x="218" y="374" on="1"/>
        <pt x="216" y="377" on="0"/>
        <pt x="204" y="392" on="0"/>
        <pt x="192" y="417" on="0"/>
        <pt x="182" y="451" on="0"/>
        <pt x="182" y="473" on="1"/>
        <pt x="182" y="516" on="0"/>
        <pt x="224" y="599" on="0"/>
        <pt x="294" y="664" on="0"/>
        <pt x="388" y="704" on="0"/>
        <pt x="440" y="704" on="1"/>
        <pt x="459" y="704" on="0"/>
        <pt x="501" y="698" on="0"/>
        <pt x="541" y="682" on="0"/>
        <pt x="578" y="654" on="0"/>
        <pt x="593" y="633" on="1"/>
        <pt x="597" y="638" on="0"/>
        <pt x="610" y="653" on="0"/>
        <pt x="624" y="669" on="0"/>
        <pt x="637" y="685" on="0"/>
        <pt x="641" y="690" on="1"/>
        <pt x="649" y="699" on="0"/>
        <pt x="656" y="704" on="0"/>
        <pt x="661" y="704" on="1"/>
        <pt x="674" y="704" on="0"/>
        <pt x="674" y="692" on="1"/>
        <pt x="674" y="688" on="0"/>
        <pt x="672" y="680" on="0"/>
        <pt x="671" y="677" on="1"/>
      </contour>
    </TTGlyph>
    <TTGlyph name="Sigma" xMin="63" yMin="0" xMax="846" yMax="683">
      <contour>
        <pt x="140" y="44" on="1"/>
        <pt x="427" y="44" on="1"/>
        <pt x="493" y="44" on="0"/>
        <pt x="586" y="57" on="0"/>
        <pt x="655" y="95" on="0"/>
        <pt x="706" y="164" on="0"/>
        <pt x="730" y="220" on="1"/>
        <pt x="734" y="229" on="0"/>
        <pt x="739" y="238" on="0"/>
        <pt x="747" y="238" on="1"/>
        <pt x="756" y="238" on="0"/>
        <pt x="763" y="228" on="0"/>
        <pt x="763" y="224" on="1"/>
        <pt x="763" y="223" on="0"/>
        <pt x="753" y="194" on="0"/>
        <pt x="737" y="153" on="0"/>
        <pt x="718" y="104" on="0"/>
        <pt x="701" y="59" on="0"/>
        <pt x="687" y="25" on="0"/>
        <pt x="685" y="19" on="1"/>
        <pt x="679" y="5" on="0"/>
        <pt x="670" y="0" on="0"/>
        <pt x="651" y="0" on="1"/>
        <pt x="93" y="0" on="1"/>
        <pt x="80" y="0" on="0"/>
        <pt x="63" y="3" on="0"/>
        <pt x="63" y="14" on="1"/>
        <pt x="63" y="18" on="0"/>
        <pt x="67" y="23" on="0"/>
        <pt x="77" y="32" on="1"/>
        <pt x="397" y="304" on="1"/>
        <pt x="231" y="648" on="1"/>
        <pt x="226" y="657" on="0"/>
        <pt x="225" y="663" on="0"/>
        <pt x="225" y="664" on="1"/>
        <pt x="225" y="678" on="0"/>
        <pt x="243" y="683" on="0"/>
        <pt x="257" y="683" on="1"/>
        <pt x="815" y="683" on="1"/>
        <pt x="834" y="683" on="0"/>
        <pt x="846" y="676" on="0"/>
        <pt x="844" y="653" on="1"/>
        <pt x="826" y="483" on="1"/>
        <pt x="824" y="470" on="0"/>
        <pt x="820" y="456" on="0"/>
        <pt x="809" y="456" on="1"/>
        <pt x="798" y="456" on="0"/>
        <pt x="794" y="469" on="0"/>
        <pt x="794" y="470" on="1"/>
        <pt x="794" y="476" on="0"/>
        <pt x="796" y="495" on="0"/>
        <pt x="796" y="516" on="1"/>
        <pt x="796" y="546" on="0"/>
        <pt x="786" y="587" on="0"/>
        <pt x="770" y="615" on="0"/>
        <pt x="747" y="631" on="0"/>
        <pt x="734" y="635" on="1"/>
        <pt x="718" y="640" on="0"/>
        <pt x="677" y="646" on="0"/>
        <pt x="636" y="649" on="0"/>
        <pt x="601" y="650" on="0"/>
        <pt x="592" y="650" on="1"/>
        <pt x="337" y="650" on="1"/>
        <pt x="484" y="342" on="1"/>
        <pt x="482" y="335" on="0"/>
        <pt x="478" y="330" on="0"/>
        <pt x="471" y="324" on="1"/>
      </contour>
    </TTGlyph>
    <TTGlyph name="T" xMin="26" yMin="0" xMax="745" yMax="676">
      <contour>
        <pt x="319" y="73" on="1"/>
        <pt x="315" y="60" on="0"/>
        <pt x="315" y="55" on="1"/>
        <pt x="315" y="45" on="0"/>
        <pt x="327" y="37" on="0"/>
        <pt x="351" y="35" on="1"/>
        <pt x="361" y="34" on="0"/>
        <pt x="375" y="33" on="0"/>
        <pt x="387" y="33" on="0"/>
        <pt x="400" y="33" on="0"/>
        <pt x="409" y="33" on="1"/>
        <pt x="429" y="33" on="0"/>
        <pt x="447" y="30" on="0"/>
        <pt x="447" y="19" on="1"/>
        <pt x="447" y="5" on="0"/>
        <pt x="430" y="0" on="0"/>
        <pt x="424" y="0" on="1"/>
        <pt x="414" y="0" on="0"/>
        <pt x="379" y="1" on="0"/>
        <pt x="343" y="2" on="0"/>
        <pt x="309" y="3" on="0"/>
        <pt x="298" y="3" on="1"/>
        <pt x="213" y="3" on="1"/>
        <pt x="203" y="3" on="0"/>
        <pt x="170" y="2" on="0"/>
        <pt x="134" y="1" on="0"/>
        <pt x="100" y="0" on="0"/>
        <pt x="90" y="0" on="1"/>
        <pt x="77" y="0" on="0"/>
        <pt x="73" y="13" on="0"/>
        <pt x="73" y="14" on="1"/>
        <pt x="73" y="28" on="0"/>
        <pt x="91" y="33" on="0"/>
        <pt x="115" y="33" on="1"/>
        <pt x="154" y="33" on="0"/>
        <pt x="197" y="38" on="0"/>
        <pt x="220" y="49" on="0"/>
        <pt x="228" y="68" on="0"/>
        <pt x="231" y="82" on="1"/>
        <pt x="363" y="607" on="1"/>
        <pt x="364" y="610" on="0"/>
        <pt x="368" y="632" on="0"/>
        <pt x="368" y="634" on="1"/>
        <pt x="368" y="640" on="0"/>
        <pt x="360" y="643" on="0"/>
        <pt x="337" y="643" on="1"/>
        <pt x="298" y="643" on="1"/>
        <pt x="241" y="643" on="0"/>
        <pt x="168" y="634" on="0"/>
        <pt x="118" y="600" on="0"/>
        <pt x="81" y="531" on="0"/>
        <pt x="60" y="471" on="1"/>
        <pt x="55" y="458" on="0"/>
        <pt x="49" y="449" on="0"/>
        <pt x="41" y="449" on="1"/>
        <pt x="35" y="449" on="0"/>
        <pt x="26" y="457" on="0"/>
        <pt x="26" y="463" on="1"/>
        <pt x="26" y="468" on="0"/>
        <pt x="29" y="478" on="0"/>
        <pt x="31" y="482" on="1"/>
        <pt x="92" y="655" on="1"/>
        <pt x="97" y="671" on="0"/>
        <pt x="107" y="676" on="0"/>
        <pt x="126" y="676" on="1"/>
        <pt x="715" y="676" on="1"/>
        <pt x="729" y="676" on="0"/>
        <pt x="745" y="673" on="0"/>
        <pt x="745" y="662" on="1"/>
        <pt x="718" y="474" on="1"/>
        <pt x="716" y="460" on="0"/>
        <pt x="708" y="449" on="0"/>
        <pt x="700" y="449" on="1"/>
        <pt x="695" y="449" on="0"/>
        <pt x="685" y="455" on="0"/>
        <pt x="685" y="465" on="1"/>
        <pt x="685" y="467" on="0"/>
        <pt x="686" y="479" on="0"/>
        <pt x="688" y="487" on="1"/>
        <pt x="688" y="489" on="0"/>
        <pt x="691" y="505" on="0"/>
        <pt x="693" y="527" on="0"/>
        <pt x="695" y="551" on="0"/>
        <pt x="695" y="560" on="1"/>
        <pt x="695" y="579" on="0"/>
        <pt x="688" y="609" on="0"/>
        <pt x="664" y="631" on="0"/>
        <pt x="618" y="643" on="0"/>
        <pt x="579" y="643" on="1"/>
        <pt x="503" y="643" on="1"/>
        <pt x="488" y="643" on="0"/>
        <pt x="470" y="641" on="0"/>
        <pt x="461" y="634" on="0"/>
        <pt x="455" y="619" on="0"/>
        <pt x="452" y="605" on="1"/>
      </contour>
    </TTGlyph>
    <TTGlyph name="Theta" xMin="51" yMin="-21" xMax="781" yMax="704">
      <contour>
        <pt x="781" y="430" on="1"/>
        <pt x="781" y="371" on="0"/>
        <pt x="745" y="258" on="0"/>
        <pt x="681" y="158" on="0"/>
        <pt x="595" y="74" on="0"/>
        <pt x="494" y="13" on="0"/>
        <pt x="383" y="-21" on="0"/>
        <pt x="327" y="-21" on="1"/>
        <pt x="264" y="-21" on="0"/>
        <pt x="162" y="20" on="0"/>
        <pt x="90" y="93" on="0"/>
        <pt x="51" y="192" on="0"/>
        <pt x="51" y="250" on="1"/>
        <pt x="51" y="306" on="0"/>
        <pt x="86" y="416" on="0"/>
        <pt x="149" y="517" on="0"/>
        <pt x="235" y="604" on="0"/>
        <pt x="336" y="668" on="0"/>
        <pt x="449" y="704" on="0"/>
        <pt x="507" y="704" on="1"/>
        <pt x="567" y="704" on="0"/>
        <pt x="668" y="665" on="0"/>
        <pt x="740" y="593" on="0"/>
        <pt x="781" y="492" on="0"/>
      </contour>
      <contour>
        <pt x="334" y="9" on="1"/>
        <pt x="366" y="9" on="0"/>
        <pt x="435" y="27" on="0"/>
        <pt x="504" y="66" on="0"/>
        <pt x="571" y="125" on="0"/>
        <pt x="600" y="166" on="1"/>
        <pt x="626" y="203" on="0"/>
        <pt x="661" y="284" on="0"/>
        <pt x="683" y="363" on="0"/>
        <pt x="692" y="432" on="0"/>
        <pt x="692" y="457" on="1"/>
        <pt x="692" y="510" on="0"/>
        <pt x="662" y="592" on="0"/>
        <pt x="610" y="648" on="0"/>
        <pt x="540" y="676" on="0"/>
        <pt x="500" y="676" on="1"/>
        <pt x="465" y="676" on="0"/>
        <pt x="397" y="655" on="0"/>
        <pt x="335" y="620" on="0"/>
        <pt x="281" y="575" on="0"/>
        <pt x="260" y="550" on="1"/>
        <pt x="219" y="500" on="0"/>
        <pt x="172" y="396" on="0"/>
        <pt x="148" y="306" on="0"/>
        <pt x="141" y="239" on="0"/>
        <pt x="141" y="225" on="1"/>
        <pt x="141" y="170" on="0"/>
        <pt x="173" y="89" on="0"/>
        <pt x="226" y="35" on="0"/>
        <pt x="296" y="9" on="0"/>
      </contour>
      <contour>
        <pt x="239" y="304" on="1"/>
        <pt x="239" y="304" on="0"/>
        <pt x="238" y="293" on="0"/>
        <pt x="234" y="280" on="0"/>
        <pt x="226" y="270" on="0"/>
        <pt x="219" y="270" on="1"/>
        <pt x="209" y="270" on="0"/>
        <pt x="203" y="281" on="0"/>
        <pt x="203" y="284" on="1"/>
        <pt x="203" y="286" on="0"/>
        <pt x="210" y="316" on="0"/>
        <pt x="219" y="353" on="0"/>
        <pt x="228" y="388" on="0"/>
        <pt x="230" y="395" on="1"/>
        <pt x="232" y="404" on="0"/>
        <pt x="238" y="415" on="0"/>
        <pt x="248" y="415" on="1"/>
        <pt x="253" y="415" on="0"/>
        <pt x="263" y="408" on="0"/>
        <pt x="263" y="400" on="1"/>
        <pt x="263" y="395" on="0"/>
        <pt x="260" y="385" on="0"/>
        <pt x="259" y="381" on="1"/>
        <pt x="595" y="381" on="1"/>
        <pt x="595" y="382" on="0"/>
        <pt x="597" y="393" on="0"/>
        <pt x="601" y="405" on="0"/>
        <pt x="609" y="415" on="0"/>
        <pt x="616" y="415" on="1"/>
        <pt x="622" y="415" on="0"/>
        <pt x="631" y="407" on="0"/>
        <pt x="631" y="401" on="1"/>
        <pt x="631" y="397" on="0"/>
        <pt x="624" y="365" on="0"/>
        <pt x="614" y="327" on="0"/>
        <pt x="605" y="293" on="0"/>
        <pt x="603" y="286" on="1"/>
        <pt x="601" y="280" on="0"/>
        <pt x="595" y="270" on="0"/>
        <pt x="586" y="270" on="1"/>
        <pt x="578" y="270" on="0"/>
        <pt x="571" y="279" on="0"/>
        <pt x="571" y="284" on="1"/>
        <pt x="571" y="289" on="0"/>
        <pt x="574" y="300" on="0"/>
        <pt x="575" y="304" on="1"/>
      </contour>
    </TTGlyph>
    <TTGlyph name="U" xMin="72" yMin="-21" xMax="791" yMax="683">
      <contour>
        <pt x="579" y="223" on="1"/>
        <pt x="567" y="175" on="0"/>
        <pt x="510" y="86" on="0"/>
        <pt x="430" y="19" on="0"/>
        <pt x="334" y="-21" on="0"/>
        <pt x="283" y="-21" on="1"/>
        <pt x="238" y="-21" on="0"/>
        <pt x="161" y="7" on="0"/>
        <pt x="104" y="59" on="0"/>
        <pt x="72" y="131" on="0"/>
        <pt x="72" y="175" on="1"/>
        <pt x="72" y="185" on="0"/>
        <pt x="74" y="203" on="0"/>
        <pt x="78" y="224" on="0"/>
        <pt x="85" y="251" on="0"/>
        <pt x="90" y="272" on="1"/>
        <pt x="164" y="572" on="1"/>
        <pt x="166" y="580" on="0"/>
        <pt x="172" y="599" on="0"/>
        <pt x="176" y="617" on="0"/>
        <pt x="179" y="632" on="0"/>
        <pt x="179" y="634" on="1"/>
        <pt x="179" y="646" on="0"/>
        <pt x="142" y="650" on="0"/>
        <pt x="117" y="650" on="1"/>
        <pt x="105" y="650" on="0"/>
        <pt x="88" y="653" on="0"/>
        <pt x="88" y="664" on="1"/>
        <pt x="88" y="678" on="0"/>
        <pt x="105" y="683" on="0"/>
        <pt x="108" y="683" on="1"/>
        <pt x="111" y="683" on="0"/>
        <pt x="125" y="682" on="0"/>
        <pt x="154" y="681" on="0"/>
        <pt x="201" y="680" on="0"/>
        <pt x="237" y="680" on="1"/>
        <pt x="300" y="680" on="1"/>
        <pt x="314" y="681" on="0"/>
        <pt x="348" y="683" on="0"/>
        <pt x="362" y="683" on="1"/>
        <pt x="374" y="683" on="0"/>
        <pt x="379" y="670" on="0"/>
        <pt x="379" y="669" on="1"/>
        <pt x="379" y="655" on="0"/>
        <pt x="362" y="650" on="0"/>
        <pt x="347" y="650" on="1"/>
        <pt x="320" y="650" on="0"/>
        <pt x="289" y="646" on="0"/>
        <pt x="273" y="636" on="0"/>
        <pt x="266" y="619" on="0"/>
        <pt x="263" y="605" on="1"/>
        <pt x="163" y="205" on="1"/>
        <pt x="160" y="193" on="0"/>
        <pt x="156" y="158" on="0"/>
        <pt x="156" y="145" on="1"/>
        <pt x="156" y="111" on="0"/>
        <pt x="178" y="60" on="0"/>
        <pt x="214" y="28" on="0"/>
        <pt x="261" y="12" on="0"/>
        <pt x="287" y="12" on="1"/>
        <pt x="324" y="12" on="0"/>
        <pt x="405" y="41" on="0"/>
        <pt x="477" y="98" on="0"/>
        <pt x="535" y="181" on="0"/>
        <pt x="548" y="235" on="1"/>
        <pt x="549" y="238" on="0"/>
        <pt x="563" y="292" on="0"/>
        <pt x="582" y="370" on="0"/>
        <pt x="604" y="459" on="0"/>
        <pt x="623" y="536" on="0"/>
        <pt x="636" y="588" on="0"/>
        <pt x="637" y="590" on="1"/>
        <pt x="638" y="595" on="0"/>
        <pt x="639" y="602" on="0"/>
        <pt x="639" y="607" on="1"/>
        <pt x="639" y="612" on="0"/>
        <pt x="637" y="626" on="0"/>
        <pt x="626" y="640" on="0"/>
        <pt x="601" y="649" on="0"/>
        <pt x="578" y="650" on="1"/>
        <pt x="571" y="650" on="0"/>
        <pt x="556" y="654" on="0"/>
        <pt x="556" y="664" on="1"/>
        <pt x="556" y="670" on="0"/>
        <pt x="563" y="683" on="0"/>
        <pt x="575" y="683" on="1"/>
        <pt x="578" y="683" on="0"/>
        <pt x="589" y="682" on="0"/>
        <pt x="610" y="681" on="0"/>
        <pt x="647" y="680" on="0"/>
        <pt x="677" y="680" on="1"/>
        <pt x="731" y="680" on="0"/>
        <pt x="772" y="683" on="0"/>
        <pt x="776" y="683" on="1"/>
        <pt x="784" y="683" on="0"/>
        <pt x="791" y="674" on="0"/>
        <pt x="791" y="669" on="1"/>
        <pt x="791" y="659" on="0"/>
        <pt x="781" y="650" on="0"/>
        <pt x="773" y="650" on="1"/>
        <pt x="720" y="648" on="0"/>
        <pt x="676" y="611" on="0"/>
        <pt x="667" y="574" on="1"/>
      </contour>
    </TTGlyph>
    <TTGlyph name="Upsilon" xMin="29" yMin="0" xMax="742" yMax="704">
      <contour>
        <pt x="270" y="273" on="1"/>
        <pt x="281" y="315" on="0"/>
        <pt x="294" y="371" on="0"/>
        <pt x="302" y="413" on="0"/>
        <pt x="305" y="448" on="0"/>
        <pt x="305" y="469" on="1"/>
        <pt x="305" y="495" on="0"/>
        <pt x="296" y="552" on="0"/>
        <pt x="271" y="598" on="0"/>
        <pt x="225" y="628" on="0"/>
        <pt x="188" y="628" on="1"/>
        <pt x="171" y="628" on="0"/>
        <pt x="133" y="619" on="0"/>
        <pt x="99" y="600" on="0"/>
        <pt x="71" y="571" on="0"/>
        <pt x="64" y="551" on="1"/>
        <pt x="62" y="545" on="0"/>
        <pt x="54" y="532" on="0"/>
        <pt x="43" y="532" on="1"/>
        <pt x="33" y="532" on="0"/>
        <pt x="29" y="541" on="0"/>
        <pt x="29" y="543" on="1"/>
        <pt x="29" y="554" on="0"/>
        <pt x="53" y="607" on="0"/>
        <pt x="98" y="662" on="0"/>
        <pt x="166" y="704" on="0"/>
        <pt x="209" y="704" on="1"/>
        <pt x="247" y="704" on="0"/>
        <pt x="299" y="678" on="0"/>
        <pt x="333" y="637" on="0"/>
        <pt x="351" y="588" on="0"/>
        <pt x="360" y="542" on="0"/>
        <pt x="361" y="504" on="0"/>
        <pt x="361" y="495" on="1"/>
        <pt x="361" y="487" on="0"/>
        <pt x="361" y="462" on="0"/>
        <pt x="360" y="454" on="1"/>
        <pt x="415" y="582" on="0"/>
        <pt x="560" y="704" on="0"/>
        <pt x="636" y="704" on="1"/>
        <pt x="687" y="704" on="0"/>
        <pt x="742" y="638" on="0"/>
        <pt x="742" y="589" on="1"/>
        <pt x="742" y="566" on="0"/>
        <pt x="733" y="532" on="0"/>
        <pt x="717" y="532" on="1"/>
        <pt x="712" y="532" on="0"/>
        <pt x="703" y="537" on="0"/>
        <pt x="703" y="544" on="1"/>
        <pt x="703" y="546" on="0"/>
        <pt x="706" y="558" on="0"/>
        <pt x="706" y="563" on="1"/>
        <pt x="706" y="589" on="0"/>
        <pt x="662" y="628" on="0"/>
        <pt x="618" y="628" on="1"/>
        <pt x="578" y="628" on="0"/>
        <pt x="505" y="587" on="0"/>
        <pt x="442" y="510" on="0"/>
        <pt x="393" y="403" on="0"/>
        <pt x="376" y="337" on="1"/>
        <pt x="374" y="330" on="0"/>
        <pt x="363" y="285" on="0"/>
        <pt x="348" y="226" on="0"/>
        <pt x="332" y="162" on="0"/>
        <pt x="318" y="107" on="0"/>
        <pt x="309" y="70" on="0"/>
        <pt x="308" y="68" on="1"/>
        <pt x="306" y="58" on="0"/>
        <pt x="306" y="53" on="1"/>
        <pt x="306" y="44" on="0"/>
        <pt x="316" y="37" on="0"/>
        <pt x="336" y="35" on="1"/>
        <pt x="353" y="33" on="0"/>
        <pt x="372" y="33" on="0"/>
        <pt x="388" y="33" on="1"/>
        <pt x="404" y="33" on="0"/>
        <pt x="421" y="30" on="0"/>
        <pt x="421" y="19" on="1"/>
        <pt x="421" y="5" on="0"/>
        <pt x="405" y="0" on="0"/>
        <pt x="400" y="0" on="1"/>
        <pt x="390" y="0" on="0"/>
        <pt x="359" y="1" on="0"/>
        <pt x="324" y="2" on="0"/>
        <pt x="293" y="3" on="0"/>
        <pt x="283" y="3" on="1"/>
        <pt x="207" y="3" on="1"/>
        <pt x="179" y="3" on="0"/>
        <pt x="124" y="0" on="0"/>
        <pt x="97" y="0" on="1"/>
        <pt x="85" y="0" on="0"/>
        <pt x="80" y="12" on="0"/>
        <pt x="80" y="14" on="1"/>
        <pt x="80" y="28" on="0"/>
        <pt x="96" y="33" on="0"/>
        <pt x="108" y="33" on="1"/>
        <pt x="141" y="33" on="0"/>
        <pt x="181" y="35" on="0"/>
        <pt x="205" y="44" on="0"/>
        <pt x="217" y="62" on="0"/>
        <pt x="221" y="79" on="1"/>
      </contour>
    </TTGlyph>
    <TTGlyph name="V" xMin="61" yMin="-21" xMax="813" yMax="683">
      <contour>
        <pt x="296" y="-1" on="1"/>
        <pt x="291" y="-9" on="0"/>
        <pt x="279" y="-21" on="0"/>
        <pt x="266" y="-21" on="1"/>
        <pt x="252" y="-21" on="0"/>
        <pt x="245" y="-8" on="0"/>
        <pt x="243" y="7" on="1"/>
        <pt x="145" y="616" on="1"/>
        <pt x="144" y="625" on="0"/>
        <pt x="140" y="638" on="0"/>
        <pt x="129" y="646" on="0"/>
        <pt x="108" y="650" on="0"/>
        <pt x="89" y="650" on="1"/>
        <pt x="78" y="650" on="0"/>
        <pt x="61" y="653" on="0"/>
        <pt x="61" y="664" on="1"/>
        <pt x="61" y="678" on="0"/>
        <pt x="77" y="683" on="0"/>
        <pt x="80" y="683" on="1"/>
        <pt x="83" y="683" on="0"/>
        <pt x="94" y="682" on="0"/>
        <pt x="117" y="681" on="0"/>
        <pt x="158" y="680" on="0"/>
        <pt x="192" y="680" on="1"/>
        <pt x="255" y="680" on="1"/>
        <pt x="258" y="680" on="0"/>
        <pt x="274" y="681" on="0"/>
        <pt x="292" y="682" on="0"/>
        <pt x="309" y="683" on="0"/>
        <pt x="312" y="683" on="1"/>
        <pt x="322" y="683" on="0"/>
        <pt x="328" y="672" on="0"/>
        <pt x="328" y="669" on="1"/>
        <pt x="328" y="655" on="0"/>
        <pt x="312" y="650" on="0"/>
        <pt x="303" y="650" on="1"/>
        <pt x="265" y="650" on="0"/>
        <pt x="237" y="632" on="0"/>
        <pt x="237" y="622" on="1"/>
        <pt x="237" y="620" on="0"/>
        <pt x="238" y="612" on="0"/>
        <pt x="239" y="605" on="1"/>
        <pt x="322" y="91" on="1"/>
        <pt x="647" y="583" on="1"/>
        <pt x="651" y="589" on="0"/>
        <pt x="661" y="608" on="0"/>
        <pt x="661" y="620" on="1"/>
        <pt x="661" y="647" on="0"/>
        <pt x="621" y="650" on="1"/>
        <pt x="617" y="650" on="0"/>
        <pt x="603" y="654" on="0"/>
        <pt x="603" y="664" on="1"/>
        <pt x="603" y="678" on="0"/>
        <pt x="619" y="683" on="0"/>
        <pt x="623" y="683" on="1"/>
        <pt x="626" y="683" on="0"/>
        <pt x="670" y="680" on="0"/>
        <pt x="718" y="680" on="1"/>
        <pt x="745" y="680" on="0"/>
        <pt x="774" y="681" on="0"/>
        <pt x="789" y="682" on="0"/>
        <pt x="795" y="683" on="0"/>
        <pt x="799" y="683" on="1"/>
        <pt x="808" y="683" on="0"/>
        <pt x="813" y="671" on="0"/>
        <pt x="813" y="669" on="1"/>
        <pt x="813" y="663" on="0"/>
        <pt x="806" y="651" on="0"/>
        <pt x="798" y="650" on="1"/>
        <pt x="783" y="649" on="0"/>
        <pt x="753" y="644" on="0"/>
        <pt x="722" y="626" on="0"/>
        <pt x="689" y="593" on="0"/>
        <pt x="670" y="564" on="1"/>
      </contour>
    </TTGlyph>
    <TTGlyph name="W" xMin="60" yMin="-21" xMax="1110" yMax="683">
      <contour>
        <pt x="642" y="0" on="1"/>
        <pt x="637" y="-8" on="0"/>
        <pt x="626" y="-21" on="0"/>
        <pt x="613" y="-21" on="1"/>
        <pt x="601" y="-21" on="0"/>
        <pt x="596" y="-7" on="0"/>
        <pt x="594" y="7" on="1"/>
        <pt x="546" y="512" on="1"/>
        <pt x="242" y="0" on="1"/>
        <pt x="234" y="-14" on="0"/>
        <pt x="219" y="-21" on="0"/>
        <pt x="213" y="-21" on="1"/>
        <pt x="200" y="-21" on="0"/>
        <pt x="195" y="-6" on="0"/>
        <pt x="193" y="8" on="1"/>
        <pt x="135" y="618" on="1"/>
        <pt x="134" y="627" on="0"/>
        <pt x="132" y="640" on="0"/>
        <pt x="122" y="647" on="0"/>
        <pt x="103" y="650" on="0"/>
        <pt x="85" y="650" on="1"/>
        <pt x="77" y="650" on="0"/>
        <pt x="60" y="653" on="0"/>
        <pt x="60" y="664" on="1"/>
        <pt x="60" y="670" on="0"/>
        <pt x="67" y="683" on="0"/>
        <pt x="79" y="683" on="1"/>
        <pt x="84" y="683" on="0"/>
        <pt x="93" y="682" on="0"/>
        <pt x="114" y="681" on="0"/>
        <pt x="153" y="680" on="0"/>
        <pt x="187" y="680" on="1"/>
        <pt x="247" y="680" on="1"/>
        <pt x="251" y="680" on="0"/>
        <pt x="267" y="681" on="0"/>
        <pt x="284" y="682" on="0"/>
        <pt x="300" y="683" on="0"/>
        <pt x="304" y="683" on="1"/>
        <pt x="320" y="683" on="0"/>
        <pt x="320" y="669" on="1"/>
        <pt x="320" y="655" on="0"/>
        <pt x="303" y="650" on="0"/>
        <pt x="295" y="650" on="1"/>
        <pt x="272" y="650" on="0"/>
        <pt x="245" y="643" on="0"/>
        <pt x="230" y="633" on="0"/>
        <pt x="226" y="623" on="0"/>
        <pt x="226" y="620" on="1"/>
        <pt x="226" y="616" on="0"/>
        <pt x="227" y="606" on="0"/>
        <pt x="227" y="602" on="1"/>
        <pt x="274" y="110" on="1"/>
        <pt x="534" y="546" on="1"/>
        <pt x="539" y="554" on="0"/>
        <pt x="541" y="563" on="0"/>
        <pt x="541" y="565" on="1"/>
        <pt x="541" y="566" on="0"/>
        <pt x="539" y="586" on="0"/>
        <pt x="537" y="608" on="0"/>
        <pt x="535" y="627" on="0"/>
        <pt x="535" y="628" on="1"/>
        <pt x="534" y="633" on="0"/>
        <pt x="531" y="641" on="0"/>
        <pt x="522" y="647" on="0"/>
        <pt x="504" y="650" on="0"/>
        <pt x="488" y="650" on="1"/>
        <pt x="477" y="650" on="0"/>
        <pt x="460" y="653" on="0"/>
        <pt x="460" y="664" on="1"/>
        <pt x="460" y="678" on="0"/>
        <pt x="477" y="683" on="0"/>
        <pt x="480" y="683" on="1"/>
        <pt x="483" y="683" on="0"/>
        <pt x="492" y="682" on="0"/>
        <pt x="515" y="681" on="0"/>
        <pt x="555" y="680" on="0"/>
        <pt x="588" y="680" on="1"/>
        <pt x="648" y="680" on="1"/>
        <pt x="652" y="680" on="0"/>
        <pt x="668" y="681" on="0"/>
        <pt x="685" y="682" on="0"/>
        <pt x="701" y="683" on="0"/>
        <pt x="705" y="683" on="1"/>
        <pt x="721" y="683" on="0"/>
        <pt x="721" y="669" on="1"/>
        <pt x="721" y="655" on="0"/>
        <pt x="705" y="650" on="0"/>
        <pt x="694" y="650" on="1"/>
        <pt x="657" y="650" on="0"/>
        <pt x="626" y="630" on="0"/>
        <pt x="626" y="619" on="1"/>
        <pt x="626" y="617" on="0"/>
        <pt x="627" y="609" on="0"/>
        <pt x="628" y="607" on="1"/>
        <pt x="675" y="110" on="1"/>
        <pt x="952" y="576" on="1"/>
        <pt x="956" y="582" on="0"/>
        <pt x="967" y="604" on="0"/>
        <pt x="967" y="614" on="1"/>
        <pt x="967" y="633" on="0"/>
        <pt x="935" y="649" on="0"/>
        <pt x="914" y="650" on="1"/>
        <pt x="912" y="650" on="0"/>
        <pt x="897" y="654" on="0"/>
        <pt x="897" y="664" on="1"/>
        <pt x="897" y="670" on="0"/>
        <pt x="904" y="683" on="0"/>
        <pt x="916" y="683" on="1"/>
        <pt x="920" y="683" on="0"/>
        <pt x="966" y="680" on="0"/>
        <pt x="1016" y="680" on="1"/>
        <pt x="1046" y="680" on="0"/>
        <pt x="1073" y="681" on="0"/>
        <pt x="1085" y="682" on="0"/>
        <pt x="1090" y="683" on="0"/>
        <pt x="1096" y="683" on="1"/>
        <pt x="1102" y="683" on="0"/>
        <pt x="1110" y="674" on="0"/>
        <pt x="1110" y="669" on="1"/>
        <pt x="1110" y="656" on="0"/>
        <pt x="1096" y="651" on="0"/>
        <pt x="1089" y="650" on="1"/>
        <pt x="1077" y="649" on="0"/>
        <pt x="1051" y="643" on="0"/>
        <pt x="1024" y="625" on="0"/>
        <pt x="994" y="591" on="0"/>
        <pt x="977" y="563" on="1"/>
      </contour>
    </TTGlyph>
    <TTGlyph name="X" xMin="32" yMin="0" xMax="889" yMax="683">
      <contour>
        <pt x="676" y="60" on="1"/>
        <pt x="679" y="54" on="0"/>
        <pt x="685" y="45" on="0"/>
        <pt x="699" y="37" on="0"/>
        <pt x="723" y="33" on="0"/>
        <pt x="743" y="33" on="1"/>
        <pt x="754" y="33" on="0"/>
        <pt x="771" y="30" on="0"/>
        <pt x="771" y="19" on="1"/>
        <pt x="771" y="5" on="0"/>
        <pt x="755" y="0" on="0"/>
        <pt x="752" y="0" on="1"/>
        <pt x="749" y="0" on="0"/>
        <pt x="738" y="1" on="0"/>
        <pt x="714" y="2" on="0"/>
        <pt x="672" y="3" on="0"/>
        <pt x="637" y="3" on="1"/>
        <pt x="573" y="3" on="1"/>
        <pt x="569" y="3" on="0"/>
        <pt x="553" y="2" on="0"/>
        <pt x="536" y="1" on="0"/>
        <pt x="520" y="0" on="0"/>
        <pt x="516" y="0" on="1"/>
        <pt x="504" y="0" on="0"/>
        <pt x="499" y="13" on="0"/>
        <pt x="499" y="14" on="1"/>
        <pt x="499" y="28" on="0"/>
        <pt x="514" y="33" on="0"/>
        <pt x="519" y="33" on="1"/>
        <pt x="544" y="35" on="0"/>
        <pt x="573" y="54" on="0"/>
        <pt x="573" y="61" on="1"/>
        <pt x="573" y="62" on="0"/>
        <pt x="572" y="65" on="0"/>
        <pt x="568" y="73" on="1"/>
        <pt x="453" y="312" on="1"/>
        <pt x="444" y="304" on="0"/>
        <pt x="417" y="276" on="0"/>
        <pt x="387" y="246" on="0"/>
        <pt x="360" y="218" on="0"/>
        <pt x="351" y="209" on="1"/>
        <pt x="338" y="196" on="0"/>
        <pt x="306" y="165" on="0"/>
        <pt x="277" y="135" on="0"/>
        <pt x="252" y="110" on="0"/>
        <pt x="246" y="103" on="1"/>
        <pt x="235" y="92" on="0"/>
        <pt x="219" y="71" on="0"/>
        <pt x="219" y="59" on="1"/>
        <pt x="219" y="45" on="0"/>
        <pt x="238" y="34" on="0"/>
        <pt x="252" y="33" on="1"/>
        <pt x="263" y="32" on="0"/>
        <pt x="268" y="21" on="0"/>
        <pt x="268" y="19" on="1"/>
        <pt x="268" y="5" on="0"/>
        <pt x="252" y="0" on="0"/>
        <pt x="248" y="0" on="1"/>
        <pt x="245" y="0" on="0"/>
        <pt x="195" y="3" on="0"/>
        <pt x="141" y="3" on="1"/>
        <pt x="113" y="3" on="0"/>
        <pt x="78" y="2" on="0"/>
        <pt x="58" y="1" on="0"/>
        <pt x="50" y="0" on="0"/>
        <pt x="47" y="0" on="1"/>
        <pt x="39" y="0" on="0"/>
        <pt x="32" y="9" on="0"/>
        <pt x="32" y="14" on="1"/>
        <pt x="32" y="28" on="0"/>
        <pt x="47" y="32" on="0"/>
        <pt x="56" y="33" on="1"/>
        <pt x="109" y="36" on="0"/>
        <pt x="189" y="87" on="0"/>
        <pt x="234" y="132" on="1"/>
        <pt x="439" y="341" on="1"/>
        <pt x="306" y="621" on="1"/>
        <pt x="303" y="628" on="0"/>
        <pt x="295" y="639" on="0"/>
        <pt x="280" y="646" on="0"/>
        <pt x="257" y="650" on="0"/>
        <pt x="238" y="650" on="1"/>
        <pt x="226" y="650" on="0"/>
        <pt x="209" y="653" on="0"/>
        <pt x="209" y="664" on="1"/>
        <pt x="209" y="678" on="0"/>
        <pt x="226" y="683" on="0"/>
        <pt x="229" y="683" on="1"/>
        <pt x="232" y="683" on="0"/>
        <pt x="243" y="682" on="0"/>
        <pt x="266" y="681" on="0"/>
        <pt x="308" y="680" on="0"/>
        <pt x="343" y="680" on="1"/>
        <pt x="359" y="680" on="0"/>
        <pt x="402" y="680" on="0"/>
        <pt x="407" y="681" on="1"/>
        <pt x="411" y="681" on="0"/>
        <pt x="427" y="682" on="0"/>
        <pt x="445" y="682" on="0"/>
        <pt x="461" y="683" on="0"/>
        <pt x="465" y="683" on="1"/>
        <pt x="481" y="683" on="0"/>
        <pt x="481" y="668" on="1"/>
        <pt x="481" y="655" on="0"/>
        <pt x="466" y="650" on="0"/>
        <pt x="462" y="650" on="1"/>
        <pt x="458" y="650" on="0"/>
        <pt x="443" y="648" on="0"/>
        <pt x="427" y="642" on="0"/>
        <pt x="411" y="631" on="0"/>
        <pt x="406" y="622" on="1"/>
        <pt x="508" y="410" on="1"/>
        <pt x="675" y="579" on="1"/>
        <pt x="683" y="586" on="0"/>
        <pt x="686" y="591" on="0"/>
        <pt x="688" y="593" on="1"/>
        <pt x="691" y="598" on="1"/>
        <pt x="697" y="604" on="0"/>
        <pt x="703" y="619" on="0"/>
        <pt x="703" y="624" on="1"/>
        <pt x="703" y="633" on="0"/>
        <pt x="694" y="643" on="0"/>
        <pt x="683" y="648" on="0"/>
        <pt x="672" y="650" on="0"/>
        <pt x="669" y="650" on="1"/>
        <pt x="658" y="651" on="0"/>
        <pt x="654" y="663" on="0"/>
        <pt x="654" y="664" on="1"/>
        <pt x="654" y="678" on="0"/>
        <pt x="671" y="683" on="0"/>
        <pt x="674" y="683" on="1"/>
        <pt x="678" y="683" on="0"/>
        <pt x="724" y="680" on="0"/>
        <pt x="781" y="680" on="1"/>
        <pt x="810" y="680" on="0"/>
        <pt x="844" y="681" on="0"/>
        <pt x="863" y="682" on="0"/>
        <pt x="871" y="683" on="0"/>
        <pt x="875" y="683" on="1"/>
        <pt x="879" y="683" on="0"/>
        <pt x="889" y="676" on="0"/>
        <pt x="889" y="669" on="1"/>
        <pt x="889" y="659" on="0"/>
        <pt x="880" y="651" on="0"/>
        <pt x="875" y="650" on="1"/>
        <pt x="848" y="649" on="0"/>
        <pt x="810" y="640" on="0"/>
        <pt x="779" y="627" on="0"/>
        <pt x="752" y="608" on="0"/>
        <pt x="736" y="596" on="1"/>
        <pt x="730" y="591" on="0"/>
        <pt x="700" y="563" on="0"/>
        <pt x="661" y="523" on="0"/>
        <pt x="615" y="477" on="0"/>
        <pt x="572" y="433" on="0"/>
        <pt x="534" y="394" on="0"/>
        <pt x="522" y="382" on="1"/>
      </contour>
    </TTGlyph>
    <TTGlyph name="Xi" xMin="57" yMin="0" xMax="813" yMax="676">
      <contour>
        <pt x="221" y="655" on="1"/>
        <pt x="226" y="671" on="0"/>
        <pt x="238" y="676" on="0"/>
        <pt x="255" y="676" on="1"/>
        <pt x="783" y="676" on="1"/>
        <pt x="797" y="676" on="0"/>
        <pt x="813" y="673" on="0"/>
        <pt x="813" y="662" on="1"/>
        <pt x="813" y="660" on="0"/>
        <pt x="813" y="654" on="0"/>
        <pt x="811" y="646" on="1"/>
        <pt x="792" y="543" on="1"/>
        <pt x="790" y="531" on="0"/>
        <pt x="785" y="519" on="0"/>
        <pt x="775" y="519" on="1"/>
        <pt x="764" y="519" on="0"/>
        <pt x="760" y="532" on="0"/>
        <pt x="760" y="533" on="1"/>
        <pt x="760" y="537" on="0"/>
        <pt x="762" y="549" on="0"/>
        <pt x="762" y="553" on="1"/>
        <pt x="766" y="570" on="0"/>
        <pt x="767" y="581" on="0"/>
        <pt x="767" y="590" on="1"/>
        <pt x="767" y="598" on="0"/>
        <pt x="764" y="601" on="0"/>
        <pt x="759" y="602" on="1"/>
        <pt x="748" y="604" on="0"/>
        <pt x="712" y="605" on="0"/>
        <pt x="696" y="605" on="1"/>
        <pt x="320" y="605" on="1"/>
        <pt x="316" y="605" on="0"/>
        <pt x="293" y="605" on="0"/>
        <pt x="268" y="604" on="0"/>
        <pt x="247" y="602" on="0"/>
        <pt x="244" y="600" on="1"/>
        <pt x="241" y="598" on="0"/>
        <pt x="233" y="584" on="0"/>
        <pt x="226" y="567" on="0"/>
        <pt x="221" y="551" on="0"/>
        <pt x="220" y="547" on="1"/>
        <pt x="214" y="530" on="0"/>
        <pt x="207" y="519" on="0"/>
        <pt x="199" y="519" on="1"/>
        <pt x="188" y="519" on="0"/>
        <pt x="184" y="532" on="0"/>
        <pt x="184" y="533" on="1"/>
        <pt x="184" y="534" on="0"/>
        <pt x="185" y="539" on="0"/>
        <pt x="187" y="547" on="1"/>
      </contour>
      <contour>
        <pt x="87" y="0" on="1"/>
        <pt x="73" y="0" on="0"/>
        <pt x="57" y="4" on="0"/>
        <pt x="57" y="15" on="1"/>
        <pt x="57" y="20" on="0"/>
        <pt x="63" y="56" on="0"/>
        <pt x="72" y="99" on="0"/>
        <pt x="80" y="139" on="0"/>
        <pt x="81" y="146" on="1"/>
        <pt x="83" y="157" on="0"/>
        <pt x="88" y="168" on="0"/>
        <pt x="98" y="168" on="1"/>
        <pt x="109" y="168" on="0"/>
        <pt x="113" y="155" on="0"/>
        <pt x="113" y="154" on="1"/>
        <pt x="113" y="149" on="0"/>
        <pt x="111" y="139" on="1"/>
        <pt x="110" y="134" on="0"/>
        <pt x="104" y="97" on="0"/>
        <pt x="104" y="86" on="1"/>
        <pt x="104" y="78" on="0"/>
        <pt x="107" y="75" on="0"/>
        <pt x="115" y="74" on="1"/>
        <pt x="120" y="73" on="0"/>
        <pt x="137" y="72" on="0"/>
        <pt x="155" y="71" on="0"/>
        <pt x="172" y="71" on="0"/>
        <pt x="178" y="71" on="1"/>
        <pt x="557" y="71" on="1"/>
        <pt x="559" y="71" on="0"/>
        <pt x="583" y="71" on="0"/>
        <pt x="611" y="73" on="0"/>
        <pt x="637" y="75" on="0"/>
        <pt x="640" y="78" on="1"/>
        <pt x="643" y="81" on="0"/>
        <pt x="650" y="97" on="0"/>
        <pt x="658" y="116" on="0"/>
        <pt x="665" y="137" on="0"/>
        <pt x="667" y="144" on="1"/>
        <pt x="672" y="158" on="0"/>
        <pt x="677" y="168" on="0"/>
        <pt x="686" y="168" on="1"/>
        <pt x="697" y="168" on="0"/>
        <pt x="701" y="156" on="0"/>
        <pt x="701" y="154" on="1"/>
        <pt x="701" y="152" on="0"/>
        <pt x="689" y="112" on="0"/>
        <pt x="674" y="63" on="0"/>
        <pt x="660" y="20" on="0"/>
        <pt x="658" y="14" on="1"/>
        <pt x="654" y="3" on="0"/>
        <pt x="644" y="0" on="0"/>
        <pt x="627" y="0" on="1"/>
      </contour>
      <contour>
        <pt x="632" y="288" on="1"/>
        <pt x="629" y="275" on="0"/>
        <pt x="623" y="266" on="0"/>
        <pt x="614" y="266" on="1"/>
        <pt x="606" y="266" on="0"/>
        <pt x="599" y="276" on="0"/>
        <pt x="599" y="280" on="1"/>
        <pt x="599" y="284" on="0"/>
        <pt x="605" y="311" on="0"/>
        <pt x="607" y="316" on="1"/>
        <pt x="257" y="316" on="1"/>
        <pt x="255" y="308" on="0"/>
        <pt x="254" y="302" on="0"/>
        <pt x="253" y="298" on="0"/>
        <pt x="252" y="292" on="0"/>
        <pt x="250" y="284" on="1"/>
        <pt x="248" y="277" on="0"/>
        <pt x="242" y="266" on="0"/>
        <pt x="232" y="266" on="1"/>
        <pt x="224" y="266" on="0"/>
        <pt x="217" y="276" on="0"/>
        <pt x="217" y="280" on="1"/>
        <pt x="217" y="281" on="0"/>
        <pt x="221" y="294" on="0"/>
        <pt x="221" y="296" on="1"/>
        <pt x="250" y="414" on="1"/>
        <pt x="252" y="425" on="0"/>
        <pt x="259" y="437" on="0"/>
        <pt x="268" y="437" on="1"/>
        <pt x="278" y="437" on="0"/>
        <pt x="283" y="426" on="0"/>
        <pt x="283" y="423" on="1"/>
        <pt x="283" y="418" on="0"/>
        <pt x="277" y="393" on="0"/>
        <pt x="275" y="387" on="1"/>
        <pt x="625" y="387" on="1"/>
        <pt x="628" y="399" on="0"/>
        <pt x="630" y="408" on="0"/>
        <pt x="633" y="418" on="1"/>
        <pt x="635" y="426" on="0"/>
        <pt x="641" y="437" on="0"/>
        <pt x="650" y="437" on="1"/>
        <pt x="660" y="437" on="0"/>
        <pt x="665" y="426" on="0"/>
        <pt x="665" y="423" on="1"/>
        <pt x="665" y="417" on="0"/>
        <pt x="663" y="409" on="1"/>
      </contour>
    </TTGlyph>
    <TTGlyph name="Y" xMin="41" yMin="0" xMax="806" yMax="683">
      <contour>
        <pt x="377" y="284" on="1"/>
        <pt x="370" y="276" on="0"/>
        <pt x="366" y="269" on="0"/>
        <pt x="364" y="259" on="1"/>
        <pt x="356" y="227" on="0"/>
        <pt x="342" y="172" on="0"/>
        <pt x="333" y="136" on="1"/>
        <pt x="330" y="125" on="0"/>
        <pt x="324" y="98" on="0"/>
        <pt x="318" y="72" on="0"/>
        <pt x="314" y="53" on="0"/>
        <pt x="314" y="50" on="1"/>
        <pt x="314" y="42" on="0"/>
        <pt x="320" y="37" on="0"/>
        <pt x="337" y="35" on="1"/>
        <pt x="349" y="33" on="0"/>
        <pt x="374" y="33" on="0"/>
        <pt x="375" y="33" on="1"/>
        <pt x="388" y="33" on="0"/>
        <pt x="405" y="30" on="0"/>
        <pt x="405" y="19" on="1"/>
        <pt x="405" y="5" on="0"/>
        <pt x="389" y="0" on="0"/>
        <pt x="384" y="0" on="1"/>
        <pt x="379" y="0" on="0"/>
        <pt x="363" y="1" on="0"/>
        <pt x="345" y="2" on="0"/>
        <pt x="328" y="3" on="0"/>
        <pt x="322" y="3" on="1"/>
        <pt x="195" y="3" on="1"/>
        <pt x="180" y="2" on="0"/>
        <pt x="147" y="0" on="0"/>
        <pt x="133" y="0" on="1"/>
        <pt x="123" y="0" on="0"/>
        <pt x="117" y="11" on="0"/>
        <pt x="117" y="14" on="1"/>
        <pt x="117" y="28" on="0"/>
        <pt x="133" y="33" on="0"/>
        <pt x="145" y="33" on="1"/>
        <pt x="174" y="33" on="0"/>
        <pt x="206" y="36" on="0"/>
        <pt x="223" y="48" on="0"/>
        <pt x="232" y="71" on="0"/>
        <pt x="237" y="91" on="1"/>
        <pt x="282" y="274" on="1"/>
        <pt x="135" y="620" on="1"/>
        <pt x="132" y="627" on="0"/>
        <pt x="126" y="638" on="0"/>
        <pt x="112" y="646" on="0"/>
        <pt x="88" y="650" on="0"/>
        <pt x="68" y="650" on="1"/>
        <pt x="57" y="650" on="0"/>
        <pt x="41" y="653" on="0"/>
        <pt x="41" y="664" on="1"/>
        <pt x="41" y="670" on="0"/>
        <pt x="48" y="683" on="0"/>
        <pt x="60" y="683" on="1"/>
        <pt x="63" y="683" on="0"/>
        <pt x="74" y="682" on="0"/>
        <pt x="98" y="681" on="0"/>
        <pt x="141" y="680" on="0"/>
        <pt x="175" y="680" on="1"/>
        <pt x="237" y="680" on="1"/>
        <pt x="243" y="680" on="0"/>
        <pt x="259" y="681" on="0"/>
        <pt x="277" y="682" on="0"/>
        <pt x="294" y="683" on="0"/>
        <pt x="299" y="683" on="1"/>
        <pt x="308" y="683" on="0"/>
        <pt x="315" y="673" on="0"/>
        <pt x="315" y="669" on="1"/>
        <pt x="315" y="655" on="0"/>
        <pt x="299" y="650" on="0"/>
        <pt x="291" y="650" on="1"/>
        <pt x="288" y="650" on="0"/>
        <pt x="269" y="649" on="0"/>
        <pt x="250" y="646" on="0"/>
        <pt x="235" y="638" on="0"/>
        <pt x="235" y="630" on="1"/>
        <pt x="235" y="627" on="0"/>
        <pt x="239" y="615" on="0"/>
        <pt x="241" y="612" on="1"/>
        <pt x="367" y="316" on="1"/>
        <pt x="611" y="579" on="1"/>
        <pt x="611" y="579" on="0"/>
        <pt x="621" y="590" on="0"/>
        <pt x="632" y="606" on="0"/>
        <pt x="642" y="624" on="0"/>
        <pt x="642" y="631" on="1"/>
        <pt x="642" y="636" on="0"/>
        <pt x="634" y="648" on="0"/>
        <pt x="611" y="650" on="1"/>
        <pt x="595" y="652" on="0"/>
        <pt x="595" y="664" on="1"/>
        <pt x="595" y="678" on="0"/>
        <pt x="611" y="683" on="0"/>
        <pt x="614" y="683" on="1"/>
        <pt x="619" y="683" on="0"/>
        <pt x="659" y="680" on="0"/>
        <pt x="709" y="680" on="1"/>
        <pt x="736" y="680" on="0"/>
        <pt x="766" y="681" on="0"/>
        <pt x="781" y="682" on="0"/>
        <pt x="788" y="683" on="0"/>
        <pt x="792" y="683" on="1"/>
        <pt x="797" y="683" on="0"/>
        <pt x="806" y="674" on="0"/>
        <pt x="806" y="669" on="1"/>
        <pt x="806" y="656" on="0"/>
        <pt x="792" y="651" on="0"/>
        <pt x="785" y="650" on="1"/>
        <pt x="743" y="647" on="0"/>
        <pt x="687" y="613" on="0"/>
        <pt x="659" y="587" on="1"/>
        <pt x="653" y="581" on="0"/>
        <pt x="640" y="569" on="0"/>
        <pt x="635" y="563" on="1"/>
      </contour>
    </TTGlyph>
    <TTGlyph name="Z" xMin="62" yMin="0" xMax="756" yMax="683">
      <contour>
        <pt x="174" y="36" on="1"/>
        <pt x="357" y="36" on="1"/>
        <pt x="416" y="36" on="0"/>
        <pt x="500" y="58" on="0"/>
        <pt x="560" y="105" on="0"/>
        <pt x="601" y="178" on="0"/>
        <pt x="618" y="229" on="1"/>
        <pt x="624" y="246" on="0"/>
        <pt x="626" y="254" on="0"/>
        <pt x="628" y="259" on="1"/>
        <pt x="629" y="261" on="0"/>
        <pt x="633" y="265" on="1"/>
        <pt x="634" y="266" on="0"/>
        <pt x="638" y="269" on="0"/>
        <pt x="643" y="269" on="1"/>
        <pt x="654" y="269" on="0"/>
        <pt x="658" y="256" on="0"/>
        <pt x="658" y="255" on="1"/>
        <pt x="658" y="254" on="0"/>
        <pt x="657" y="249" on="0"/>
        <pt x="654" y="239" on="1"/>
        <pt x="584" y="20" on="1"/>
        <pt x="579" y="6" on="0"/>
        <pt x="571" y="0" on="0"/>
        <pt x="551" y="0" on="1"/>
        <pt x="89" y="0" on="1"/>
        <pt x="75" y="0" on="0"/>
        <pt x="62" y="3" on="0"/>
        <pt x="62" y="11" on="1"/>
        <pt x="62" y="20" on="0"/>
        <pt x="70" y="31" on="0"/>
        <pt x="76" y="38" on="1"/>
        <pt x="647" y="650" on="1"/>
        <pt x="474" y="650" on="1"/>
        <pt x="428" y="650" on="0"/>
        <pt x="353" y="635" on="0"/>
        <pt x="292" y="597" on="0"/>
        <pt x="244" y="531" on="0"/>
        <pt x="226" y="480" on="1"/>
        <pt x="221" y="465" on="0"/>
        <pt x="215" y="456" on="0"/>
        <pt x="207" y="456" on="1"/>
        <pt x="196" y="456" on="0"/>
        <pt x="192" y="468" on="0"/>
        <pt x="192" y="470" on="1"/>
        <pt x="192" y="474" on="0"/>
        <pt x="194" y="482" on="0"/>
        <pt x="195" y="485" on="1"/>
        <pt x="251" y="663" on="1"/>
        <pt x="256" y="677" on="0"/>
        <pt x="264" y="683" on="0"/>
        <pt x="284" y="683" on="1"/>
        <pt x="729" y="683" on="1"/>
        <pt x="743" y="683" on="0"/>
        <pt x="756" y="680" on="0"/>
        <pt x="756" y="672" on="1"/>
        <pt x="756" y="663" on="0"/>
        <pt x="748" y="651" on="0"/>
        <pt x="742" y="645" on="1"/>
      </contour>
    </TTGlyph>
    <TTGlyph name="a" xMin="43" yMin="-10" xMax="533" yMax="441">
      <contour>
        <pt x="392" y="381" on="1"/>
        <pt x="396" y="404" on="0"/>
        <pt x="426" y="422" on="0"/>
        <pt x="437" y="422" on="1"/>
        <pt x="447" y="422" on="0"/>
        <pt x="469" y="408" on="0"/>
        <pt x="469" y="391" on="1"/>
        <pt x="469" y="389" on="0"/>
        <pt x="465" y="373" on="0"/>
        <pt x="460" y="352" on="0"/>
        <pt x="455" y="329" on="0"/>
        <pt x="453" y="320" on="1"/>
        <pt x="433" y="244" on="1"/>
        <pt x="432" y="237" on="0"/>
        <pt x="425" y="210" on="0"/>
        <pt x="418" y="180" on="0"/>
        <pt x="410" y="150" on="0"/>
        <pt x="408" y="141" on="1"/>
        <pt x="403" y="122" on="0"/>
        <pt x="393" y="78" on="0"/>
        <pt x="393" y="65" on="1"/>
        <pt x="393" y="44" on="0"/>
        <pt x="408" y="18" on="0"/>
        <pt x="425" y="18" on="1"/>
        <pt x="440" y="18" on="0"/>
        <pt x="462" y="36" on="0"/>
        <pt x="479" y="66" on="0"/>
        <pt x="492" y="104" on="0"/>
        <pt x="497" y="125" on="1"/>
        <pt x="502" y="144" on="0"/>
        <pt x="508" y="156" on="0"/>
        <pt x="517" y="156" on="1"/>
        <pt x="526" y="156" on="0"/>
        <pt x="533" y="148" on="0"/>
        <pt x="533" y="143" on="1"/>
        <pt x="533" y="142" on="0"/>
        <pt x="528" y="121" on="0"/>
        <pt x="519" y="91" on="0"/>
        <pt x="507" y="59" on="0"/>
        <pt x="499" y="45" on="1"/>
        <pt x="496" y="39" on="0"/>
        <pt x="484" y="20" on="0"/>
        <pt x="465" y="2" on="0"/>
        <pt x="439" y="-10" on="0"/>
        <pt x="422" y="-10" on="1"/>
        <pt x="418" y="-10" on="0"/>
        <pt x="391" y="-7" on="0"/>
        <pt x="360" y="6" on="0"/>
        <pt x="331" y="35" on="0"/>
        <pt x="324" y="61" on="1"/>
        <pt x="317" y="54" on="0"/>
        <pt x="291" y="29" on="0"/>
        <pt x="255" y="7" on="0"/>
        <pt x="211" y="-10" on="0"/>
        <pt x="187" y="-10" on="1"/>
        <pt x="158" y="-10" on="0"/>
        <pt x="106" y="12" on="0"/>
        <pt x="66" y="54" on="0"/>
        <pt x="43" y="115" on="0"/>
        <pt x="43" y="154" on="1"/>
        <pt x="43" y="210" on="0"/>
        <pt x="88" y="313" on="0"/>
        <pt x="159" y="393" on="0"/>
        <pt x="248" y="441" on="0"/>
        <pt x="293" y="441" on="1"/>
        <pt x="316" y="441" on="0"/>
        <pt x="350" y="427" on="0"/>
        <pt x="374" y="408" on="0"/>
        <pt x="389" y="387" on="0"/>
      </contour>
      <contour>
        <pt x="324" y="108" on="1"/>
        <pt x="328" y="124" on="0"/>
        <pt x="332" y="144" on="0"/>
        <pt x="337" y="161" on="0"/>
        <pt x="342" y="182" on="0"/>
        <pt x="347" y="200" on="1"/>
        <pt x="349" y="210" on="0"/>
        <pt x="360" y="251" on="0"/>
        <pt x="370" y="293" on="0"/>
        <pt x="378" y="327" on="0"/>
        <pt x="378" y="328" on="1"/>
        <pt x="378" y="333" on="0"/>
        <pt x="370" y="360" on="0"/>
        <pt x="351" y="390" on="0"/>
        <pt x="318" y="413" on="0"/>
        <pt x="294" y="413" on="1"/>
        <pt x="259" y="413" on="0"/>
        <pt x="192" y="356" on="0"/>
        <pt x="170" y="310" on="1"/>
        <pt x="162" y="294" on="0"/>
        <pt x="144" y="241" on="0"/>
        <pt x="130" y="184" on="0"/>
        <pt x="121" y="130" on="0"/>
        <pt x="121" y="112" on="1"/>
        <pt x="121" y="73" on="0"/>
        <pt x="155" y="18" on="0"/>
        <pt x="190" y="18" on="1"/>
        <pt x="214" y="18" on="0"/>
        <pt x="286" y="56" on="0"/>
      </contour>
    </TTGlyph>
    <TTGlyph name="alpha" xMin="44" yMin="-10" xMax="636" yMax="441">
      <contour>
        <pt x="510" y="140" on="1"/>
        <pt x="512" y="94" on="0"/>
        <pt x="519" y="45" on="0"/>
        <pt x="528" y="22" on="0"/>
        <pt x="539" y="18" on="0"/>
        <pt x="544" y="18" on="1"/>
        <pt x="546" y="18" on="0"/>
        <pt x="559" y="20" on="0"/>
        <pt x="576" y="29" on="0"/>
        <pt x="593" y="46" on="0"/>
        <pt x="599" y="62" on="1"/>
        <pt x="601" y="67" on="0"/>
        <pt x="607" y="72" on="0"/>
        <pt x="615" y="72" on="1"/>
        <pt x="617" y="72" on="0"/>
        <pt x="630" y="69" on="0"/>
        <pt x="630" y="60" on="1"/>
        <pt x="630" y="53" on="0"/>
        <pt x="618" y="29" on="0"/>
        <pt x="595" y="7" on="0"/>
        <pt x="561" y="-10" on="0"/>
        <pt x="540" y="-10" on="1"/>
        <pt x="533" y="-10" on="0"/>
        <pt x="507" y="-6" on="0"/>
        <pt x="478" y="11" on="0"/>
        <pt x="450" y="44" on="0"/>
        <pt x="442" y="74" on="1"/>
        <pt x="382" y="29" on="0"/>
        <pt x="272" y="-10" on="0"/>
        <pt x="219" y="-10" on="1"/>
        <pt x="179" y="-10" on="0"/>
        <pt x="115" y="16" on="0"/>
        <pt x="69" y="63" on="0"/>
        <pt x="44" y="126" on="0"/>
        <pt x="44" y="163" on="1"/>
        <pt x="44" y="216" on="0"/>
        <pt x="92" y="316" on="0"/>
        <pt x="170" y="394" on="0"/>
        <pt x="271" y="441" on="0"/>
        <pt x="324" y="441" on="1"/>
        <pt x="350" y="441" on="0"/>
        <pt x="413" y="424" on="0"/>
        <pt x="469" y="378" on="0"/>
        <pt x="507" y="295" on="0"/>
        <pt x="508" y="229" on="1"/>
        <pt x="508" y="217" on="0"/>
        <pt x="508" y="188" on="0"/>
        <pt x="510" y="188" on="1"/>
        <pt x="511" y="188" on="0"/>
        <pt x="532" y="216" on="0"/>
        <pt x="560" y="264" on="0"/>
        <pt x="591" y="330" on="0"/>
        <pt x="601" y="368" on="1"/>
        <pt x="606" y="384" on="0"/>
        <pt x="611" y="393" on="0"/>
        <pt x="621" y="393" on="1"/>
        <pt x="636" y="393" on="0"/>
        <pt x="636" y="380" on="1"/>
        <pt x="636" y="377" on="0"/>
        <pt x="623" y="330" on="0"/>
        <pt x="593" y="261" on="0"/>
        <pt x="545" y="178" on="0"/>
      </contour>
      <contour>
        <pt x="435" y="107" on="1"/>
        <pt x="433" y="129" on="0"/>
        <pt x="432" y="179" on="0"/>
        <pt x="431" y="233" on="0"/>
        <pt x="428" y="288" on="0"/>
        <pt x="422" y="313" on="1"/>
        <pt x="412" y="359" on="0"/>
        <pt x="365" y="413" on="0"/>
        <pt x="323" y="413" on="1"/>
        <pt x="292" y="413" on="0"/>
        <pt x="218" y="375" on="0"/>
        <pt x="188" y="333" on="1"/>
        <pt x="170" y="308" on="0"/>
        <pt x="146" y="247" on="0"/>
        <pt x="131" y="190" on="0"/>
        <pt x="125" y="141" on="0"/>
        <pt x="125" y="128" on="1"/>
        <pt x="125" y="68" on="0"/>
        <pt x="183" y="18" on="0"/>
        <pt x="222" y="18" on="1"/>
        <pt x="266" y="18" on="0"/>
        <pt x="381" y="59" on="0"/>
      </contour>
    </TTGlyph>
    <TTGlyph name="b" xMin="49" yMin="-10" xMax="440" yMax="694">
      <contour>
        <pt x="175" y="386" on="1"/>
        <pt x="183" y="393" on="0"/>
        <pt x="207" y="412" on="0"/>
        <pt x="238" y="429" on="0"/>
        <pt x="275" y="441" on="0"/>
        <pt x="296" y="441" on="1"/>
        <pt x="326" y="441" on="0"/>
        <pt x="379" y="418" on="0"/>
        <pt x="418" y="375" on="0"/>
        <pt x="440" y="314" on="0"/>
        <pt x="440" y="277" on="1"/>
        <pt x="440" y="223" on="0"/>
        <pt x="396" y="119" on="0"/>
        <pt x="325" y="39" on="0"/>
        <pt x="235" y="-10" on="0"/>
        <pt x="189" y="-10" on="1"/>
        <pt x="160" y="-10" on="0"/>
        <pt x="109" y="12" on="0"/>
        <pt x="71" y="53" on="0"/>
        <pt x="49" y="113" on="0"/>
        <pt x="49" y="152" on="1"/>
        <pt x="49" y="165" on="0"/>
        <pt x="51" y="192" on="0"/>
        <pt x="57" y="218" on="1"/>
        <pt x="144" y="566" on="1"/>
        <pt x="146" y="575" on="0"/>
        <pt x="152" y="597" on="0"/>
        <pt x="157" y="617" on="0"/>
        <pt x="160" y="633" on="0"/>
        <pt x="160" y="635" on="1"/>
        <pt x="160" y="638" on="0"/>
        <pt x="159" y="644" on="0"/>
        <pt x="150" y="648" on="0"/>
        <pt x="130" y="650" on="0"/>
        <pt x="112" y="650" on="1"/>
        <pt x="103" y="650" on="0"/>
        <pt x="86" y="653" on="0"/>
        <pt x="86" y="664" on="1"/>
        <pt x="86" y="678" on="0"/>
        <pt x="101" y="683" on="0"/>
        <pt x="118" y="685" on="1"/>
        <pt x="174" y="689" on="1"/>
        <pt x="191" y="691" on="0"/>
        <pt x="229" y="694" on="0"/>
        <pt x="232" y="694" on="1"/>
        <pt x="241" y="694" on="0"/>
        <pt x="248" y="684" on="0"/>
        <pt x="248" y="680" on="1"/>
        <pt x="248" y="679" on="0"/>
        <pt x="245" y="666" on="0"/>
        <pt x="244" y="664" on="1"/>
      </contour>
      <contour>
        <pt x="189" y="18" on="1"/>
        <pt x="207" y="18" on="0"/>
        <pt x="242" y="33" on="0"/>
        <pt x="273" y="60" on="0"/>
        <pt x="300" y="96" on="0"/>
        <pt x="310" y="116" on="1"/>
        <pt x="321" y="138" on="0"/>
        <pt x="340" y="197" on="0"/>
        <pt x="354" y="255" on="0"/>
        <pt x="362" y="305" on="0"/>
        <pt x="362" y="319" on="1"/>
        <pt x="362" y="336" on="0"/>
        <pt x="355" y="369" on="0"/>
        <pt x="338" y="396" on="0"/>
        <pt x="312" y="413" on="0"/>
        <pt x="293" y="413" on="1"/>
        <pt x="261" y="413" on="0"/>
        <pt x="198" y="372" on="0"/>
        <pt x="172" y="340" on="1"/>
        <pt x="168" y="334" on="0"/>
        <pt x="162" y="327" on="0"/>
        <pt x="159" y="320" on="0"/>
        <pt x="157" y="312" on="0"/>
        <pt x="155" y="305" on="1"/>
        <pt x="149" y="283" on="0"/>
        <pt x="138" y="241" on="0"/>
        <pt x="133" y="219" on="1"/>
        <pt x="124" y="183" on="0"/>
        <pt x="117" y="139" on="0"/>
        <pt x="117" y="119" on="1"/>
        <pt x="117" y="64" on="0"/>
        <pt x="162" y="18" on="0"/>
      </contour>
    </TTGlyph>
    <TTGlyph name="beta" xMin="30" yMin="-194" xMax="600" yMax="705">
      <contour>
        <pt x="600" y="569" on="1"/>
        <pt x="600" y="523" on="0"/>
        <pt x="553" y="443" on="0"/>
        <pt x="515" y="417" on="1"/>
        <pt x="511" y="414" on="0"/>
        <pt x="491" y="400" on="0"/>
        <pt x="486" y="399" on="1"/>
        <pt x="524" y="368" on="0"/>
        <pt x="561" y="298" on="0"/>
        <pt x="561" y="248" on="1"/>
        <pt x="561" y="188" on="0"/>
        <pt x="510" y="93" on="0"/>
        <pt x="427" y="27" on="0"/>
        <pt x="324" y="-9" on="0"/>
        <pt x="272" y="-9" on="1"/>
        <pt x="218" y="-9" on="0"/>
        <pt x="147" y="40" on="0"/>
        <pt x="130" y="81" on="1"/>
        <pt x="62" y="-187" on="1"/>
        <pt x="60" y="-192" on="0"/>
        <pt x="50" y="-194" on="0"/>
        <pt x="44" y="-194" on="1"/>
        <pt x="39" y="-194" on="0"/>
        <pt x="30" y="-187" on="0"/>
        <pt x="32" y="-182" on="1"/>
        <pt x="190" y="449" on="1"/>
        <pt x="201" y="490" on="0"/>
        <pt x="246" y="581" on="0"/>
        <pt x="311" y="656" on="0"/>
        <pt x="395" y="705" on="0"/>
        <pt x="443" y="705" on="1"/>
        <pt x="474" y="705" on="0"/>
        <pt x="531" y="688" on="0"/>
        <pt x="574" y="654" on="0"/>
        <pt x="600" y="603" on="0"/>
      </contour>
      <contour>
        <pt x="403" y="399" on="1"/>
        <pt x="390" y="403" on="0"/>
        <pt x="373" y="403" on="1"/>
        <pt x="359" y="403" on="0"/>
        <pt x="329" y="402" on="0"/>
        <pt x="315" y="398" on="1"/>
        <pt x="323" y="395" on="0"/>
        <pt x="340" y="394" on="0"/>
        <pt x="348" y="394" on="1"/>
        <pt x="362" y="394" on="0"/>
        <pt x="389" y="397" on="0"/>
      </contour>
      <contour>
        <pt x="537" y="588" on="1"/>
        <pt x="537" y="612" on="0"/>
        <pt x="521" y="646" on="0"/>
        <pt x="494" y="667" on="0"/>
        <pt x="458" y="677" on="0"/>
        <pt x="439" y="677" on="1"/>
        <pt x="397" y="677" on="0"/>
        <pt x="324" y="628" on="0"/>
        <pt x="267" y="557" on="0"/>
        <pt x="228" y="475" on="0"/>
        <pt x="220" y="442" on="1"/>
        <pt x="154" y="176" on="1"/>
        <pt x="152" y="168" on="0"/>
        <pt x="150" y="150" on="0"/>
        <pt x="150" y="140" on="1"/>
        <pt x="150" y="114" on="0"/>
        <pt x="168" y="69" on="0"/>
        <pt x="200" y="37" on="0"/>
        <pt x="243" y="19" on="0"/>
        <pt x="268" y="19" on="1"/>
        <pt x="321" y="19" on="0"/>
        <pt x="404" y="62" on="0"/>
        <pt x="461" y="133" on="0"/>
        <pt x="491" y="225" on="0"/>
        <pt x="491" y="274" on="1"/>
        <pt x="491" y="312" on="0"/>
        <pt x="469" y="362" on="0"/>
        <pt x="446" y="380" on="1"/>
        <pt x="422" y="371" on="0"/>
        <pt x="374" y="366" on="0"/>
        <pt x="349" y="366" on="1"/>
        <pt x="340" y="366" on="0"/>
        <pt x="316" y="367" on="0"/>
        <pt x="295" y="373" on="0"/>
        <pt x="280" y="384" on="0"/>
        <pt x="280" y="394" on="1"/>
        <pt x="280" y="409" on="0"/>
        <pt x="301" y="424" on="0"/>
        <pt x="329" y="430" on="0"/>
        <pt x="359" y="431" on="0"/>
        <pt x="369" y="431" on="1"/>
        <pt x="391" y="431" on="0"/>
        <pt x="427" y="423" on="0"/>
        <pt x="448" y="419" on="1"/>
        <pt x="453" y="420" on="0"/>
        <pt x="476" y="440" on="0"/>
        <pt x="480" y="444" on="1"/>
        <pt x="506" y="470" on="0"/>
        <pt x="537" y="551" on="0"/>
      </contour>
    </TTGlyph>
    <TTGlyph name="c" xMin="44" yMin="-10" xMax="461" yMax="441">
      <contour>
        <pt x="409" y="383" on="1"/>
        <pt x="399" y="394" on="0"/>
        <pt x="374" y="406" on="0"/>
        <pt x="350" y="412" on="0"/>
        <pt x="330" y="413" on="0"/>
        <pt x="325" y="413" on="1"/>
        <pt x="296" y="413" on="0"/>
        <pt x="225" y="381" on="0"/>
        <pt x="192" y="339" on="1"/>
        <pt x="174" y="316" on="0"/>
        <pt x="149" y="256" on="0"/>
        <pt x="133" y="196" on="0"/>
        <pt x="125" y="144" on="0"/>
        <pt x="125" y="127" on="1"/>
        <pt x="125" y="70" on="0"/>
        <pt x="181" y="18" on="0"/>
        <pt x="222" y="18" on="1"/>
        <pt x="229" y="18" on="0"/>
        <pt x="274" y="21" on="0"/>
        <pt x="334" y="38" on="0"/>
        <pt x="401" y="76" on="0"/>
        <pt x="431" y="111" on="1"/>
        <pt x="435" y="116" on="0"/>
        <pt x="440" y="120" on="0"/>
        <pt x="445" y="120" on="1"/>
        <pt x="450" y="120" on="0"/>
        <pt x="461" y="111" on="0"/>
        <pt x="461" y="104" on="1"/>
        <pt x="461" y="99" on="0"/>
        <pt x="430" y="62" on="0"/>
        <pt x="369" y="22" on="0"/>
        <pt x="279" y="-10" on="0"/>
        <pt x="220" y="-10" on="1"/>
        <pt x="178" y="-10" on="0"/>
        <pt x="113" y="17" on="0"/>
        <pt x="68" y="64" on="0"/>
        <pt x="44" y="127" on="0"/>
        <pt x="44" y="163" on="1"/>
        <pt x="44" y="216" on="0"/>
        <pt x="92" y="316" on="0"/>
        <pt x="170" y="394" on="0"/>
        <pt x="271" y="441" on="0"/>
        <pt x="324" y="441" on="1"/>
        <pt x="347" y="441" on="0"/>
        <pt x="392" y="431" on="0"/>
        <pt x="428" y="410" on="0"/>
        <pt x="450" y="378" on="0"/>
        <pt x="450" y="355" on="1"/>
        <pt x="450" y="332" on="0"/>
        <pt x="434" y="306" on="0"/>
        <pt x="414" y="293" on="0"/>
        <pt x="396" y="290" on="0"/>
        <pt x="394" y="290" on="1"/>
        <pt x="384" y="290" on="0"/>
        <pt x="355" y="305" on="0"/>
        <pt x="355" y="327" on="1"/>
        <pt x="355" y="342" on="0"/>
        <pt x="378" y="379" on="0"/>
      </contour>
    </TTGlyph>
    <TTGlyph name="chi" xMin="34" yMin="-204" xMax="625" yMax="441">
      <contour>
        <pt x="366" y="134" on="1"/>
        <pt x="386" y="78" on="0"/>
        <pt x="407" y="15" on="0"/>
        <pt x="421" y="-24" on="0"/>
        <pt x="432" y="-49" on="0"/>
        <pt x="441" y="-68" on="1"/>
        <pt x="446" y="-79" on="0"/>
        <pt x="464" y="-116" on="0"/>
        <pt x="485" y="-151" on="0"/>
        <pt x="509" y="-176" on="0"/>
        <pt x="520" y="-176" on="1"/>
        <pt x="537" y="-176" on="0"/>
        <pt x="568" y="-152" on="0"/>
        <pt x="574" y="-135" on="1"/>
        <pt x="576" y="-129" on="0"/>
        <pt x="582" y="-122" on="0"/>
        <pt x="590" y="-122" on="1"/>
        <pt x="605" y="-122" on="0"/>
        <pt x="605" y="-135" on="1"/>
        <pt x="605" y="-141" on="0"/>
        <pt x="594" y="-165" on="0"/>
        <pt x="571" y="-187" on="0"/>
        <pt x="536" y="-204" on="0"/>
        <pt x="513" y="-204" on="1"/>
        <pt x="490" y="-204" on="0"/>
        <pt x="452" y="-195" on="0"/>
        <pt x="440" y="-190" on="1"/>
        <pt x="426" y="-184" on="0"/>
        <pt x="402" y="-166" on="0"/>
        <pt x="372" y="-116" on="0"/>
        <pt x="333" y="-18" on="0"/>
        <pt x="304" y="69" on="1"/>
        <pt x="67" y="-182" on="1"/>
        <pt x="59" y="-191" on="0"/>
        <pt x="51" y="-194" on="0"/>
        <pt x="49" y="-194" on="1"/>
        <pt x="43" y="-194" on="0"/>
        <pt x="34" y="-186" on="0"/>
        <pt x="34" y="-179" on="1"/>
        <pt x="34" y="-174" on="0"/>
        <pt x="38" y="-168" on="0"/>
        <pt x="46" y="-160" on="1"/>
        <pt x="293" y="102" on="1"/>
        <pt x="288" y="117" on="0"/>
        <pt x="269" y="174" on="0"/>
        <pt x="244" y="243" on="0"/>
        <pt x="215" y="316" on="0"/>
        <pt x="184" y="375" on="0"/>
        <pt x="153" y="413" on="0"/>
        <pt x="139" y="413" on="1"/>
        <pt x="128" y="413" on="0"/>
        <pt x="94" y="395" on="0"/>
        <pt x="85" y="372" on="1"/>
        <pt x="83" y="366" on="0"/>
        <pt x="78" y="359" on="0"/>
        <pt x="69" y="359" on="1"/>
        <pt x="54" y="359" on="0"/>
        <pt x="54" y="372" on="1"/>
        <pt x="54" y="377" on="0"/>
        <pt x="65" y="400" on="0"/>
        <pt x="87" y="423" on="0"/>
        <pt x="122" y="441" on="0"/>
        <pt x="147" y="441" on="1"/>
        <pt x="182" y="441" on="0"/>
        <pt x="229" y="425" on="0"/>
        <pt x="257" y="402" on="0"/>
        <pt x="272" y="378" on="0"/>
        <pt x="276" y="370" on="1"/>
        <pt x="285" y="354" on="0"/>
        <pt x="296" y="331" on="0"/>
        <pt x="311" y="293" on="0"/>
        <pt x="335" y="227" on="0"/>
        <pt x="356" y="168" on="1"/>
        <pt x="593" y="419" on="1"/>
        <pt x="600" y="427" on="0"/>
        <pt x="606" y="431" on="0"/>
        <pt x="611" y="431" on="1"/>
        <pt x="616" y="431" on="0"/>
        <pt x="625" y="423" on="0"/>
        <pt x="625" y="416" on="1"/>
        <pt x="625" y="411" on="0"/>
        <pt x="618" y="402" on="0"/>
        <pt x="613" y="396" on="1"/>
      </contour>
    </TTGlyph>
    <TTGlyph name="comma" xMin="92" yMin="-193" xMax="215" yMax="111">
      <contour>
        <pt x="187" y="15" on="1"/>
        <pt x="187" y="14" on="0"/>
        <pt x="166" y="0" on="0"/>
        <pt x="148" y="0" on="1"/>
        <pt x="120" y="0" on="0"/>
        <pt x="92" y="35" on="0"/>
        <pt x="92" y="56" on="1"/>
        <pt x="92" y="76" on="0"/>
        <pt x="121" y="111" on="0"/>
        <pt x="147" y="111" on="1"/>
        <pt x="180" y="111" on="0"/>
        <pt x="215" y="51" on="0"/>
        <pt x="215" y="3" on="1"/>
        <pt x="215" y="-41" on="0"/>
        <pt x="189" y="-113" on="0"/>
        <pt x="155" y="-165" on="0"/>
        <pt x="125" y="-193" on="0"/>
        <pt x="120" y="-193" on="1"/>
        <pt x="115" y="-193" on="0"/>
        <pt x="105" y="-185" on="0"/>
        <pt x="105" y="-179" on="1"/>
        <pt x="105" y="-174" on="0"/>
        <pt x="111" y="-169" on="1"/>
        <pt x="134" y="-146" on="0"/>
        <pt x="164" y="-101" on="0"/>
        <pt x="181" y="-56" on="0"/>
        <pt x="187" y="-9" on="0"/>
      </contour>
    </TTGlyph>
    <TTGlyph name="d" xMin="43" yMin="-10" xMax="542" yMax="694">
      <contour>
        <pt x="399" y="108" on="1"/>
        <pt x="397" y="98" on="0"/>
        <pt x="393" y="79" on="0"/>
        <pt x="393" y="65" on="1"/>
        <pt x="393" y="44" on="0"/>
        <pt x="408" y="18" on="0"/>
        <pt x="425" y="18" on="1"/>
        <pt x="440" y="18" on="0"/>
        <pt x="462" y="36" on="0"/>
        <pt x="479" y="66" on="0"/>
        <pt x="492" y="104" on="0"/>
        <pt x="497" y="125" on="1"/>
        <pt x="502" y="144" on="0"/>
        <pt x="508" y="156" on="0"/>
        <pt x="517" y="156" on="1"/>
        <pt x="526" y="156" on="0"/>
        <pt x="533" y="148" on="0"/>
        <pt x="533" y="143" on="1"/>
        <pt x="533" y="142" on="0"/>
        <pt x="528" y="121" on="0"/>
        <pt x="519" y="91" on="0"/>
        <pt x="507" y="59" on="0"/>
        <pt x="499" y="45" on="1"/>
        <pt x="496" y="39" on="0"/>
        <pt x="484" y="20" on="0"/>
        <pt x="465" y="2" on="0"/>
        <pt x="439" y="-10" on="0"/>
        <pt x="422" y="-10" on="1"/>
        <pt x="418" y="-10" on="0"/>
        <pt x="391" y="-7" on="0"/>
        <pt x="360" y="6" on="0"/>
        <pt x="331" y="35" on="0"/>
        <pt x="324" y="61" on="1"/>
        <pt x="317" y="54" on="0"/>
        <pt x="291" y="29" on="0"/>
        <pt x="255" y="7" on="0"/>
        <pt x="211" y="-10" on="0"/>
        <pt x="187" y="-10" on="1"/>
        <pt x="158" y="-10" on="0"/>
        <pt x="106" y="12" on="0"/>
        <pt x="66" y="54" on="0"/>
        <pt x="43" y="115" on="0"/>
        <pt x="43" y="154" on="1"/>
        <pt x="43" y="210" on="0"/>
        <pt x="88" y="313" on="0"/>
        <pt x="159" y="393" on="0"/>
        <pt x="248" y="441" on="0"/>
        <pt x="293" y="441" on="1"/>
        <pt x="316" y="441" on="0"/>
        <pt x="350" y="427" on="0"/>
        <pt x="374" y="408" on="0"/>
        <pt x="389" y="387" on="0"/>
        <pt x="392" y="381" on="1"/>
        <pt x="441" y="576" on="1"/>
        <pt x="445" y="591" on="0"/>
        <pt x="454" y="630" on="0"/>
        <pt x="454" y="635" on="1"/>
        <pt x="454" y="638" on="0"/>
        <pt x="453" y="644" on="0"/>
        <pt x="444" y="648" on="0"/>
        <pt x="424" y="650" on="0"/>
        <pt x="406" y="650" on="1"/>
        <pt x="397" y="650" on="0"/>
        <pt x="380" y="653" on="0"/>
        <pt x="380" y="664" on="1"/>
        <pt x="380" y="678" on="0"/>
        <pt x="395" y="683" on="0"/>
        <pt x="412" y="685" on="1"/>
        <pt x="468" y="689" on="1"/>
        <pt x="485" y="691" on="0"/>
        <pt x="523" y="694" on="0"/>
        <pt x="526" y="694" on="1"/>
        <pt x="535" y="694" on="0"/>
        <pt x="542" y="684" on="0"/>
        <pt x="542" y="680" on="1"/>
        <pt x="542" y="679" on="0"/>
        <pt x="539" y="666" on="0"/>
        <pt x="538" y="664" on="1"/>
      </contour>
      <contour>
        <pt x="324" y="108" on="1"/>
        <pt x="328" y="124" on="0"/>
        <pt x="332" y="144" on="0"/>
        <pt x="337" y="161" on="0"/>
        <pt x="342" y="182" on="0"/>
        <pt x="347" y="200" on="1"/>
        <pt x="349" y="210" on="0"/>
        <pt x="360" y="251" on="0"/>
        <pt x="370" y="293" on="0"/>
        <pt x="378" y="327" on="0"/>
        <pt x="378" y="328" on="1"/>
        <pt x="378" y="333" on="0"/>
        <pt x="370" y="360" on="0"/>
        <pt x="351" y="390" on="0"/>
        <pt x="318" y="413" on="0"/>
        <pt x="294" y="413" on="1"/>
        <pt x="259" y="413" on="0"/>
        <pt x="192" y="356" on="0"/>
        <pt x="170" y="310" on="1"/>
        <pt x="162" y="294" on="0"/>
        <pt x="144" y="241" on="0"/>
        <pt x="130" y="184" on="0"/>
        <pt x="121" y="130" on="0"/>
        <pt x="121" y="112" on="1"/>
        <pt x="121" y="73" on="0"/>
        <pt x="155" y="18" on="0"/>
        <pt x="190" y="18" on="1"/>
        <pt x="214" y="18" on="0"/>
        <pt x="286" y="56" on="0"/>
      </contour>
    </TTGlyph>
    <TTGlyph name="delta" xMin="44" yMin="-12" xMax="472" yMax="714">
      <contour>
        <pt x="272" y="435" on="1"/>
        <pt x="245" y="483" on="0"/>
        <pt x="208" y="569" on="0"/>
        <pt x="208" y="608" on="1"/>
        <pt x="208" y="640" on="0"/>
        <pt x="232" y="681" on="0"/>
        <pt x="266" y="705" on="0"/>
        <pt x="306" y="714" on="0"/>
        <pt x="322" y="714" on="1"/>
        <pt x="323" y="714" on="0"/>
        <pt x="366" y="711" on="0"/>
        <pt x="409" y="702" on="1"/>
        <pt x="447" y="694" on="0"/>
        <pt x="472" y="682" on="0"/>
        <pt x="472" y="664" on="1"/>
        <pt x="472" y="651" on="0"/>
        <pt x="450" y="623" on="0"/>
        <pt x="431" y="623" on="1"/>
        <pt x="414" y="623" on="0"/>
        <pt x="377" y="646" on="1"/>
        <pt x="357" y="658" on="0"/>
        <pt x="320" y="676" on="0"/>
        <pt x="295" y="676" on="1"/>
        <pt x="270" y="676" on="0"/>
        <pt x="241" y="649" on="0"/>
        <pt x="241" y="632" on="1"/>
        <pt x="241" y="615" on="0"/>
        <pt x="264" y="570" on="0"/>
        <pt x="296" y="524" on="0"/>
        <pt x="332" y="481" on="0"/>
        <pt x="344" y="466" on="1"/>
        <pt x="357" y="451" on="0"/>
        <pt x="385" y="416" on="0"/>
        <pt x="408" y="371" on="0"/>
        <pt x="423" y="314" on="0"/>
        <pt x="423" y="278" on="1"/>
        <pt x="423" y="223" on="0"/>
        <pt x="391" y="119" on="0"/>
        <pt x="335" y="38" on="0"/>
        <pt x="259" y="-12" on="0"/>
        <pt x="215" y="-12" on="1"/>
        <pt x="182" y="-12" on="0"/>
        <pt x="121" y="11" on="0"/>
        <pt x="73" y="54" on="0"/>
        <pt x="44" y="119" on="0"/>
        <pt x="44" y="161" on="1"/>
        <pt x="44" y="199" on="0"/>
        <pt x="73" y="283" on="0"/>
        <pt x="130" y="359" on="0"/>
        <pt x="215" y="420" on="0"/>
      </contour>
      <contour>
        <pt x="288" y="408" on="1"/>
        <pt x="234" y="394" on="0"/>
        <pt x="166" y="319" on="0"/>
        <pt x="128" y="233" on="0"/>
        <pt x="114" y="154" on="0"/>
        <pt x="114" y="134" on="1"/>
        <pt x="114" y="100" on="0"/>
        <pt x="135" y="54" on="0"/>
        <pt x="165" y="27" on="0"/>
        <pt x="201" y="16" on="0"/>
        <pt x="216" y="16" on="1"/>
        <pt x="248" y="16" on="0"/>
        <pt x="296" y="63" on="0"/>
        <pt x="329" y="131" on="0"/>
        <pt x="346" y="208" on="0"/>
        <pt x="346" y="237" on="1"/>
        <pt x="346" y="284" on="0"/>
        <pt x="314" y="363" on="0"/>
      </contour>
    </TTGlyph>
    <TTGlyph name="dotlessi" xMin="30" yMin="-10" xMax="317" yMax="441">
      <contour>
        <pt x="179" y="326" on="1"/>
        <pt x="187" y="349" on="0"/>
        <pt x="190" y="372" on="0"/>
        <pt x="190" y="380" on="1"/>
        <pt x="190" y="401" on="0"/>
        <pt x="177" y="413" on="0"/>
        <pt x="166" y="413" on="1"/>
        <pt x="155" y="413" on="0"/>
        <pt x="127" y="402" on="0"/>
        <pt x="99" y="374" on="0"/>
        <pt x="73" y="327" on="0"/>
        <pt x="62" y="291" on="1"/>
        <pt x="60" y="283" on="0"/>
        <pt x="55" y="275" on="0"/>
        <pt x="45" y="275" on="1"/>
        <pt x="39" y="275" on="0"/>
        <pt x="30" y="281" on="0"/>
        <pt x="30" y="288" on="1"/>
        <pt x="30" y="293" on="0"/>
        <pt x="46" y="342" on="0"/>
        <pt x="80" y="397" on="0"/>
        <pt x="133" y="441" on="0"/>
        <pt x="169" y="441" on="1"/>
        <pt x="207" y="441" on="0"/>
        <pt x="260" y="394" on="0"/>
        <pt x="260" y="356" on="1"/>
        <pt x="260" y="343" on="0"/>
        <pt x="246" y="302" on="0"/>
        <pt x="239" y="285" on="1"/>
        <pt x="208" y="204" on="1"/>
        <pt x="200" y="184" on="0"/>
        <pt x="185" y="143" on="0"/>
        <pt x="177" y="123" on="1"/>
        <pt x="167" y="100" on="0"/>
        <pt x="157" y="68" on="0"/>
        <pt x="157" y="50" on="1"/>
        <pt x="157" y="30" on="0"/>
        <pt x="172" y="18" on="0"/>
        <pt x="181" y="18" on="1"/>
        <pt x="211" y="18" on="0"/>
        <pt x="268" y="79" on="0"/>
        <pt x="285" y="139" on="1"/>
        <pt x="287" y="147" on="0"/>
        <pt x="293" y="156" on="0"/>
        <pt x="302" y="156" on="1"/>
        <pt x="307" y="156" on="0"/>
        <pt x="317" y="151" on="0"/>
        <pt x="317" y="143" on="1"/>
        <pt x="317" y="138" on="0"/>
        <pt x="301" y="89" on="0"/>
        <pt x="268" y="34" on="0"/>
        <pt x="215" y="-10" on="0"/>
        <pt x="179" y="-10" on="1"/>
        <pt x="139" y="-10" on="0"/>
        <pt x="88" y="38" on="0"/>
        <pt x="88" y="75" on="1"/>
        <pt x="88" y="88" on="0"/>
        <pt x="94" y="108" on="0"/>
        <pt x="98" y="119" on="1"/>
      </contour>
    </TTGlyph>
    <TTGlyph name="e" xMin="49" yMin="-10" xMax="461" yMax="441">
      <contour>
        <pt x="141" y="228" on="1"/>
        <pt x="138" y="215" on="0"/>
        <pt x="128" y="159" on="0"/>
        <pt x="128" y="136" on="1"/>
        <pt x="128" y="115" on="0"/>
        <pt x="137" y="73" on="0"/>
        <pt x="159" y="39" on="0"/>
        <pt x="196" y="18" on="0"/>
        <pt x="223" y="18" on="1"/>
        <pt x="229" y="18" on="0"/>
        <pt x="274" y="21" on="0"/>
        <pt x="334" y="38" on="0"/>
        <pt x="401" y="76" on="0"/>
        <pt x="431" y="111" on="1"/>
        <pt x="435" y="116" on="0"/>
        <pt x="440" y="120" on="0"/>
        <pt x="445" y="120" on="1"/>
        <pt x="450" y="120" on="0"/>
        <pt x="461" y="111" on="0"/>
        <pt x="461" y="104" on="1"/>
        <pt x="461" y="99" on="0"/>
        <pt x="430" y="62" on="0"/>
        <pt x="369" y="22" on="0"/>
        <pt x="280" y="-10" on="0"/>
        <pt x="221" y="-10" on="1"/>
        <pt x="180" y="-10" on="0"/>
        <pt x="116" y="19" on="0"/>
        <pt x="72" y="69" on="0"/>
        <pt x="49" y="137" on="0"/>
        <pt x="49" y="175" on="1"/>
        <pt x="49" y="241" on="0"/>
        <pt x="103" y="341" on="0"/>
        <pt x="184" y="408" on="0"/>
        <pt x="281" y="441" on="0"/>
        <pt x="323" y="441" on="1"/>
        <pt x="372" y="441" on="0"/>
        <pt x="441" y="395" on="0"/>
        <pt x="441" y="353" on="1"/>
        <pt x="441" y="311" on="0"/>
        <pt x="389" y="262" on="0"/>
        <pt x="314" y="236" on="0"/>
        <pt x="232" y="228" on="0"/>
        <pt x="201" y="228" on="1"/>
      </contour>
      <contour>
        <pt x="195" y="256" on="1"/>
        <pt x="206" y="256" on="0"/>
        <pt x="244" y="257" on="0"/>
        <pt x="290" y="262" on="0"/>
        <pt x="338" y="274" on="0"/>
        <pt x="376" y="296" on="0"/>
        <pt x="401" y="329" on="0"/>
        <pt x="401" y="353" on="1"/>
        <pt x="401" y="383" on="0"/>
        <pt x="353" y="413" on="0"/>
        <pt x="323" y="413" on="1"/>
        <pt x="304" y="413" on="0"/>
        <pt x="254" y="398" on="0"/>
        <pt x="204" y="362" on="0"/>
        <pt x="161" y="302" on="0"/>
        <pt x="149" y="256" on="1"/>
      </contour>
    </TTGlyph>
    <TTGlyph name="eightoldstyle" xMin="44" yMin="-21" xMax="486" yMax="665">
      <contour>
        <pt x="330" y="360" on="1"/>
        <pt x="334" y="357" on="0"/>
        <pt x="348" y="349" on="0"/>
        <pt x="363" y="340" on="0"/>
        <pt x="378" y="332" on="0"/>
        <pt x="382" y="329" on="1"/>
        <pt x="392" y="323" on="0"/>
        <pt x="427" y="298" on="0"/>
        <pt x="461" y="259" on="0"/>
        <pt x="486" y="204" on="0"/>
        <pt x="486" y="168" on="1"/>
        <pt x="486" y="127" on="0"/>
        <pt x="450" y="57" on="0"/>
        <pt x="389" y="7" on="0"/>
        <pt x="308" y="-21" on="0"/>
        <pt x="264" y="-21" on="1"/>
        <pt x="224" y="-21" on="0"/>
        <pt x="145" y="2" on="0"/>
        <pt x="82" y="46" on="0"/>
        <pt x="44" y="111" on="0"/>
        <pt x="44" y="152" on="1"/>
        <pt x="44" y="189" on="0"/>
        <pt x="73" y="248" on="0"/>
        <pt x="118" y="293" on="0"/>
        <pt x="171" y="326" on="0"/>
        <pt x="196" y="338" on="1"/>
        <pt x="172" y="351" on="0"/>
        <pt x="127" y="382" on="0"/>
        <pt x="94" y="420" on="0"/>
        <pt x="74" y="468" on="0"/>
        <pt x="74" y="499" on="1"/>
        <pt x="74" y="534" on="0"/>
        <pt x="104" y="595" on="0"/>
        <pt x="157" y="640" on="0"/>
        <pt x="227" y="665" on="0"/>
        <pt x="266" y="665" on="1"/>
        <pt x="301" y="665" on="0"/>
        <pt x="369" y="645" on="0"/>
        <pt x="423" y="607" on="0"/>
        <pt x="456" y="552" on="0"/>
        <pt x="456" y="516" on="1"/>
        <pt x="456" y="486" on="0"/>
        <pt x="432" y="437" on="0"/>
        <pt x="396" y="400" on="0"/>
        <pt x="351" y="371" on="0"/>
      </contour>
      <contour>
        <pt x="301" y="378" on="1"/>
        <pt x="347" y="404" on="0"/>
        <pt x="406" y="471" on="0"/>
        <pt x="406" y="516" on="1"/>
        <pt x="406" y="543" on="0"/>
        <pt x="384" y="588" on="0"/>
        <pt x="345" y="621" on="0"/>
        <pt x="293" y="639" on="0"/>
        <pt x="264" y="639" on="1"/>
        <pt x="238" y="639" on="0"/>
        <pt x="187" y="625" on="0"/>
        <pt x="148" y="598" on="0"/>
        <pt x="124" y="559" on="0"/>
        <pt x="124" y="535" on="1"/>
        <pt x="124" y="517" on="0"/>
        <pt x="138" y="488" on="0"/>
        <pt x="157" y="467" on="0"/>
        <pt x="179" y="452" on="0"/>
        <pt x="188" y="447" on="1"/>
        <pt x="216" y="430" on="0"/>
        <pt x="272" y="395" on="0"/>
      </contour>
      <contour>
        <pt x="228" y="319" on="1"/>
        <pt x="169" y="292" on="0"/>
        <pt x="100" y="205" on="0"/>
        <pt x="100" y="152" on="1"/>
        <pt x="100" y="121" on="0"/>
        <pt x="126" y="69" on="0"/>
        <pt x="171" y="31" on="0"/>
        <pt x="232" y="9" on="0"/>
        <pt x="266" y="9" on="1"/>
        <pt x="298" y="9" on="0"/>
        <pt x="358" y="27" on="0"/>
        <pt x="403" y="60" on="0"/>
        <pt x="430" y="106" on="0"/>
        <pt x="430" y="134" on="1"/>
        <pt x="430" y="172" on="0"/>
        <pt x="387" y="221" on="0"/>
        <pt x="361" y="237" on="1"/>
      </contour>
    </TTGlyph>
    <TTGlyph name="epsilon" xMin="29" yMin="-21" xMax="450" yMax="452">
      <contour>
        <pt x="146" y="224" on="1"/>
        <pt x="99" y="198" on="0"/>
        <pt x="61" y="137" on="0"/>
        <pt x="61" y="114" on="1"/>
        <pt x="61" y="83" on="0"/>
        <pt x="102" y="50" on="0"/>
        <pt x="155" y="35" on="0"/>
        <pt x="205" y="32" on="0"/>
        <pt x="215" y="32" on="1"/>
        <pt x="262" y="32" on="0"/>
        <pt x="319" y="43" on="0"/>
        <pt x="353" y="59" on="0"/>
        <pt x="369" y="79" on="0"/>
        <pt x="375" y="88" on="1"/>
        <pt x="378" y="93" on="0"/>
        <pt x="384" y="98" on="0"/>
        <pt x="389" y="98" on="1"/>
        <pt x="396" y="98" on="0"/>
        <pt x="402" y="89" on="0"/>
        <pt x="402" y="84" on="1"/>
        <pt x="402" y="79" on="0"/>
        <pt x="381" y="45" on="0"/>
        <pt x="334" y="8" on="0"/>
        <pt x="258" y="-21" on="0"/>
        <pt x="204" y="-21" on="1"/>
        <pt x="162" y="-21" on="0"/>
        <pt x="97" y="0" on="0"/>
        <pt x="52" y="36" on="0"/>
        <pt x="29" y="83" on="0"/>
        <pt x="29" y="108" on="1"/>
        <pt x="29" y="120" on="0"/>
        <pt x="37" y="152" on="0"/>
        <pt x="56" y="187" on="0"/>
        <pt x="90" y="223" on="0"/>
        <pt x="116" y="240" on="1"/>
        <pt x="112" y="243" on="0"/>
        <pt x="99" y="254" on="0"/>
        <pt x="87" y="271" on="0"/>
        <pt x="78" y="294" on="0"/>
        <pt x="78" y="308" on="1"/>
        <pt x="78" y="337" on="0"/>
        <pt x="118" y="389" on="0"/>
        <pt x="183" y="429" on="0"/>
        <pt x="267" y="452" on="0"/>
        <pt x="312" y="452" on="1"/>
        <pt x="323" y="452" on="0"/>
        <pt x="368" y="448" on="0"/>
        <pt x="398" y="435" on="1"/>
        <pt x="403" y="433" on="0"/>
        <pt x="421" y="425" on="0"/>
        <pt x="438" y="414" on="0"/>
        <pt x="450" y="400" on="0"/>
        <pt x="450" y="392" on="1"/>
        <pt x="450" y="381" on="0"/>
        <pt x="431" y="362" on="0"/>
        <pt x="420" y="362" on="1"/>
        <pt x="414" y="362" on="0"/>
        <pt x="408" y="366" on="0"/>
        <pt x="400" y="371" on="1"/>
        <pt x="373" y="388" on="0"/>
        <pt x="325" y="399" on="0"/>
        <pt x="302" y="399" on="1"/>
        <pt x="265" y="399" on="0"/>
        <pt x="195" y="386" on="0"/>
        <pt x="141" y="362" on="0"/>
        <pt x="109" y="329" on="0"/>
        <pt x="109" y="309" on="1"/>
        <pt x="109" y="288" on="0"/>
        <pt x="137" y="260" on="0"/>
        <pt x="148" y="255" on="1"/>
        <pt x="164" y="262" on="0"/>
        <pt x="209" y="275" on="0"/>
        <pt x="248" y="275" on="1"/>
        <pt x="263" y="275" on="0"/>
        <pt x="290" y="273" on="0"/>
        <pt x="312" y="267" on="0"/>
        <pt x="325" y="255" on="0"/>
        <pt x="325" y="245" on="1"/>
        <pt x="325" y="232" on="0"/>
        <pt x="307" y="217" on="0"/>
        <pt x="280" y="210" on="0"/>
        <pt x="250" y="209" on="0"/>
        <pt x="238" y="209" on="1"/>
        <pt x="218" y="209" on="0"/>
        <pt x="172" y="213" on="0"/>
      </contour>
      <contour>
        <pt x="289" y="243" on="1"/>
        <pt x="279" y="245" on="0"/>
        <pt x="260" y="247" on="0"/>
        <pt x="246" y="247" on="1"/>
        <pt x="239" y="247" on="0"/>
        <pt x="209" y="245" on="0"/>
        <pt x="191" y="240" on="1"/>
        <pt x="202" y="238" on="0"/>
        <pt x="230" y="237" on="0"/>
        <pt x="238" y="237" on="1"/>
        <pt x="251" y="237" on="0"/>
        <pt x="266" y="237" on="0"/>
        <pt x="276" y="238" on="0"/>
        <pt x="283" y="240" on="0"/>
        <pt x="289" y="242" on="1"/>
      </contour>
    </TTGlyph>
    <TTGlyph name="eta" xMin="30" yMin="-215" xMax="529" yMax="441">
      <contour>
        <pt x="410" y="-170" on="1"/>
        <pt x="409" y="-175" on="0"/>
        <pt x="404" y="-190" on="0"/>
        <pt x="394" y="-204" on="0"/>
        <pt x="377" y="-215" on="0"/>
        <pt x="364" y="-215" on="1"/>
        <pt x="355" y="-215" on="0"/>
        <pt x="332" y="-203" on="0"/>
        <pt x="332" y="-184" on="1"/>
        <pt x="332" y="-182" on="0"/>
        <pt x="333" y="-172" on="0"/>
        <pt x="336" y="-161" on="1"/>
        <pt x="449" y="288" on="1"/>
        <pt x="449" y="288" on="0"/>
        <pt x="452" y="301" on="0"/>
        <pt x="455" y="319" on="0"/>
        <pt x="457" y="338" on="0"/>
        <pt x="457" y="345" on="1"/>
        <pt x="457" y="380" on="0"/>
        <pt x="427" y="413" on="0"/>
        <pt x="400" y="413" on="1"/>
        <pt x="350" y="413" on="0"/>
        <pt x="278" y="357" on="0"/>
        <pt x="253" y="320" on="1"/>
        <pt x="244" y="308" on="0"/>
        <pt x="235" y="292" on="0"/>
        <pt x="228" y="276" on="0"/>
        <pt x="221" y="252" on="0"/>
        <pt x="216" y="232" on="1"/>
        <pt x="215" y="226" on="0"/>
        <pt x="210" y="208" on="0"/>
        <pt x="206" y="188" on="0"/>
        <pt x="201" y="170" on="0"/>
        <pt x="200" y="164" on="1"/>
        <pt x="177" y="75" on="1"/>
        <pt x="173" y="59" on="0"/>
        <pt x="163" y="19" on="0"/>
        <pt x="161" y="14" on="1"/>
        <pt x="156" y="5" on="0"/>
        <pt x="135" y="-10" on="0"/>
        <pt x="121" y="-10" on="1"/>
        <pt x="111" y="-10" on="0"/>
        <pt x="89" y="4" on="0"/>
        <pt x="89" y="21" on="1"/>
        <pt x="89" y="24" on="0"/>
        <pt x="96" y="54" on="0"/>
        <pt x="99" y="65" on="1"/>
        <pt x="136" y="215" on="1"/>
        <pt x="138" y="220" on="0"/>
        <pt x="144" y="245" on="0"/>
        <pt x="151" y="271" on="0"/>
        <pt x="156" y="293" on="0"/>
        <pt x="157" y="296" on="1"/>
        <pt x="163" y="321" on="0"/>
        <pt x="170" y="352" on="0"/>
        <pt x="170" y="366" on="1"/>
        <pt x="170" y="384" on="0"/>
        <pt x="157" y="413" on="0"/>
        <pt x="138" y="413" on="1"/>
        <pt x="123" y="413" on="0"/>
        <pt x="100" y="394" on="0"/>
        <pt x="83" y="363" on="0"/>
        <pt x="71" y="324" on="0"/>
        <pt x="66" y="305" on="1"/>
        <pt x="61" y="285" on="0"/>
        <pt x="55" y="275" on="0"/>
        <pt x="45" y="275" on="1"/>
        <pt x="39" y="275" on="0"/>
        <pt x="30" y="281" on="0"/>
        <pt x="30" y="288" on="1"/>
        <pt x="30" y="289" on="0"/>
        <pt x="34" y="308" on="0"/>
        <pt x="43" y="336" on="0"/>
        <pt x="55" y="370" on="0"/>
        <pt x="64" y="387" on="1"/>
        <pt x="76" y="410" on="0"/>
        <pt x="114" y="441" on="0"/>
        <pt x="141" y="441" on="1"/>
        <pt x="179" y="441" on="0"/>
        <pt x="238" y="396" on="0"/>
        <pt x="243" y="354" on="1"/>
        <pt x="254" y="368" on="0"/>
        <pt x="284" y="399" on="0"/>
        <pt x="325" y="425" on="0"/>
        <pt x="375" y="441" on="0"/>
        <pt x="405" y="441" on="1"/>
        <pt x="459" y="441" on="0"/>
        <pt x="529" y="387" on="0"/>
        <pt x="529" y="330" on="1"/>
        <pt x="529" y="313" on="0"/>
        <pt x="524" y="287" on="0"/>
        <pt x="521" y="276" on="1"/>
      </contour>
    </TTGlyph>
    <TTGlyph name="f" xMin="55" yMin="-204" xMax="574" yMax="704">
      <contour>
        <pt x="325" y="86" on="1"/>
        <pt x="324" y="82" on="0"/>
        <pt x="315" y="37" on="0"/>
        <pt x="299" y="-24" on="0"/>
        <pt x="278" y="-90" on="0"/>
        <pt x="264" y="-115" on="1"/>
        <pt x="259" y="-124" on="0"/>
        <pt x="239" y="-155" on="0"/>
        <pt x="209" y="-183" on="0"/>
        <pt x="171" y="-204" on="0"/>
        <pt x="148" y="-204" on="1"/>
        <pt x="110" y="-204" on="0"/>
        <pt x="55" y="-166" on="0"/>
        <pt x="55" y="-134" on="1"/>
        <pt x="55" y="-105" on="0"/>
        <pt x="91" y="-73" on="0"/>
        <pt x="111" y="-73" on="1"/>
        <pt x="128" y="-73" on="0"/>
        <pt x="151" y="-93" on="0"/>
        <pt x="151" y="-110" on="1"/>
        <pt x="151" y="-110" on="0"/>
        <pt x="150" y="-124" on="0"/>
        <pt x="141" y="-142" on="0"/>
        <pt x="122" y="-160" on="0"/>
        <pt x="105" y="-164" on="1"/>
        <pt x="119" y="-173" on="0"/>
        <pt x="146" y="-176" on="0"/>
        <pt x="148" y="-176" on="1"/>
        <pt x="168" y="-176" on="0"/>
        <pt x="195" y="-146" on="0"/>
        <pt x="214" y="-95" on="0"/>
        <pt x="228" y="-28" on="0"/>
        <pt x="235" y="10" on="1"/>
        <pt x="307" y="398" on="1"/>
        <pt x="236" y="398" on="1"/>
        <pt x="223" y="398" on="0"/>
        <pt x="206" y="401" on="0"/>
        <pt x="206" y="412" on="1"/>
        <pt x="206" y="426" on="0"/>
        <pt x="223" y="431" on="0"/>
        <pt x="238" y="431" on="1"/>
        <pt x="313" y="431" on="1"/>
        <pt x="323" y="484" on="0"/>
        <pt x="334" y="542" on="0"/>
        <pt x="341" y="573" on="0"/>
        <pt x="346" y="587" on="0"/>
        <pt x="349" y="596" on="1"/>
        <pt x="361" y="631" on="0"/>
        <pt x="395" y="673" on="0"/>
        <pt x="431" y="696" on="0"/>
        <pt x="465" y="704" on="0"/>
        <pt x="478" y="704" on="1"/>
        <pt x="496" y="704" on="0"/>
        <pt x="531" y="695" on="0"/>
        <pt x="558" y="677" on="0"/>
        <pt x="574" y="651" on="0"/>
        <pt x="574" y="633" on="1"/>
        <pt x="574" y="607" on="0"/>
        <pt x="540" y="573" on="0"/>
        <pt x="518" y="573" on="1"/>
        <pt x="501" y="573" on="0"/>
        <pt x="478" y="593" on="0"/>
        <pt x="478" y="610" on="1"/>
        <pt x="478" y="625" on="0"/>
        <pt x="494" y="650" on="0"/>
        <pt x="507" y="657" on="1"/>
        <pt x="515" y="662" on="0"/>
        <pt x="523" y="665" on="1"/>
        <pt x="513" y="671" on="0"/>
        <pt x="490" y="676" on="0"/>
        <pt x="479" y="676" on="1"/>
        <pt x="456" y="676" on="0"/>
        <pt x="430" y="643" on="0"/>
        <pt x="425" y="623" on="1"/>
        <pt x="417" y="589" on="0"/>
        <pt x="401" y="499" on="0"/>
        <pt x="389" y="431" on="1"/>
        <pt x="478" y="431" on="1"/>
        <pt x="491" y="431" on="0"/>
        <pt x="508" y="428" on="0"/>
        <pt x="508" y="417" on="1"/>
        <pt x="508" y="403" on="0"/>
        <pt x="491" y="398" on="0"/>
        <pt x="476" y="398" on="1"/>
        <pt x="383" y="398" on="1"/>
      </contour>
    </TTGlyph>
    <TTGlyph name="fiveoldstyle" xMin="53" yMin="-215" xMax="477" yMax="451">
      <contour>
        <pt x="140" y="164" on="1"/>
        <pt x="171" y="192" on="0"/>
        <pt x="243" y="213" on="0"/>
        <pt x="277" y="213" on="1"/>
        <pt x="319" y="213" on="0"/>
        <pt x="392" y="179" on="0"/>
        <pt x="446" y="121" on="0"/>
        <pt x="477" y="44" on="0"/>
        <pt x="477" y="0" on="1"/>
        <pt x="477" y="-45" on="0"/>
        <pt x="440" y="-124" on="0"/>
        <pt x="377" y="-182" on="0"/>
        <pt x="293" y="-215" on="0"/>
        <pt x="247" y="-215" on="1"/>
        <pt x="204" y="-215" on="0"/>
        <pt x="132" y="-185" on="0"/>
        <pt x="81" y="-135" on="0"/>
        <pt x="53" y="-72" on="0"/>
        <pt x="53" y="-39" on="1"/>
        <pt x="53" y="-20" on="0"/>
        <pt x="67" y="1" on="0"/>
        <pt x="84" y="11" on="0"/>
        <pt x="100" y="13" on="0"/>
        <pt x="101" y="13" on="1"/>
        <pt x="123" y="13" on="0"/>
        <pt x="150" y="-15" on="0"/>
        <pt x="150" y="-35" on="1"/>
        <pt x="150" y="-55" on="0"/>
        <pt x="121" y="-87" on="0"/>
        <pt x="92" y="-83" on="1"/>
        <pt x="109" y="-129" on="0"/>
        <pt x="194" y="-185" on="0"/>
        <pt x="244" y="-185" on="1"/>
        <pt x="314" y="-185" on="0"/>
        <pt x="357" y="-128" on="1"/>
        <pt x="369" y="-112" on="0"/>
        <pt x="381" y="-75" on="0"/>
        <pt x="387" y="-38" on="0"/>
        <pt x="388" y="-6" on="0"/>
        <pt x="388" y="4" on="1"/>
        <pt x="388" y="55" on="0"/>
        <pt x="375" y="110" on="0"/>
        <pt x="364" y="130" on="1"/>
        <pt x="351" y="152" on="0"/>
        <pt x="307" y="185" on="0"/>
        <pt x="274" y="185" on="1"/>
        <pt x="242" y="185" on="0"/>
        <pt x="195" y="169" on="0"/>
        <pt x="162" y="147" on="0"/>
        <pt x="142" y="125" on="0"/>
        <pt x="137" y="118" on="1"/>
        <pt x="134" y="114" on="0"/>
        <pt x="128" y="109" on="0"/>
        <pt x="122" y="109" on="1"/>
        <pt x="111" y="109" on="0"/>
        <pt x="107" y="126" on="0"/>
        <pt x="107" y="140" on="1"/>
        <pt x="107" y="422" on="1"/>
        <pt x="107" y="436" on="0"/>
        <pt x="110" y="451" on="0"/>
        <pt x="119" y="451" on="1"/>
        <pt x="121" y="451" on="0"/>
        <pt x="125" y="450" on="0"/>
        <pt x="132" y="447" on="1"/>
        <pt x="201" y="421" on="0"/>
        <pt x="272" y="421" on="1"/>
        <pt x="288" y="421" on="0"/>
        <pt x="363" y="429" on="0"/>
        <pt x="411" y="447" on="1"/>
        <pt x="418" y="450" on="0"/>
        <pt x="422" y="451" on="0"/>
        <pt x="424" y="451" on="1"/>
        <pt x="426" y="451" on="0"/>
        <pt x="436" y="447" on="0"/>
        <pt x="436" y="438" on="1"/>
        <pt x="436" y="431" on="0"/>
        <pt x="420" y="412" on="0"/>
        <pt x="396" y="392" on="0"/>
        <pt x="369" y="374" on="0"/>
        <pt x="358" y="368" on="1"/>
        <pt x="330" y="354" on="0"/>
        <pt x="268" y="338" on="0"/>
        <pt x="236" y="338" on="1"/>
        <pt x="212" y="338" on="0"/>
        <pt x="160" y="346" on="0"/>
        <pt x="140" y="352" on="1"/>
      </contour>
    </TTGlyph>
    <TTGlyph name="fouroldstyle" xMin="29" yMin="-194" xMax="501" yMax="462">
      <contour>
        <pt x="394" y="33" on="1"/>
        <pt x="471" y="33" on="1"/>
        <pt x="485" y="33" on="0"/>
        <pt x="501" y="29" on="0"/>
        <pt x="501" y="17" on="1"/>
        <pt x="501" y="4" on="0"/>
        <pt x="486" y="0" on="0"/>
        <pt x="471" y="0" on="1"/>
        <pt x="394" y="0" on="1"/>
        <pt x="394" y="-115" on="1"/>
        <pt x="394" y="-130" on="0"/>
        <pt x="396" y="-148" on="0"/>
        <pt x="409" y="-158" on="0"/>
        <pt x="438" y="-161" on="0"/>
        <pt x="464" y="-161" on="1"/>
        <pt x="482" y="-161" on="0"/>
        <pt x="497" y="-165" on="0"/>
        <pt x="497" y="-178" on="1"/>
        <pt x="497" y="-190" on="0"/>
        <pt x="482" y="-194" on="0"/>
        <pt x="479" y="-194" on="1"/>
        <pt x="469" y="-194" on="0"/>
        <pt x="429" y="-192" on="0"/>
        <pt x="418" y="-191" on="1"/>
        <pt x="290" y="-191" on="1"/>
        <pt x="276" y="-192" on="0"/>
        <pt x="242" y="-194" on="0"/>
        <pt x="228" y="-194" on="1"/>
        <pt x="225" y="-194" on="0"/>
        <pt x="210" y="-190" on="0"/>
        <pt x="210" y="-178" on="1"/>
        <pt x="210" y="-165" on="0"/>
        <pt x="225" y="-161" on="0"/>
        <pt x="240" y="-161" on="1"/>
        <pt x="267" y="-161" on="0"/>
        <pt x="297" y="-158" on="0"/>
        <pt x="311" y="-148" on="0"/>
        <pt x="313" y="-130" on="0"/>
        <pt x="313" y="-115" on="1"/>
        <pt x="313" y="0" on="1"/>
        <pt x="60" y="0" on="1"/>
        <pt x="42" y="0" on="0"/>
        <pt x="29" y="5" on="0"/>
        <pt x="29" y="21" on="1"/>
        <pt x="29" y="29" on="0"/>
        <pt x="31" y="36" on="0"/>
        <pt x="39" y="45" on="1"/>
        <pt x="347" y="448" on="1"/>
        <pt x="355" y="458" on="0"/>
        <pt x="362" y="462" on="0"/>
        <pt x="373" y="462" on="1"/>
        <pt x="389" y="462" on="0"/>
        <pt x="394" y="449" on="0"/>
        <pt x="394" y="432" on="1"/>
      </contour>
      <contour>
        <pt x="66" y="33" on="1"/>
        <pt x="320" y="33" on="1"/>
        <pt x="320" y="365" on="1"/>
      </contour>
    </TTGlyph>
    <TTGlyph name="g" xMin="21" yMin="-204" xMax="500" yMax="441">
      <contour>
        <pt x="387" y="-67" on="1"/>
        <pt x="381" y="-90" on="0"/>
        <pt x="349" y="-138" on="0"/>
        <pt x="293" y="-178" on="0"/>
        <pt x="212" y="-204" on="0"/>
        <pt x="159" y="-204" on="1"/>
        <pt x="137" y="-204" on="0"/>
        <pt x="88" y="-201" on="0"/>
        <pt x="47" y="-189" on="0"/>
        <pt x="21" y="-164" on="0"/>
        <pt x="21" y="-143" on="1"/>
        <pt x="21" y="-113" on="0"/>
        <pt x="58" y="-83" on="0"/>
        <pt x="77" y="-83" on="1"/>
        <pt x="93" y="-83" on="0"/>
        <pt x="116" y="-102" on="0"/>
        <pt x="116" y="-120" on="1"/>
        <pt x="116" y="-133" on="0"/>
        <pt x="101" y="-161" on="0"/>
        <pt x="84" y="-170" on="1"/>
        <pt x="102" y="-174" on="0"/>
        <pt x="138" y="-176" on="0"/>
        <pt x="157" y="-176" on="1"/>
        <pt x="176" y="-176" on="0"/>
        <pt x="230" y="-167" on="0"/>
        <pt x="262" y="-140" on="1"/>
        <pt x="291" y="-115" on="0"/>
        <pt x="311" y="-68" on="0"/>
        <pt x="319" y="-36" on="1"/>
        <pt x="341" y="54" on="1"/>
        <pt x="316" y="32" on="0"/>
        <pt x="256" y="0" on="0"/>
        <pt x="221" y="0" on="1"/>
        <pt x="193" y="0" on="0"/>
        <pt x="141" y="20" on="0"/>
        <pt x="101" y="61" on="0"/>
        <pt x="76" y="122" on="0"/>
        <pt x="76" y="162" on="1"/>
        <pt x="76" y="217" on="0"/>
        <pt x="120" y="318" on="0"/>
        <pt x="191" y="395" on="0"/>
        <pt x="280" y="441" on="0"/>
        <pt x="325" y="441" on="1"/>
        <pt x="348" y="441" on="0"/>
        <pt x="382" y="427" on="0"/>
        <pt x="406" y="408" on="0"/>
        <pt x="420" y="389" on="0"/>
        <pt x="423" y="383" on="1"/>
        <pt x="426" y="399" on="0"/>
        <pt x="451" y="422" on="0"/>
        <pt x="468" y="422" on="1"/>
        <pt x="478" y="422" on="0"/>
        <pt x="500" y="408" on="0"/>
        <pt x="500" y="391" on="1"/>
        <pt x="500" y="390" on="0"/>
        <pt x="499" y="380" on="0"/>
        <pt x="496" y="369" on="1"/>
      </contour>
      <contour>
        <pt x="410" y="330" on="1"/>
        <pt x="410" y="333" on="0"/>
        <pt x="402" y="360" on="0"/>
        <pt x="383" y="390" on="0"/>
        <pt x="350" y="413" on="0"/>
        <pt x="325" y="413" on="1"/>
        <pt x="295" y="413" on="0"/>
        <pt x="230" y="366" on="0"/>
        <pt x="206" y="323" on="1"/>
        <pt x="196" y="304" on="0"/>
        <pt x="177" y="248" on="0"/>
        <pt x="163" y="189" on="0"/>
        <pt x="154" y="137" on="0"/>
        <pt x="154" y="121" on="1"/>
        <pt x="154" y="76" on="0"/>
        <pt x="193" y="28" on="0"/>
        <pt x="223" y="28" on="1"/>
        <pt x="238" y="28" on="0"/>
        <pt x="267" y="38" on="0"/>
        <pt x="291" y="50" on="0"/>
        <pt x="308" y="62" on="0"/>
        <pt x="311" y="65" on="1"/>
        <pt x="327" y="79" on="0"/>
        <pt x="356" y="111" on="0"/>
        <pt x="361" y="132" on="1"/>
      </contour>
    </TTGlyph>
    <TTGlyph name="gamma" xMin="18" yMin="-215" xMax="572" yMax="441">
      <contour>
        <pt x="413" y="139" on="1"/>
        <pt x="432" y="191" on="0"/>
        <pt x="477" y="293" on="0"/>
        <pt x="517" y="374" on="0"/>
        <pt x="545" y="426" on="0"/>
        <pt x="546" y="427" on="1"/>
        <pt x="550" y="431" on="0"/>
        <pt x="557" y="431" on="1"/>
        <pt x="568" y="431" on="0"/>
        <pt x="572" y="420" on="0"/>
        <pt x="572" y="419" on="1"/>
        <pt x="572" y="417" on="0"/>
        <pt x="569" y="409" on="0"/>
        <pt x="560" y="392" on="1"/>
        <pt x="525" y="326" on="0"/>
        <pt x="470" y="202" on="0"/>
        <pt x="431" y="103" on="0"/>
        <pt x="409" y="37" on="0"/>
        <pt x="408" y="29" on="1"/>
        <pt x="403" y="-5" on="0"/>
        <pt x="386" y="-105" on="0"/>
        <pt x="364" y="-175" on="1"/>
        <pt x="351" y="-215" on="0"/>
        <pt x="336" y="-215" on="1"/>
        <pt x="324" y="-215" on="0"/>
        <pt x="319" y="-195" on="0"/>
        <pt x="319" y="-193" on="1"/>
        <pt x="319" y="-182" on="0"/>
        <pt x="329" y="-133" on="0"/>
        <pt x="344" y="-73" on="0"/>
        <pt x="363" y="-9" on="0"/>
        <pt x="371" y="18" on="1"/>
        <pt x="374" y="27" on="0"/>
        <pt x="377" y="41" on="0"/>
        <pt x="380" y="59" on="0"/>
        <pt x="381" y="84" on="0"/>
        <pt x="381" y="105" on="1"/>
        <pt x="381" y="137" on="0"/>
        <pt x="372" y="225" on="0"/>
        <pt x="338" y="306" on="0"/>
        <pt x="268" y="363" on="0"/>
        <pt x="208" y="363" on="1"/>
        <pt x="197" y="363" on="0"/>
        <pt x="153" y="356" on="0"/>
        <pt x="104" y="334" on="0"/>
        <pt x="60" y="294" on="0"/>
        <pt x="49" y="260" on="1"/>
        <pt x="47" y="254" on="0"/>
        <pt x="41" y="249" on="0"/>
        <pt x="33" y="249" on="1"/>
        <pt x="28" y="249" on="0"/>
        <pt x="18" y="254" on="0"/>
        <pt x="18" y="261" on="1"/>
        <pt x="18" y="274" on="0"/>
        <pt x="45" y="334" on="0"/>
        <pt x="97" y="395" on="0"/>
        <pt x="173" y="441" on="0"/>
        <pt x="222" y="441" on="1"/>
        <pt x="247" y="441" on="0"/>
        <pt x="286" y="427" on="0"/>
        <pt x="316" y="405" on="0"/>
        <pt x="339" y="379" on="0"/>
        <pt x="347" y="366" on="1"/>
        <pt x="347" y="366" on="0"/>
        <pt x="364" y="336" on="0"/>
        <pt x="385" y="282" on="0"/>
        <pt x="406" y="207" on="0"/>
        <pt x="410" y="161" on="1"/>
      </contour>
    </TTGlyph>
    <TTGlyph name="greater" xMin="88" yMin="-64" xMax="737" yMax="564">
      <contour>
        <pt x="129" y="-57" on="1"/>
        <pt x="119" y="-62" on="0"/>
        <pt x="113" y="-64" on="0"/>
        <pt x="111" y="-64" on="1"/>
        <pt x="101" y="-64" on="0"/>
        <pt x="88" y="-51" on="0"/>
        <pt x="88" y="-41" on="1"/>
        <pt x="88" y="-31" on="0"/>
        <pt x="100" y="-21" on="0"/>
        <pt x="109" y="-16" on="1"/>
        <pt x="661" y="250" on="1"/>
        <pt x="109" y="516" on="1"/>
        <pt x="100" y="521" on="0"/>
        <pt x="88" y="531" on="0"/>
        <pt x="88" y="541" on="1"/>
        <pt x="88" y="551" on="0"/>
        <pt x="101" y="564" on="0"/>
        <pt x="111" y="564" on="1"/>
        <pt x="113" y="564" on="0"/>
        <pt x="119" y="562" on="0"/>
        <pt x="129" y="557" on="1"/>
        <pt x="716" y="275" on="1"/>
        <pt x="725" y="270" on="0"/>
        <pt x="737" y="260" on="0"/>
        <pt x="737" y="250" on="1"/>
        <pt x="737" y="240" on="0"/>
        <pt x="725" y="230" on="0"/>
        <pt x="716" y="225" on="1"/>
      </contour>
    </TTGlyph>
    <TTGlyph name="h" xMin="57" yMin="-10" xMax="580" yMax="694">
      <contour>
        <pt x="218" y="364" on="1"/>
        <pt x="253" y="404" on="0"/>
        <pt x="331" y="441" on="0"/>
        <pt x="373" y="441" on="1"/>
        <pt x="427" y="441" on="0"/>
        <pt x="497" y="387" on="0"/>
        <pt x="497" y="330" on="1"/>
        <pt x="497" y="309" on="0"/>
        <pt x="483" y="249" on="0"/>
        <pt x="463" y="188" on="0"/>
        <pt x="444" y="135" on="0"/>
        <pt x="438" y="121" on="1"/>
        <pt x="430" y="102" on="0"/>
        <pt x="420" y="68" on="0"/>
        <pt x="420" y="51" on="1"/>
        <pt x="420" y="18" on="0"/>
        <pt x="444" y="18" on="1"/>
        <pt x="473" y="18" on="0"/>
        <pt x="530" y="77" on="0"/>
        <pt x="548" y="139" on="1"/>
        <pt x="550" y="147" on="0"/>
        <pt x="556" y="156" on="0"/>
        <pt x="565" y="156" on="1"/>
        <pt x="570" y="156" on="0"/>
        <pt x="580" y="151" on="0"/>
        <pt x="580" y="143" on="1"/>
        <pt x="580" y="138" on="0"/>
        <pt x="564" y="89" on="0"/>
        <pt x="530" y="34" on="0"/>
        <pt x="478" y="-10" on="0"/>
        <pt x="441" y="-10" on="1"/>
        <pt x="425" y="-10" on="0"/>
        <pt x="393" y="1" on="0"/>
        <pt x="367" y="22" on="0"/>
        <pt x="351" y="54" on="0"/>
        <pt x="351" y="75" on="1"/>
        <pt x="351" y="85" on="0"/>
        <pt x="354" y="102" on="0"/>
        <pt x="364" y="127" on="1"/>
        <pt x="371" y="145" on="0"/>
        <pt x="392" y="203" on="0"/>
        <pt x="411" y="265" on="0"/>
        <pt x="425" y="324" on="0"/>
        <pt x="425" y="345" on="1"/>
        <pt x="425" y="380" on="0"/>
        <pt x="395" y="413" on="0"/>
        <pt x="368" y="413" on="1"/>
        <pt x="318" y="413" on="0"/>
        <pt x="246" y="357" on="0"/>
        <pt x="220" y="320" on="1"/>
        <pt x="212" y="308" on="0"/>
        <pt x="202" y="293" on="0"/>
        <pt x="195" y="275" on="0"/>
        <pt x="189" y="250" on="0"/>
        <pt x="183" y="228" on="1"/>
        <pt x="182" y="222" on="0"/>
        <pt x="177" y="204" on="0"/>
        <pt x="173" y="184" on="0"/>
        <pt x="168" y="166" on="0"/>
        <pt x="167" y="160" on="1"/>
        <pt x="144" y="71" on="1"/>
        <pt x="140" y="56" on="0"/>
        <pt x="130" y="18" on="0"/>
        <pt x="128" y="13" on="1"/>
        <pt x="122" y="3" on="0"/>
        <pt x="102" y="-10" on="0"/>
        <pt x="90" y="-10" on="1"/>
        <pt x="76" y="-10" on="0"/>
        <pt x="57" y="8" on="0"/>
        <pt x="57" y="21" on="1"/>
        <pt x="57" y="22" on="0"/>
        <pt x="58" y="32" on="0"/>
        <pt x="61" y="43" on="1"/>
        <pt x="203" y="612" on="1"/>
        <pt x="207" y="626" on="0"/>
        <pt x="208" y="633" on="0"/>
        <pt x="208" y="635" on="1"/>
        <pt x="208" y="638" on="0"/>
        <pt x="207" y="644" on="0"/>
        <pt x="198" y="648" on="0"/>
        <pt x="178" y="650" on="0"/>
        <pt x="160" y="650" on="1"/>
        <pt x="151" y="650" on="0"/>
        <pt x="134" y="653" on="0"/>
        <pt x="134" y="664" on="1"/>
        <pt x="134" y="678" on="0"/>
        <pt x="149" y="683" on="0"/>
        <pt x="166" y="685" on="1"/>
        <pt x="222" y="689" on="1"/>
        <pt x="239" y="691" on="0"/>
        <pt x="277" y="694" on="0"/>
        <pt x="280" y="694" on="1"/>
        <pt x="289" y="694" on="0"/>
        <pt x="296" y="684" on="0"/>
        <pt x="296" y="680" on="1"/>
        <pt x="296" y="679" on="0"/>
        <pt x="293" y="666" on="0"/>
        <pt x="292" y="664" on="1"/>
      </contour>
    </TTGlyph>
    <TTGlyph name="i" xMin="30" yMin="-10" xMax="317" yMax="662">
      <contour>
        <pt x="179" y="326" on="1"/>
        <pt x="187" y="349" on="0"/>
        <pt x="190" y="372" on="0"/>
        <pt x="190" y="380" on="1"/>
        <pt x="190" y="401" on="0"/>
        <pt x="177" y="413" on="0"/>
        <pt x="166" y="413" on="1"/>
        <pt x="155" y="413" on="0"/>
        <pt x="127" y="402" on="0"/>
        <pt x="99" y="374" on="0"/>
        <pt x="73" y="327" on="0"/>
        <pt x="62" y="291" on="1"/>
        <pt x="60" y="283" on="0"/>
        <pt x="55" y="275" on="0"/>
        <pt x="45" y="275" on="1"/>
        <pt x="39" y="275" on="0"/>
        <pt x="30" y="281" on="0"/>
        <pt x="30" y="288" on="1"/>
        <pt x="30" y="293" on="0"/>
        <pt x="46" y="342" on="0"/>
        <pt x="80" y="397" on="0"/>
        <pt x="133" y="441" on="0"/>
        <pt x="169" y="441" on="1"/>
        <pt x="207" y="441" on="0"/>
        <pt x="260" y="394" on="0"/>
        <pt x="260" y="356" on="1"/>
        <pt x="260" y="343" on="0"/>
        <pt x="246" y="302" on="0"/>
        <pt x="239" y="285" on="1"/>
        <pt x="208" y="204" on="1"/>
        <pt x="200" y="184" on="0"/>
        <pt x="185" y="143" on="0"/>
        <pt x="177" y="123" on="1"/>
        <pt x="167" y="100" on="0"/>
        <pt x="157" y="68" on="0"/>
        <pt x="157" y="50" on="1"/>
        <pt x="157" y="30" on="0"/>
        <pt x="172" y="18" on="0"/>
        <pt x="181" y="18" on="1"/>
        <pt x="211" y="18" on="0"/>
        <pt x="268" y="79" on="0"/>
        <pt x="285" y="139" on="1"/>
        <pt x="287" y="147" on="0"/>
        <pt x="293" y="156" on="0"/>
        <pt x="302" y="156" on="1"/>
        <pt x="307" y="156" on="0"/>
        <pt x="317" y="151" on="0"/>
        <pt x="317" y="143" on="1"/>
        <pt x="317" y="138" on="0"/>
        <pt x="301" y="89" on="0"/>
        <pt x="268" y="34" on="0"/>
        <pt x="215" y="-10" on="0"/>
        <pt x="179" y="-10" on="1"/>
        <pt x="139" y="-10" on="0"/>
        <pt x="88" y="38" on="0"/>
        <pt x="88" y="75" on="1"/>
        <pt x="88" y="88" on="0"/>
        <pt x="94" y="108" on="0"/>
        <pt x="98" y="119" on="1"/>
      </contour>
      <contour>
        <pt x="298" y="624" on="1"/>
        <pt x="298" y="601" on="0"/>
        <pt x="263" y="570" on="0"/>
        <pt x="243" y="570" on="1"/>
        <pt x="226" y="570" on="0"/>
        <pt x="204" y="591" on="0"/>
        <pt x="204" y="608" on="1"/>
        <pt x="204" y="631" on="0"/>
        <pt x="239" y="662" on="0"/>
        <pt x="259" y="662" on="1"/>
        <pt x="276" y="662" on="0"/>
        <pt x="298" y="641" on="0"/>
      </contour>
    </TTGlyph>
</ttFont>
